SplineFontDB: 3.2
FontName: PressStart2P-Regular
FullName: Press Start 2P Regular
FamilyName: Press Start 2P
Weight: Book
Copyright: Copyright 2012 The Press Start 2P Project Authors (cody@zone38.net), with Reserved Font Name "Press Start 2P"
Version: 3.000
ItalicAngle: 0
UnderlinePosition: -100
UnderlineWidth: 50
Ascent: 1000
Descent: 0
InvalidEm: 0
sfntRevision: 0x00030000
LayerCount: 2
Layer: 0 1 "Back" 1
Layer: 1 1 "Fore" 0
XUID: [1021 715 -1008914153 15069]
StyleMap: 0x0040
FSType: 0
OS2Version: 4
OS2_WeightWidthSlopeOnly: 0
OS2_UseTypoMetrics: 1
CreationTime: 1476489334
ModificationTime: 1589121355
PfmFamily: 81
TTFWeight: 400
TTFWidth: 5
LineGap: 0
VLineGap: 0
Panose: 0 0 5 0 0 0 0 0 0 0
OS2TypoAscent: 1000
OS2TypoAOffset: 0
OS2TypoDescent: 0
OS2TypoDOffset: 0
OS2TypoLinegap: 0
OS2WinAscent: 1000
OS2WinAOffset: 0
OS2WinDescent: 374
OS2WinDOffset: 0
HheadAscent: 1000
HheadAOffset: 0
HheadDescent: 0
HheadDOffset: 0
OS2SubXSize: 650
OS2SubYSize: 600
OS2SubXOff: 0
OS2SubYOff: 75
OS2SupXSize: 650
OS2SupYSize: 600
OS2SupXOff: 0
OS2SupYOff: 350
OS2StrikeYSize: 50
OS2StrikeYPos: 450
OS2CapHeight: 1000
OS2XHeight: 750
OS2Vendor: 'CYRE'
OS2CodePages: 2000009f.00000000
OS2UnicodeRanges: 00000287.00000000.00000000.00000000
Lookup: 1 0 0 "'aalt' Access All Alternates in Latin lookup 0" { "'aalt' Access All Alternates in Latin lookup 0 subtable"  } ['aalt' ('DFLT' <'dflt' > 'latn' <'CAT ' 'dflt' > ) ]
Lookup: 6 0 0 "'ccmp' Glyph Composition/Decomposition in Latin lookup 1" { "'ccmp' Glyph Composition/Decomposition in Latin lookup 1 contextual 0"  "'ccmp' Glyph Composition/Decomposition in Latin lookup 1 contextual 1"  } ['ccmp' ('DFLT' <'dflt' > 'latn' <'CAT ' 'dflt' > ) ]
Lookup: 6 0 0 "'locl' Localized Forms in Latin lookup 2" { "'locl' Localized Forms in Latin lookup 2 contextual 0"  "'locl' Localized Forms in Latin lookup 2 contextual 1"  } ['locl' ('latn' <'CAT ' > ) ]

StartChar: .notdef
Encoding: 65536 -1 0
Width: 1000
Flags: W
LayerCount: 2
Fore
SplineSet
125 125 m 1,0,-1
 125 1000 l 1,1,-1
 875 1000 l 1,2,-1
 875 125 l 1,3,-1
 125 125 l 1,0,-1
375 500 m 1,4,-1
 750 500 l 1,5,-1
 750 875 l 1,6,-1
 250 875 l 1,7,-1
 250 750 l 1,8,-1
 625 750 l 1,9,-1
 625 625 l 1,10,-1
 375 625 l 1,11,-1
 375 500 l 1,4,-1
375 250 m 1,12,-1
 500 250 l 1,13,-1
 500 375 l 1,14,-1
 375 375 l 1,15,-1
 375 250 l 1,12,-1
EndSplineSet
Validated: 1
EndChar

StartChar: A
Encoding: 65 65 4
Width: 1000
Flags: W
LayerCount: 2
Fore
SplineSet
0 125 m 1,0,-1
 0 750 l 1,1,-1
 125 750 l 1,2,-1
 125 875 l 1,3,-1
 250 875 l 1,4,-1
 250 1000 l 1,5,-1
 625 1000 l 1,6,-1
 625 875 l 1,7,-1
 750 875 l 1,8,-1
 750 750 l 1,9,-1
 875 750 l 1,10,-1
 875 125 l 1,11,-1
 625 125 l 1,12,-1
 625 375 l 1,13,-1
 250 375 l 1,14,-1
 250 125 l 1,15,-1
 0 125 l 1,0,-1
250 500 m 1,16,-1
 625 500 l 1,17,-1
 625 750 l 1,18,-1
 500 750 l 1,19,-1
 500 875 l 1,20,-1
 375 875 l 1,21,-1
 375 750 l 1,22,-1
 250 750 l 1,23,-1
 250 500 l 1,16,-1
EndSplineSet
Validated: 1
Substitution2: "Single Substitution lookup 10 subtable" ordfeminine
Substitution2: "'aalt' Access All Alternates in Latin lookup 0 subtable" ordfeminine
EndChar

StartChar: Aacute
Encoding: 193 193 5
Width: 1000
Flags: W
LayerCount: 2
Fore
SplineSet
625 875 m 1,0,-1
 500 875 l 1,1,-1
 500 1000 l 1,2,-1
 625 1000 l 1,3,-1
 625 875 l 1,0,-1
875 500 m 1,4,-1
 875 125 l 1,5,-1
 625 125 l 1,6,-1
 625 250 l 1,7,-1
 250 250 l 1,8,-1
 250 125 l 1,9,-1
 0 125 l 1,10,-1
 0 500 l 1,11,-1
 125 500 l 1,12,-1
 125 625 l 1,13,-1
 250 625 l 1,14,-1
 250 750 l 1,15,-1
 375 750 l 1,16,-1
 375 875 l 1,17,-1
 500 875 l 1,18,-1
 500 750 l 1,19,-1
 625 750 l 1,20,-1
 625 625 l 1,21,-1
 750 625 l 1,22,-1
 750 500 l 1,23,-1
 875 500 l 1,4,-1
625 500 m 1,24,-1
 500 500 l 1,25,-1
 500 625 l 1,26,-1
 375 625 l 1,27,-1
 375 500 l 1,28,-1
 250 500 l 1,29,-1
 250 375 l 1,30,-1
 625 375 l 1,31,-1
 625 500 l 1,24,-1
EndSplineSet
Validated: 5
EndChar

StartChar: Abreve
Encoding: 258 258 6
Width: 1000
Flags: W
LayerCount: 2
Fore
SplineSet
250 1000 m 1,0,-1
 250 875 l 1,1,-1
 125 875 l 1,2,-1
 125 1000 l 1,3,-1
 250 1000 l 1,0,-1
750 875 m 1,4,-1
 625 875 l 1,5,-1
 625 1000 l 1,6,-1
 750 1000 l 1,7,-1
 750 875 l 1,4,-1
875 500 m 1,8,-1
 875 125 l 1,9,-1
 625 125 l 1,10,-1
 625 250 l 1,11,-1
 250 250 l 1,12,-1
 250 125 l 1,13,-1
 0 125 l 1,14,-1
 0 500 l 1,15,-1
 125 500 l 1,16,-1
 125 625 l 1,17,-1
 250 625 l 1,18,-1
 250 875 l 1,19,-1
 625 875 l 1,20,-1
 625 625 l 1,21,-1
 750 625 l 1,22,-1
 750 500 l 1,23,-1
 875 500 l 1,8,-1
625 500 m 1,24,-1
 500 500 l 1,25,-1
 500 625 l 1,26,-1
 375 625 l 1,27,-1
 375 500 l 1,28,-1
 250 500 l 1,29,-1
 250 375 l 1,30,-1
 625 375 l 1,31,-1
 625 500 l 1,24,-1
EndSplineSet
Validated: 5
EndChar

StartChar: Acircumflex
Encoding: 194 194 7
Width: 1000
Flags: W
LayerCount: 2
Fore
SplineSet
0 125 m 1,0,-1
 0 500 l 1,1,-1
 125 500 l 1,2,-1
 125 625 l 1,3,-1
 250 625 l 1,4,-1
 250 750 l 1,5,-1
 125 750 l 1,6,-1
 125 875 l 1,7,-1
 250 875 l 1,8,-1
 250 1000 l 1,9,-1
 625 1000 l 1,10,-1
 625 875 l 1,11,-1
 750 875 l 1,12,-1
 750 750 l 1,13,-1
 625 750 l 1,14,-1
 625 625 l 1,15,-1
 750 625 l 1,16,-1
 750 500 l 1,17,-1
 875 500 l 1,18,-1
 875 125 l 1,19,-1
 625 125 l 1,20,-1
 625 250 l 1,21,-1
 250 250 l 1,22,-1
 250 125 l 1,23,-1
 0 125 l 1,0,-1
375 750 m 1,24,-1
 500 750 l 1,25,-1
 500 875 l 1,26,-1
 375 875 l 1,27,-1
 375 750 l 1,24,-1
250 375 m 1,28,-1
 625 375 l 1,29,-1
 625 500 l 1,30,-1
 500 500 l 1,31,-1
 500 625 l 1,32,-1
 375 625 l 1,33,-1
 375 500 l 1,34,-1
 250 500 l 1,35,-1
 250 375 l 1,28,-1
EndSplineSet
Validated: 1
EndChar

StartChar: Adieresis
Encoding: 196 196 8
Width: 1000
Flags: W
LayerCount: 2
Fore
SplineSet
125 875 m 1,0,-1
 125 1000 l 1,1,-1
 375 1000 l 1,2,-1
 375 875 l 1,3,-1
 125 875 l 1,0,-1
500 875 m 1,4,-1
 500 1000 l 1,5,-1
 750 1000 l 1,6,-1
 750 875 l 1,7,-1
 500 875 l 1,4,-1
0 125 m 1,8,-1
 0 500 l 1,9,-1
 125 500 l 1,10,-1
 125 625 l 1,11,-1
 250 625 l 1,12,-1
 250 750 l 1,13,-1
 625 750 l 1,14,-1
 625 625 l 1,15,-1
 750 625 l 1,16,-1
 750 500 l 1,17,-1
 875 500 l 1,18,-1
 875 125 l 1,19,-1
 625 125 l 1,20,-1
 625 250 l 1,21,-1
 250 250 l 1,22,-1
 250 125 l 1,23,-1
 0 125 l 1,8,-1
250 375 m 1,24,-1
 625 375 l 1,25,-1
 625 500 l 1,26,-1
 500 500 l 1,27,-1
 500 625 l 1,28,-1
 375 625 l 1,29,-1
 375 500 l 1,30,-1
 250 500 l 1,31,-1
 250 375 l 1,24,-1
EndSplineSet
Validated: 1
EndChar

StartChar: Agrave
Encoding: 192 192 9
Width: 1000
Flags: W
LayerCount: 2
Fore
SplineSet
375 1000 m 1,0,-1
 375 875 l 1,1,-1
 250 875 l 1,2,-1
 250 1000 l 1,3,-1
 375 1000 l 1,0,-1
875 500 m 1,4,-1
 875 125 l 1,5,-1
 625 125 l 1,6,-1
 625 250 l 1,7,-1
 250 250 l 1,8,-1
 250 125 l 1,9,-1
 0 125 l 1,10,-1
 0 500 l 1,11,-1
 125 500 l 1,12,-1
 125 625 l 1,13,-1
 250 625 l 1,14,-1
 250 750 l 1,15,-1
 375 750 l 1,16,-1
 375 875 l 1,17,-1
 500 875 l 1,18,-1
 500 750 l 1,19,-1
 625 750 l 1,20,-1
 625 625 l 1,21,-1
 750 625 l 1,22,-1
 750 500 l 1,23,-1
 875 500 l 1,4,-1
625 500 m 1,24,-1
 500 500 l 1,25,-1
 500 625 l 1,26,-1
 375 625 l 1,27,-1
 375 500 l 1,28,-1
 250 500 l 1,29,-1
 250 375 l 1,30,-1
 625 375 l 1,31,-1
 625 500 l 1,24,-1
EndSplineSet
Validated: 5
EndChar

StartChar: Amacron
Encoding: 256 256 10
Width: 1000
Flags: W
LayerCount: 2
Fore
SplineSet
125 875 m 1,0,-1
 125 1000 l 1,1,-1
 750 1000 l 1,2,-1
 750 875 l 1,3,-1
 125 875 l 1,0,-1
0 125 m 1,4,-1
 0 500 l 1,5,-1
 125 500 l 1,6,-1
 125 625 l 1,7,-1
 250 625 l 1,8,-1
 250 750 l 1,9,-1
 625 750 l 1,10,-1
 625 625 l 1,11,-1
 750 625 l 1,12,-1
 750 500 l 1,13,-1
 875 500 l 1,14,-1
 875 125 l 1,15,-1
 625 125 l 1,16,-1
 625 250 l 1,17,-1
 250 250 l 1,18,-1
 250 125 l 1,19,-1
 0 125 l 1,4,-1
250 375 m 1,20,-1
 625 375 l 1,21,-1
 625 500 l 1,22,-1
 500 500 l 1,23,-1
 500 625 l 1,24,-1
 375 625 l 1,25,-1
 375 500 l 1,26,-1
 250 500 l 1,27,-1
 250 375 l 1,20,-1
EndSplineSet
Validated: 1
EndChar

StartChar: Aogonek
Encoding: 260 260 11
Width: 1000
Flags: W
LayerCount: 2
Fore
SplineSet
875 750 m 1,0,-1
 875 375 l 1,1,-1
 750 375 l 1,2,-1
 750 250 l 1,3,-1
 625 250 l 1,4,-1
 625 500 l 1,5,-1
 250 500 l 1,6,-1
 250 375 l 1,7,-1
 0 375 l 1,8,-1
 0 750 l 1,9,-1
 125 750 l 1,10,-1
 125 875 l 1,11,-1
 250 875 l 1,12,-1
 250 1000 l 1,13,-1
 625 1000 l 1,14,-1
 625 875 l 1,15,-1
 750 875 l 1,16,-1
 750 750 l 1,17,-1
 875 750 l 1,0,-1
625 750 m 1,18,-1
 500 750 l 1,19,-1
 500 875 l 1,20,-1
 375 875 l 1,21,-1
 375 750 l 1,22,-1
 250 750 l 1,23,-1
 250 625 l 1,24,-1
 625 625 l 1,25,-1
 625 750 l 1,18,-1
500 250 m 1,26,-1
 625 250 l 1,27,-1
 625 125 l 1,28,-1
 500 125 l 1,29,-1
 500 250 l 1,26,-1
625 0 m 1,30,-1
 625 125 l 1,31,-1
 875 125 l 1,32,-1
 875 0 l 1,33,-1
 625 0 l 1,30,-1
EndSplineSet
Validated: 5
EndChar

StartChar: Aring
Encoding: 197 197 12
Width: 1000
Flags: W
LayerCount: 2
Fore
SplineSet
0 125 m 1,0,-1
 0 500 l 1,1,-1
 125 500 l 1,2,-1
 125 625 l 1,3,-1
 250 625 l 1,4,-1
 250 875 l 1,5,-1
 375 875 l 1,6,-1
 375 1000 l 1,7,-1
 500 1000 l 1,8,-1
 500 875 l 1,9,-1
 625 875 l 1,10,-1
 625 625 l 1,11,-1
 750 625 l 1,12,-1
 750 500 l 1,13,-1
 875 500 l 1,14,-1
 875 125 l 1,15,-1
 625 125 l 1,16,-1
 625 250 l 1,17,-1
 250 250 l 1,18,-1
 250 125 l 1,19,-1
 0 125 l 1,0,-1
375 750 m 1,20,-1
 500 750 l 1,21,-1
 500 875 l 1,22,-1
 375 875 l 1,23,-1
 375 750 l 1,20,-1
250 375 m 1,24,-1
 625 375 l 1,25,-1
 625 500 l 1,26,-1
 500 500 l 1,27,-1
 500 625 l 1,28,-1
 375 625 l 1,29,-1
 375 500 l 1,30,-1
 250 500 l 1,31,-1
 250 375 l 1,24,-1
EndSplineSet
Validated: 5
EndChar

StartChar: Atilde
Encoding: 195 195 13
Width: 1000
Flags: W
LayerCount: 2
Fore
SplineSet
875 500 m 1,0,-1
 875 125 l 1,1,-1
 625 125 l 1,2,-1
 625 250 l 1,3,-1
 250 250 l 1,4,-1
 250 125 l 1,5,-1
 0 125 l 1,6,-1
 0 500 l 1,7,-1
 125 500 l 1,8,-1
 125 625 l 1,9,-1
 250 625 l 1,10,-1
 250 750 l 1,11,-1
 375 750 l 1,12,-1
 375 875 l 1,13,-1
 250 875 l 1,14,-1
 250 1000 l 1,15,-1
 500 1000 l 1,16,-1
 500 875 l 1,17,-1
 625 875 l 1,18,-1
 625 625 l 1,19,-1
 750 625 l 1,20,-1
 750 500 l 1,21,-1
 875 500 l 1,0,-1
750 875 m 1,22,-1
 625 875 l 1,23,-1
 625 1000 l 1,24,-1
 750 1000 l 1,25,-1
 750 875 l 1,22,-1
250 875 m 1,26,-1
 250 750 l 1,27,-1
 125 750 l 1,28,-1
 125 875 l 1,29,-1
 250 875 l 1,26,-1
625 500 m 1,30,-1
 500 500 l 1,31,-1
 500 625 l 1,32,-1
 375 625 l 1,33,-1
 375 500 l 1,34,-1
 250 500 l 1,35,-1
 250 375 l 1,36,-1
 625 375 l 1,37,-1
 625 500 l 1,30,-1
EndSplineSet
Validated: 5
EndChar

StartChar: AE
Encoding: 198 198 14
Width: 1000
Flags: W
LayerCount: 2
Fore
SplineSet
0 125 m 1,0,-1
 0 750 l 1,1,-1
 125 750 l 1,2,-1
 125 875 l 1,3,-1
 250 875 l 1,4,-1
 250 1000 l 1,5,-1
 875 1000 l 1,6,-1
 875 875 l 1,7,-1
 625 875 l 1,8,-1
 625 625 l 1,9,-1
 875 625 l 1,10,-1
 875 500 l 1,11,-1
 625 500 l 1,12,-1
 625 250 l 1,13,-1
 875 250 l 1,14,-1
 875 125 l 1,15,-1
 375 125 l 1,16,-1
 375 375 l 1,17,-1
 250 375 l 1,18,-1
 250 125 l 1,19,-1
 0 125 l 1,0,-1
250 500 m 1,20,-1
 375 500 l 1,21,-1
 375 750 l 1,22,-1
 250 750 l 1,23,-1
 250 500 l 1,20,-1
EndSplineSet
Validated: 1
EndChar

StartChar: B
Encoding: 66 66 15
Width: 1000
Flags: W
LayerCount: 2
Fore
SplineSet
0 125 m 1,0,-1
 0 1000 l 1,1,-1
 750 1000 l 1,2,-1
 750 875 l 1,3,-1
 875 875 l 1,4,-1
 875 625 l 1,5,-1
 750 625 l 1,6,-1
 750 500 l 1,7,-1
 875 500 l 1,8,-1
 875 250 l 1,9,-1
 750 250 l 1,10,-1
 750 125 l 1,11,-1
 0 125 l 1,0,-1
250 625 m 1,12,-1
 625 625 l 1,13,-1
 625 875 l 1,14,-1
 250 875 l 1,15,-1
 250 625 l 1,12,-1
250 250 m 1,16,-1
 625 250 l 1,17,-1
 625 500 l 1,18,-1
 250 500 l 1,19,-1
 250 250 l 1,16,-1
EndSplineSet
Validated: 1
EndChar

StartChar: C
Encoding: 67 67 16
Width: 1000
Flags: W
LayerCount: 2
Fore
SplineSet
250 125 m 1,0,-1
 250 250 l 1,1,-1
 125 250 l 1,2,-1
 125 375 l 1,3,-1
 0 375 l 1,4,-1
 0 750 l 1,5,-1
 125 750 l 1,6,-1
 125 875 l 1,7,-1
 250 875 l 1,8,-1
 250 1000 l 1,9,-1
 750 1000 l 1,10,-1
 750 875 l 1,11,-1
 875 875 l 1,12,-1
 875 750 l 1,13,-1
 625 750 l 1,14,-1
 625 875 l 1,15,-1
 375 875 l 1,16,-1
 375 750 l 1,17,-1
 250 750 l 1,18,-1
 250 375 l 1,19,-1
 375 375 l 1,20,-1
 375 250 l 1,21,-1
 625 250 l 1,22,-1
 625 375 l 1,23,-1
 875 375 l 1,24,-1
 875 250 l 1,25,-1
 750 250 l 1,26,-1
 750 125 l 1,27,-1
 250 125 l 1,0,-1
EndSplineSet
Validated: 1
EndChar

StartChar: Cacute
Encoding: 262 262 17
Width: 1000
Flags: W
LayerCount: 2
Fore
SplineSet
625 875 m 1,0,-1
 500 875 l 1,1,-1
 500 1000 l 1,2,-1
 625 1000 l 1,3,-1
 625 875 l 1,0,-1
875 625 m 1,4,-1
 875 500 l 1,5,-1
 625 500 l 1,6,-1
 625 625 l 1,7,-1
 375 625 l 1,8,-1
 375 500 l 1,9,-1
 250 500 l 1,10,-1
 250 375 l 1,11,-1
 375 375 l 1,12,-1
 375 250 l 1,13,-1
 625 250 l 1,14,-1
 625 375 l 1,15,-1
 875 375 l 1,16,-1
 875 250 l 1,17,-1
 750 250 l 1,18,-1
 750 125 l 1,19,-1
 250 125 l 1,20,-1
 250 250 l 1,21,-1
 125 250 l 1,22,-1
 125 375 l 1,23,-1
 0 375 l 1,24,-1
 0 500 l 1,25,-1
 125 500 l 1,26,-1
 125 625 l 1,27,-1
 250 625 l 1,28,-1
 250 750 l 1,29,-1
 375 750 l 1,30,-1
 375 875 l 1,31,-1
 500 875 l 1,32,-1
 500 750 l 1,33,-1
 750 750 l 1,34,-1
 750 625 l 1,35,-1
 875 625 l 1,4,-1
EndSplineSet
Validated: 5
EndChar

StartChar: Ccaron
Encoding: 268 268 18
Width: 1000
Flags: W
LayerCount: 2
Fore
SplineSet
250 125 m 1,0,-1
 250 250 l 1,1,-1
 125 250 l 1,2,-1
 125 375 l 1,3,-1
 0 375 l 1,4,-1
 0 500 l 1,5,-1
 125 500 l 1,6,-1
 125 625 l 1,7,-1
 250 625 l 1,8,-1
 250 875 l 1,9,-1
 125 875 l 1,10,-1
 125 1000 l 1,11,-1
 375 1000 l 1,12,-1
 375 875 l 1,13,-1
 625 875 l 1,14,-1
 625 1000 l 1,15,-1
 875 1000 l 1,16,-1
 875 875 l 1,17,-1
 750 875 l 1,18,-1
 750 625 l 1,19,-1
 875 625 l 1,20,-1
 875 500 l 1,21,-1
 625 500 l 1,22,-1
 625 625 l 1,23,-1
 375 625 l 1,24,-1
 375 500 l 1,25,-1
 250 500 l 1,26,-1
 250 375 l 1,27,-1
 375 375 l 1,28,-1
 375 250 l 1,29,-1
 625 250 l 1,30,-1
 625 375 l 1,31,-1
 875 375 l 1,32,-1
 875 250 l 1,33,-1
 750 250 l 1,34,-1
 750 125 l 1,35,-1
 250 125 l 1,0,-1
EndSplineSet
Validated: 1
EndChar

StartChar: Ccedilla
Encoding: 199 199 19
Width: 1000
Flags: W
LayerCount: 2
Fore
SplineSet
875 875 m 1,0,-1
 875 750 l 1,1,-1
 625 750 l 1,2,-1
 625 875 l 1,3,-1
 375 875 l 1,4,-1
 375 750 l 1,5,-1
 250 750 l 1,6,-1
 250 500 l 1,7,-1
 375 500 l 1,8,-1
 375 375 l 1,9,-1
 625 375 l 1,10,-1
 625 500 l 1,11,-1
 875 500 l 1,12,-1
 875 375 l 1,13,-1
 750 375 l 1,14,-1
 750 250 l 1,15,-1
 625 250 l 1,16,-1
 625 125 l 1,17,-1
 500 125 l 1,18,-1
 500 250 l 1,19,-1
 250 250 l 1,20,-1
 250 375 l 1,21,-1
 125 375 l 1,22,-1
 125 500 l 1,23,-1
 0 500 l 1,24,-1
 0 750 l 1,25,-1
 125 750 l 1,26,-1
 125 875 l 1,27,-1
 250 875 l 1,28,-1
 250 1000 l 1,29,-1
 750 1000 l 1,30,-1
 750 875 l 1,31,-1
 875 875 l 1,0,-1
250 125 m 1,32,-1
 500 125 l 1,33,-1
 500 0 l 1,34,-1
 250 0 l 1,35,-1
 250 125 l 1,32,-1
EndSplineSet
Validated: 5
EndChar

StartChar: Ccircumflex
Encoding: 264 264 20
Width: 1000
Flags: W
LayerCount: 2
Fore
SplineSet
250 125 m 1,0,-1
 250 250 l 1,1,-1
 125 250 l 1,2,-1
 125 375 l 1,3,-1
 0 375 l 1,4,-1
 0 500 l 1,5,-1
 125 500 l 1,6,-1
 125 625 l 1,7,-1
 250 625 l 1,8,-1
 250 750 l 1,9,-1
 125 750 l 1,10,-1
 125 875 l 1,11,-1
 250 875 l 1,12,-1
 250 1000 l 1,13,-1
 625 1000 l 1,14,-1
 625 875 l 1,15,-1
 750 875 l 1,16,-1
 750 625 l 1,17,-1
 875 625 l 1,18,-1
 875 500 l 1,19,-1
 625 500 l 1,20,-1
 625 625 l 1,21,-1
 375 625 l 1,22,-1
 375 500 l 1,23,-1
 250 500 l 1,24,-1
 250 375 l 1,25,-1
 375 375 l 1,26,-1
 375 250 l 1,27,-1
 625 250 l 1,28,-1
 625 375 l 1,29,-1
 875 375 l 1,30,-1
 875 250 l 1,31,-1
 750 250 l 1,32,-1
 750 125 l 1,33,-1
 250 125 l 1,0,-1
375 750 m 1,34,-1
 500 750 l 1,35,-1
 500 875 l 1,36,-1
 375 875 l 1,37,-1
 375 750 l 1,34,-1
EndSplineSet
Validated: 1
EndChar

StartChar: Cdotaccent
Encoding: 266 266 21
Width: 1000
Flags: W
LayerCount: 2
Fore
SplineSet
375 875 m 1,0,-1
 375 1000 l 1,1,-1
 625 1000 l 1,2,-1
 625 875 l 1,3,-1
 375 875 l 1,0,-1
250 125 m 1,4,-1
 250 250 l 1,5,-1
 125 250 l 1,6,-1
 125 375 l 1,7,-1
 0 375 l 1,8,-1
 0 500 l 1,9,-1
 125 500 l 1,10,-1
 125 625 l 1,11,-1
 250 625 l 1,12,-1
 250 750 l 1,13,-1
 750 750 l 1,14,-1
 750 625 l 1,15,-1
 875 625 l 1,16,-1
 875 500 l 1,17,-1
 625 500 l 1,18,-1
 625 625 l 1,19,-1
 375 625 l 1,20,-1
 375 500 l 1,21,-1
 250 500 l 1,22,-1
 250 375 l 1,23,-1
 375 375 l 1,24,-1
 375 250 l 1,25,-1
 625 250 l 1,26,-1
 625 375 l 1,27,-1
 875 375 l 1,28,-1
 875 250 l 1,29,-1
 750 250 l 1,30,-1
 750 125 l 1,31,-1
 250 125 l 1,4,-1
EndSplineSet
Validated: 1
EndChar

StartChar: D
Encoding: 68 68 22
Width: 1000
Flags: W
LayerCount: 2
Fore
SplineSet
0 125 m 1,0,-1
 0 1000 l 1,1,-1
 625 1000 l 1,2,-1
 625 875 l 1,3,-1
 750 875 l 1,4,-1
 750 750 l 1,5,-1
 875 750 l 1,6,-1
 875 375 l 1,7,-1
 750 375 l 1,8,-1
 750 250 l 1,9,-1
 625 250 l 1,10,-1
 625 125 l 1,11,-1
 0 125 l 1,0,-1
250 250 m 1,12,-1
 500 250 l 1,13,-1
 500 375 l 1,14,-1
 625 375 l 1,15,-1
 625 750 l 1,16,-1
 500 750 l 1,17,-1
 500 875 l 1,18,-1
 250 875 l 1,19,-1
 250 250 l 1,12,-1
EndSplineSet
Validated: 1
EndChar

StartChar: Eth
Encoding: 208 208 23
Width: 1000
Flags: W
LayerCount: 2
Fore
SplineSet
125 125 m 1,0,-1
 125 500 l 1,1,-1
 0 500 l 1,2,-1
 0 625 l 1,3,-1
 125 625 l 1,4,-1
 125 1000 l 1,5,-1
 625 1000 l 1,6,-1
 625 875 l 1,7,-1
 750 875 l 1,8,-1
 750 750 l 1,9,-1
 875 750 l 1,10,-1
 875 375 l 1,11,-1
 750 375 l 1,12,-1
 750 250 l 1,13,-1
 625 250 l 1,14,-1
 625 125 l 1,15,-1
 125 125 l 1,0,-1
375 250 m 1,16,-1
 500 250 l 1,17,-1
 500 375 l 1,18,-1
 625 375 l 1,19,-1
 625 750 l 1,20,-1
 500 750 l 1,21,-1
 500 875 l 1,22,-1
 375 875 l 1,23,-1
 375 625 l 1,24,-1
 500 625 l 1,25,-1
 500 500 l 1,26,-1
 375 500 l 1,27,-1
 375 250 l 1,16,-1
EndSplineSet
Validated: 1
EndChar

StartChar: Dcaron
Encoding: 270 270 24
Width: 1000
Flags: W
LayerCount: 2
Fore
SplineSet
0 125 m 1,0,-1
 0 750 l 1,1,-1
 250 750 l 1,2,-1
 250 875 l 1,3,-1
 125 875 l 1,4,-1
 125 1000 l 1,5,-1
 375 1000 l 1,6,-1
 375 875 l 1,7,-1
 500 875 l 1,8,-1
 500 1000 l 1,9,-1
 750 1000 l 1,10,-1
 750 875 l 1,11,-1
 625 875 l 1,12,-1
 625 625 l 1,13,-1
 750 625 l 1,14,-1
 750 500 l 1,15,-1
 875 500 l 1,16,-1
 875 375 l 1,17,-1
 750 375 l 1,18,-1
 750 250 l 1,19,-1
 625 250 l 1,20,-1
 625 125 l 1,21,-1
 0 125 l 1,0,-1
250 250 m 1,22,-1
 500 250 l 1,23,-1
 500 375 l 1,24,-1
 625 375 l 1,25,-1
 625 500 l 1,26,-1
 500 500 l 1,27,-1
 500 625 l 1,28,-1
 250 625 l 1,29,-1
 250 250 l 1,22,-1
EndSplineSet
Validated: 1
EndChar

StartChar: Dcroat
Encoding: 272 272 25
Width: 1000
Flags: W
LayerCount: 2
Fore
SplineSet
125 125 m 1,0,-1
 125 500 l 1,1,-1
 0 500 l 1,2,-1
 0 625 l 1,3,-1
 125 625 l 1,4,-1
 125 1000 l 1,5,-1
 625 1000 l 1,6,-1
 625 875 l 1,7,-1
 750 875 l 1,8,-1
 750 750 l 1,9,-1
 875 750 l 1,10,-1
 875 375 l 1,11,-1
 750 375 l 1,12,-1
 750 250 l 1,13,-1
 625 250 l 1,14,-1
 625 125 l 1,15,-1
 125 125 l 1,0,-1
375 250 m 1,16,-1
 500 250 l 1,17,-1
 500 375 l 1,18,-1
 625 375 l 1,19,-1
 625 750 l 1,20,-1
 500 750 l 1,21,-1
 500 875 l 1,22,-1
 375 875 l 1,23,-1
 375 625 l 1,24,-1
 500 625 l 1,25,-1
 500 500 l 1,26,-1
 375 500 l 1,27,-1
 375 250 l 1,16,-1
EndSplineSet
Validated: 1
EndChar

StartChar: E
Encoding: 69 69 26
Width: 1000
Flags: W
LayerCount: 2
Fore
SplineSet
0 125 m 1,0,-1
 0 1000 l 1,1,-1
 875 1000 l 1,2,-1
 875 875 l 1,3,-1
 250 875 l 1,4,-1
 250 625 l 1,5,-1
 750 625 l 1,6,-1
 750 500 l 1,7,-1
 250 500 l 1,8,-1
 250 250 l 1,9,-1
 875 250 l 1,10,-1
 875 125 l 1,11,-1
 0 125 l 1,0,-1
EndSplineSet
Validated: 1
EndChar

StartChar: Eacute
Encoding: 201 201 27
Width: 1000
Flags: W
LayerCount: 2
Fore
SplineSet
625 875 m 1,0,-1
 500 875 l 1,1,-1
 500 1000 l 1,2,-1
 625 1000 l 1,3,-1
 625 875 l 1,0,-1
875 750 m 1,4,-1
 875 625 l 1,5,-1
 250 625 l 1,6,-1
 250 500 l 1,7,-1
 750 500 l 1,8,-1
 750 375 l 1,9,-1
 250 375 l 1,10,-1
 250 250 l 1,11,-1
 875 250 l 1,12,-1
 875 125 l 1,13,-1
 0 125 l 1,14,-1
 0 750 l 1,15,-1
 375 750 l 1,16,-1
 375 875 l 1,17,-1
 500 875 l 1,18,-1
 500 750 l 1,19,-1
 875 750 l 1,4,-1
EndSplineSet
Validated: 5
EndChar

StartChar: Ebreve
Encoding: 276 276 28
Width: 1000
Flags: W
LayerCount: 2
Fore
SplineSet
250 1000 m 1,0,-1
 250 875 l 1,1,-1
 125 875 l 1,2,-1
 125 1000 l 1,3,-1
 250 1000 l 1,0,-1
750 875 m 1,4,-1
 625 875 l 1,5,-1
 625 1000 l 1,6,-1
 750 1000 l 1,7,-1
 750 875 l 1,4,-1
875 750 m 1,8,-1
 875 625 l 1,9,-1
 250 625 l 1,10,-1
 250 500 l 1,11,-1
 750 500 l 1,12,-1
 750 375 l 1,13,-1
 250 375 l 1,14,-1
 250 250 l 1,15,-1
 875 250 l 1,16,-1
 875 125 l 1,17,-1
 0 125 l 1,18,-1
 0 750 l 1,19,-1
 250 750 l 1,20,-1
 250 875 l 1,21,-1
 625 875 l 1,22,-1
 625 750 l 1,23,-1
 875 750 l 1,8,-1
EndSplineSet
Validated: 5
EndChar

StartChar: Ecaron
Encoding: 282 282 29
Width: 1000
Flags: W
LayerCount: 2
Fore
SplineSet
0 125 m 1,0,-1
 0 750 l 1,1,-1
 250 750 l 1,2,-1
 250 875 l 1,3,-1
 125 875 l 1,4,-1
 125 1000 l 1,5,-1
 375 1000 l 1,6,-1
 375 875 l 1,7,-1
 500 875 l 1,8,-1
 500 1000 l 1,9,-1
 750 1000 l 1,10,-1
 750 875 l 1,11,-1
 625 875 l 1,12,-1
 625 750 l 1,13,-1
 875 750 l 1,14,-1
 875 625 l 1,15,-1
 250 625 l 1,16,-1
 250 500 l 1,17,-1
 750 500 l 1,18,-1
 750 375 l 1,19,-1
 250 375 l 1,20,-1
 250 250 l 1,21,-1
 875 250 l 1,22,-1
 875 125 l 1,23,-1
 0 125 l 1,0,-1
EndSplineSet
Validated: 1
EndChar

StartChar: Ecircumflex
Encoding: 202 202 30
Width: 1000
Flags: W
LayerCount: 2
Fore
SplineSet
0 125 m 1,0,-1
 0 750 l 1,1,-1
 125 750 l 1,2,-1
 125 875 l 1,3,-1
 250 875 l 1,4,-1
 250 1000 l 1,5,-1
 625 1000 l 1,6,-1
 625 875 l 1,7,-1
 750 875 l 1,8,-1
 750 750 l 1,9,-1
 875 750 l 1,10,-1
 875 625 l 1,11,-1
 250 625 l 1,12,-1
 250 500 l 1,13,-1
 750 500 l 1,14,-1
 750 375 l 1,15,-1
 250 375 l 1,16,-1
 250 250 l 1,17,-1
 875 250 l 1,18,-1
 875 125 l 1,19,-1
 0 125 l 1,0,-1
375 750 m 1,20,-1
 500 750 l 1,21,-1
 500 875 l 1,22,-1
 375 875 l 1,23,-1
 375 750 l 1,20,-1
EndSplineSet
Validated: 1
EndChar

StartChar: Edieresis
Encoding: 203 203 31
Width: 1000
Flags: W
LayerCount: 2
Fore
SplineSet
125 875 m 1,0,-1
 125 1000 l 1,1,-1
 375 1000 l 1,2,-1
 375 875 l 1,3,-1
 125 875 l 1,0,-1
500 875 m 1,4,-1
 500 1000 l 1,5,-1
 750 1000 l 1,6,-1
 750 875 l 1,7,-1
 500 875 l 1,4,-1
0 125 m 1,8,-1
 0 750 l 1,9,-1
 875 750 l 1,10,-1
 875 625 l 1,11,-1
 250 625 l 1,12,-1
 250 500 l 1,13,-1
 750 500 l 1,14,-1
 750 375 l 1,15,-1
 250 375 l 1,16,-1
 250 250 l 1,17,-1
 875 250 l 1,18,-1
 875 125 l 1,19,-1
 0 125 l 1,8,-1
EndSplineSet
Validated: 1
EndChar

StartChar: Edotaccent
Encoding: 278 278 32
Width: 1000
Flags: W
LayerCount: 2
Fore
SplineSet
375 875 m 1,0,-1
 375 1000 l 1,1,-1
 625 1000 l 1,2,-1
 625 875 l 1,3,-1
 375 875 l 1,0,-1
0 125 m 1,4,-1
 0 750 l 1,5,-1
 875 750 l 1,6,-1
 875 625 l 1,7,-1
 250 625 l 1,8,-1
 250 500 l 1,9,-1
 750 500 l 1,10,-1
 750 375 l 1,11,-1
 250 375 l 1,12,-1
 250 250 l 1,13,-1
 875 250 l 1,14,-1
 875 125 l 1,15,-1
 0 125 l 1,4,-1
EndSplineSet
Validated: 1
EndChar

StartChar: Egrave
Encoding: 200 200 33
Width: 1000
Flags: W
LayerCount: 2
Fore
SplineSet
375 1000 m 1,0,-1
 375 875 l 1,1,-1
 250 875 l 1,2,-1
 250 1000 l 1,3,-1
 375 1000 l 1,0,-1
875 750 m 1,4,-1
 875 625 l 1,5,-1
 250 625 l 1,6,-1
 250 500 l 1,7,-1
 750 500 l 1,8,-1
 750 375 l 1,9,-1
 250 375 l 1,10,-1
 250 250 l 1,11,-1
 875 250 l 1,12,-1
 875 125 l 1,13,-1
 0 125 l 1,14,-1
 0 750 l 1,15,-1
 375 750 l 1,16,-1
 375 875 l 1,17,-1
 500 875 l 1,18,-1
 500 750 l 1,19,-1
 875 750 l 1,4,-1
EndSplineSet
Validated: 5
EndChar

StartChar: Emacron
Encoding: 274 274 34
Width: 1000
Flags: W
LayerCount: 2
Fore
SplineSet
125 875 m 1,0,-1
 125 1000 l 1,1,-1
 750 1000 l 1,2,-1
 750 875 l 1,3,-1
 125 875 l 1,0,-1
0 125 m 1,4,-1
 0 750 l 1,5,-1
 875 750 l 1,6,-1
 875 625 l 1,7,-1
 250 625 l 1,8,-1
 250 500 l 1,9,-1
 750 500 l 1,10,-1
 750 375 l 1,11,-1
 250 375 l 1,12,-1
 250 250 l 1,13,-1
 875 250 l 1,14,-1
 875 125 l 1,15,-1
 0 125 l 1,4,-1
EndSplineSet
Validated: 1
EndChar

StartChar: Eogonek
Encoding: 280 280 35
Width: 1000
Flags: W
LayerCount: 2
Fore
SplineSet
875 1000 m 1,0,-1
 875 875 l 1,1,-1
 250 875 l 1,2,-1
 250 750 l 1,3,-1
 750 750 l 1,4,-1
 750 625 l 1,5,-1
 250 625 l 1,6,-1
 250 500 l 1,7,-1
 875 500 l 1,8,-1
 875 375 l 1,9,-1
 500 375 l 1,10,-1
 500 250 l 1,11,-1
 375 250 l 1,12,-1
 375 375 l 1,13,-1
 0 375 l 1,14,-1
 0 1000 l 1,15,-1
 875 1000 l 1,0,-1
250 250 m 1,16,-1
 375 250 l 1,17,-1
 375 125 l 1,18,-1
 250 125 l 1,19,-1
 250 250 l 1,16,-1
375 0 m 1,20,-1
 375 125 l 1,21,-1
 625 125 l 1,22,-1
 625 0 l 1,23,-1
 375 0 l 1,20,-1
EndSplineSet
Validated: 5
EndChar

StartChar: F
Encoding: 70 70 36
Width: 1000
Flags: W
LayerCount: 2
Fore
SplineSet
0 125 m 1,0,-1
 0 1000 l 1,1,-1
 875 1000 l 1,2,-1
 875 875 l 1,3,-1
 250 875 l 1,4,-1
 250 625 l 1,5,-1
 750 625 l 1,6,-1
 750 500 l 1,7,-1
 250 500 l 1,8,-1
 250 125 l 1,9,-1
 0 125 l 1,0,-1
EndSplineSet
Validated: 1
EndChar

StartChar: G
Encoding: 71 71 37
Width: 1000
Flags: W
LayerCount: 2
Fore
SplineSet
250 125 m 1,0,-1
 250 250 l 1,1,-1
 125 250 l 1,2,-1
 125 375 l 1,3,-1
 0 375 l 1,4,-1
 0 750 l 1,5,-1
 125 750 l 1,6,-1
 125 875 l 1,7,-1
 250 875 l 1,8,-1
 250 1000 l 1,9,-1
 875 1000 l 1,10,-1
 875 875 l 1,11,-1
 375 875 l 1,12,-1
 375 750 l 1,13,-1
 250 750 l 1,14,-1
 250 375 l 1,15,-1
 375 375 l 1,16,-1
 375 250 l 1,17,-1
 625 250 l 1,18,-1
 625 500 l 1,19,-1
 500 500 l 1,20,-1
 500 625 l 1,21,-1
 875 625 l 1,22,-1
 875 125 l 1,23,-1
 250 125 l 1,0,-1
EndSplineSet
Validated: 1
EndChar

StartChar: Gbreve
Encoding: 286 286 38
Width: 1000
Flags: W
LayerCount: 2
Fore
SplineSet
250 1000 m 1,0,-1
 250 875 l 1,1,-1
 125 875 l 1,2,-1
 125 1000 l 1,3,-1
 250 1000 l 1,0,-1
750 875 m 1,4,-1
 625 875 l 1,5,-1
 625 1000 l 1,6,-1
 750 1000 l 1,7,-1
 750 875 l 1,4,-1
875 750 m 1,8,-1
 875 625 l 1,9,-1
 250 625 l 1,10,-1
 250 250 l 1,11,-1
 625 250 l 1,12,-1
 625 375 l 1,13,-1
 500 375 l 1,14,-1
 500 500 l 1,15,-1
 875 500 l 1,16,-1
 875 125 l 1,17,-1
 125 125 l 1,18,-1
 125 250 l 1,19,-1
 0 250 l 1,20,-1
 0 625 l 1,21,-1
 125 625 l 1,22,-1
 125 750 l 1,23,-1
 250 750 l 1,24,-1
 250 875 l 1,25,-1
 625 875 l 1,26,-1
 625 750 l 1,27,-1
 875 750 l 1,8,-1
EndSplineSet
Validated: 5
EndChar

StartChar: Gcircumflex
Encoding: 284 284 39
Width: 1000
Flags: W
LayerCount: 2
Fore
SplineSet
125 125 m 1,0,-1
 125 250 l 1,1,-1
 0 250 l 1,2,-1
 0 625 l 1,3,-1
 125 625 l 1,4,-1
 125 875 l 1,5,-1
 250 875 l 1,6,-1
 250 1000 l 1,7,-1
 625 1000 l 1,8,-1
 625 875 l 1,9,-1
 750 875 l 1,10,-1
 750 750 l 1,11,-1
 875 750 l 1,12,-1
 875 625 l 1,13,-1
 250 625 l 1,14,-1
 250 250 l 1,15,-1
 625 250 l 1,16,-1
 625 375 l 1,17,-1
 500 375 l 1,18,-1
 500 500 l 1,19,-1
 875 500 l 1,20,-1
 875 125 l 1,21,-1
 125 125 l 1,0,-1
375 750 m 1,22,-1
 500 750 l 1,23,-1
 500 875 l 1,24,-1
 375 875 l 1,25,-1
 375 750 l 1,22,-1
EndSplineSet
Validated: 1
EndChar

StartChar: Gcommaaccent
Encoding: 290 290 40
Width: 1000
Flags: W
LayerCount: 2
Fore
SplineSet
250 0 m 1,0,-1
 250 125 l 1,1,-1
 375 125 l 1,2,-1
 375 250 l 1,3,-1
 250 250 l 1,4,-1
 250 375 l 1,5,-1
 125 375 l 1,6,-1
 125 500 l 1,7,-1
 0 500 l 1,8,-1
 0 750 l 1,9,-1
 125 750 l 1,10,-1
 125 875 l 1,11,-1
 250 875 l 1,12,-1
 250 1000 l 1,13,-1
 875 1000 l 1,14,-1
 875 875 l 1,15,-1
 375 875 l 1,16,-1
 375 750 l 1,17,-1
 250 750 l 1,18,-1
 250 500 l 1,19,-1
 375 500 l 1,20,-1
 375 375 l 1,21,-1
 625 375 l 1,22,-1
 625 500 l 1,23,-1
 500 500 l 1,24,-1
 500 625 l 1,25,-1
 875 625 l 1,26,-1
 875 250 l 1,27,-1
 625 250 l 1,28,-1
 625 125 l 1,29,-1
 500 125 l 1,30,-1
 500 0 l 1,31,-1
 250 0 l 1,0,-1
EndSplineSet
Validated: 1
EndChar

StartChar: Gdotaccent
Encoding: 288 288 41
Width: 1000
Flags: W
LayerCount: 2
Fore
SplineSet
375 875 m 1,0,-1
 375 1000 l 1,1,-1
 625 1000 l 1,2,-1
 625 875 l 1,3,-1
 375 875 l 1,0,-1
125 125 m 1,4,-1
 125 250 l 1,5,-1
 0 250 l 1,6,-1
 0 625 l 1,7,-1
 125 625 l 1,8,-1
 125 750 l 1,9,-1
 875 750 l 1,10,-1
 875 625 l 1,11,-1
 250 625 l 1,12,-1
 250 250 l 1,13,-1
 625 250 l 1,14,-1
 625 375 l 1,15,-1
 500 375 l 1,16,-1
 500 500 l 1,17,-1
 875 500 l 1,18,-1
 875 125 l 1,19,-1
 125 125 l 1,4,-1
EndSplineSet
Validated: 1
EndChar

StartChar: H
Encoding: 72 72 42
Width: 1000
Flags: W
LayerCount: 2
Fore
SplineSet
0 125 m 1,0,-1
 0 1000 l 1,1,-1
 250 1000 l 1,2,-1
 250 625 l 1,3,-1
 625 625 l 1,4,-1
 625 1000 l 1,5,-1
 875 1000 l 1,6,-1
 875 125 l 1,7,-1
 625 125 l 1,8,-1
 625 500 l 1,9,-1
 250 500 l 1,10,-1
 250 125 l 1,11,-1
 0 125 l 1,0,-1
EndSplineSet
Validated: 1
EndChar

StartChar: Hbar
Encoding: 294 294 43
Width: 1000
Flags: W
LayerCount: 2
Fore
SplineSet
0 125 m 1,0,-1
 0 1000 l 1,1,-1
 250 1000 l 1,2,-1
 250 875 l 1,3,-1
 625 875 l 1,4,-1
 625 1000 l 1,5,-1
 875 1000 l 1,6,-1
 875 125 l 1,7,-1
 625 125 l 1,8,-1
 625 500 l 1,9,-1
 250 500 l 1,10,-1
 250 125 l 1,11,-1
 0 125 l 1,0,-1
250 625 m 1,12,-1
 625 625 l 1,13,-1
 625 750 l 1,14,-1
 250 750 l 1,15,-1
 250 625 l 1,12,-1
EndSplineSet
Validated: 1
EndChar

StartChar: Hcircumflex
Encoding: 292 292 44
Width: 1000
Flags: W
LayerCount: 2
Fore
SplineSet
0 125 m 1,0,-1
 0 875 l 1,1,-1
 250 875 l 1,2,-1
 250 1000 l 1,3,-1
 625 1000 l 1,4,-1
 625 875 l 1,5,-1
 875 875 l 1,6,-1
 875 125 l 1,7,-1
 625 125 l 1,8,-1
 625 375 l 1,9,-1
 250 375 l 1,10,-1
 250 125 l 1,11,-1
 0 125 l 1,0,-1
250 500 m 1,12,-1
 625 500 l 1,13,-1
 625 750 l 1,14,-1
 500 750 l 1,15,-1
 500 875 l 1,16,-1
 375 875 l 1,17,-1
 375 750 l 1,18,-1
 250 750 l 1,19,-1
 250 500 l 1,12,-1
EndSplineSet
Validated: 1
EndChar

StartChar: I
Encoding: 73 73 45
Width: 1000
Flags: W
LayerCount: 2
Fore
SplineSet
125 125 m 1,0,-1
 125 250 l 1,1,-1
 375 250 l 1,2,-1
 375 875 l 1,3,-1
 125 875 l 1,4,-1
 125 1000 l 1,5,-1
 875 1000 l 1,6,-1
 875 875 l 1,7,-1
 625 875 l 1,8,-1
 625 250 l 1,9,-1
 875 250 l 1,10,-1
 875 125 l 1,11,-1
 125 125 l 1,0,-1
EndSplineSet
Validated: 1
EndChar

StartChar: IJ
Encoding: 306 306 46
Width: 1000
Flags: W
LayerCount: 2
Fore
SplineSet
0 375 m 1,0,-1
 0 500 l 1,1,-1
 125 500 l 1,2,-1
 125 875 l 1,3,-1
 0 875 l 1,4,-1
 0 1000 l 1,5,-1
 500 1000 l 1,6,-1
 500 875 l 1,7,-1
 375 875 l 1,8,-1
 375 500 l 1,9,-1
 500 500 l 1,10,-1
 500 375 l 1,11,-1
 0 375 l 1,0,-1
125 125 m 1,12,-1
 125 250 l 1,13,-1
 625 250 l 1,14,-1
 625 1000 l 1,15,-1
 875 1000 l 1,16,-1
 875 250 l 1,17,-1
 750 250 l 1,18,-1
 750 125 l 1,19,-1
 125 125 l 1,12,-1
EndSplineSet
Validated: 1
EndChar

StartChar: Iacute
Encoding: 205 205 47
Width: 1000
Flags: W
LayerCount: 2
Fore
SplineSet
625 875 m 1,0,-1
 500 875 l 1,1,-1
 500 1000 l 1,2,-1
 625 1000 l 1,3,-1
 625 875 l 1,0,-1
875 750 m 1,4,-1
 875 625 l 1,5,-1
 625 625 l 1,6,-1
 625 250 l 1,7,-1
 875 250 l 1,8,-1
 875 125 l 1,9,-1
 125 125 l 1,10,-1
 125 250 l 1,11,-1
 375 250 l 1,12,-1
 375 625 l 1,13,-1
 125 625 l 1,14,-1
 125 750 l 1,15,-1
 375 750 l 1,16,-1
 375 875 l 1,17,-1
 500 875 l 1,18,-1
 500 750 l 1,19,-1
 875 750 l 1,4,-1
EndSplineSet
Validated: 5
EndChar

StartChar: Ibreve
Encoding: 300 300 48
Width: 1000
Flags: W
LayerCount: 2
Fore
SplineSet
375 1000 m 1,0,-1
 375 875 l 1,1,-1
 250 875 l 1,2,-1
 250 1000 l 1,3,-1
 375 1000 l 1,0,-1
750 875 m 1,4,-1
 625 875 l 1,5,-1
 625 1000 l 1,6,-1
 750 1000 l 1,7,-1
 750 875 l 1,4,-1
875 750 m 1,8,-1
 875 625 l 1,9,-1
 625 625 l 1,10,-1
 625 250 l 1,11,-1
 875 250 l 1,12,-1
 875 125 l 1,13,-1
 125 125 l 1,14,-1
 125 250 l 1,15,-1
 375 250 l 1,16,-1
 375 625 l 1,17,-1
 125 625 l 1,18,-1
 125 750 l 1,19,-1
 375 750 l 1,20,-1
 375 875 l 1,21,-1
 625 875 l 1,22,-1
 625 750 l 1,23,-1
 875 750 l 1,8,-1
EndSplineSet
Validated: 5
EndChar

StartChar: Icircumflex
Encoding: 206 206 49
Width: 1000
Flags: W
LayerCount: 2
Fore
SplineSet
125 125 m 1,0,-1
 125 250 l 1,1,-1
 375 250 l 1,2,-1
 375 625 l 1,3,-1
 125 625 l 1,4,-1
 125 750 l 1,5,-1
 250 750 l 1,6,-1
 250 875 l 1,7,-1
 375 875 l 1,8,-1
 375 1000 l 1,9,-1
 625 1000 l 1,10,-1
 625 875 l 1,11,-1
 750 875 l 1,12,-1
 750 750 l 1,13,-1
 875 750 l 1,14,-1
 875 625 l 1,15,-1
 625 625 l 1,16,-1
 625 250 l 1,17,-1
 875 250 l 1,18,-1
 875 125 l 1,19,-1
 125 125 l 1,0,-1
EndSplineSet
Validated: 1
EndChar

StartChar: Idieresis
Encoding: 207 207 50
Width: 1000
Flags: W
LayerCount: 2
Fore
SplineSet
125 875 m 1,0,-1
 125 1000 l 1,1,-1
 375 1000 l 1,2,-1
 375 875 l 1,3,-1
 125 875 l 1,0,-1
625 875 m 1,4,-1
 625 1000 l 1,5,-1
 875 1000 l 1,6,-1
 875 875 l 1,7,-1
 625 875 l 1,4,-1
125 125 m 1,8,-1
 125 250 l 1,9,-1
 375 250 l 1,10,-1
 375 625 l 1,11,-1
 125 625 l 1,12,-1
 125 750 l 1,13,-1
 875 750 l 1,14,-1
 875 625 l 1,15,-1
 625 625 l 1,16,-1
 625 250 l 1,17,-1
 875 250 l 1,18,-1
 875 125 l 1,19,-1
 125 125 l 1,8,-1
EndSplineSet
Validated: 1
EndChar

StartChar: Idotaccent
Encoding: 304 304 51
Width: 1000
Flags: W
LayerCount: 2
Fore
SplineSet
375 875 m 1,0,-1
 375 1000 l 1,1,-1
 625 1000 l 1,2,-1
 625 875 l 1,3,-1
 375 875 l 1,0,-1
125 125 m 1,4,-1
 125 250 l 1,5,-1
 375 250 l 1,6,-1
 375 625 l 1,7,-1
 125 625 l 1,8,-1
 125 750 l 1,9,-1
 875 750 l 1,10,-1
 875 625 l 1,11,-1
 625 625 l 1,12,-1
 625 250 l 1,13,-1
 875 250 l 1,14,-1
 875 125 l 1,15,-1
 125 125 l 1,4,-1
EndSplineSet
Validated: 1
EndChar

StartChar: Igrave
Encoding: 204 204 52
Width: 1000
Flags: W
LayerCount: 2
Fore
SplineSet
500 1000 m 1,0,-1
 500 875 l 1,1,-1
 375 875 l 1,2,-1
 375 1000 l 1,3,-1
 500 1000 l 1,0,-1
875 750 m 1,4,-1
 875 625 l 1,5,-1
 625 625 l 1,6,-1
 625 250 l 1,7,-1
 875 250 l 1,8,-1
 875 125 l 1,9,-1
 125 125 l 1,10,-1
 125 250 l 1,11,-1
 375 250 l 1,12,-1
 375 625 l 1,13,-1
 125 625 l 1,14,-1
 125 750 l 1,15,-1
 500 750 l 1,16,-1
 500 875 l 1,17,-1
 625 875 l 1,18,-1
 625 750 l 1,19,-1
 875 750 l 1,4,-1
EndSplineSet
Validated: 5
EndChar

StartChar: Imacron
Encoding: 298 298 53
Width: 1000
Flags: W
LayerCount: 2
Fore
SplineSet
125 875 m 1,0,-1
 125 1000 l 1,1,-1
 875 1000 l 1,2,-1
 875 875 l 1,3,-1
 125 875 l 1,0,-1
125 125 m 1,4,-1
 125 250 l 1,5,-1
 375 250 l 1,6,-1
 375 625 l 1,7,-1
 125 625 l 1,8,-1
 125 750 l 1,9,-1
 875 750 l 1,10,-1
 875 625 l 1,11,-1
 625 625 l 1,12,-1
 625 250 l 1,13,-1
 875 250 l 1,14,-1
 875 125 l 1,15,-1
 125 125 l 1,4,-1
EndSplineSet
Validated: 1
EndChar

StartChar: Iogonek
Encoding: 302 302 54
Width: 1000
Flags: W
LayerCount: 2
Fore
SplineSet
875 1000 m 1,0,-1
 875 875 l 1,1,-1
 625 875 l 1,2,-1
 625 500 l 1,3,-1
 875 500 l 1,4,-1
 875 375 l 1,5,-1
 500 375 l 1,6,-1
 500 250 l 1,7,-1
 375 250 l 1,8,-1
 375 375 l 1,9,-1
 125 375 l 1,10,-1
 125 500 l 1,11,-1
 375 500 l 1,12,-1
 375 875 l 1,13,-1
 125 875 l 1,14,-1
 125 1000 l 1,15,-1
 875 1000 l 1,0,-1
250 250 m 1,16,-1
 375 250 l 1,17,-1
 375 125 l 1,18,-1
 250 125 l 1,19,-1
 250 250 l 1,16,-1
375 0 m 1,20,-1
 375 125 l 1,21,-1
 625 125 l 1,22,-1
 625 0 l 1,23,-1
 375 0 l 1,20,-1
EndSplineSet
Validated: 5
EndChar

StartChar: Itilde
Encoding: 296 296 55
Width: 1000
Flags: W
LayerCount: 2
Fore
SplineSet
500 875 m 1,0,-1
 250 875 l 1,1,-1
 250 1000 l 1,2,-1
 500 1000 l 1,3,-1
 500 875 l 1,0,-1
875 1000 m 1,4,-1
 875 875 l 1,5,-1
 750 875 l 1,6,-1
 750 1000 l 1,7,-1
 875 1000 l 1,4,-1
500 875 m 1,8,-1
 750 875 l 1,9,-1
 750 750 l 1,10,-1
 875 750 l 1,11,-1
 875 625 l 1,12,-1
 625 625 l 1,13,-1
 625 250 l 1,14,-1
 875 250 l 1,15,-1
 875 125 l 1,16,-1
 125 125 l 1,17,-1
 125 250 l 1,18,-1
 375 250 l 1,19,-1
 375 625 l 1,20,-1
 125 625 l 1,21,-1
 125 875 l 1,22,-1
 250 875 l 1,23,-1
 250 750 l 1,24,-1
 500 750 l 1,25,-1
 500 875 l 1,8,-1
EndSplineSet
Validated: 5
EndChar

StartChar: J
Encoding: 74 74 56
Width: 1000
Flags: W
LayerCount: 2
Fore
SplineSet
125 125 m 1,0,-1
 125 250 l 1,1,-1
 0 250 l 1,2,-1
 0 375 l 1,3,-1
 250 375 l 1,4,-1
 250 250 l 1,5,-1
 625 250 l 1,6,-1
 625 1000 l 1,7,-1
 875 1000 l 1,8,-1
 875 250 l 1,9,-1
 750 250 l 1,10,-1
 750 125 l 1,11,-1
 125 125 l 1,0,-1
EndSplineSet
Validated: 1
EndChar

StartChar: Jcircumflex
Encoding: 308 308 57
Width: 1000
Flags: W
LayerCount: 2
Fore
SplineSet
125 125 m 1,0,-1
 125 250 l 1,1,-1
 0 250 l 1,2,-1
 0 375 l 1,3,-1
 250 375 l 1,4,-1
 250 250 l 1,5,-1
 625 250 l 1,6,-1
 625 875 l 1,7,-1
 500 875 l 1,8,-1
 500 750 l 1,9,-1
 250 750 l 1,10,-1
 250 875 l 1,11,-1
 375 875 l 1,12,-1
 375 1000 l 1,13,-1
 750 1000 l 1,14,-1
 750 875 l 1,15,-1
 875 875 l 1,16,-1
 875 250 l 1,17,-1
 750 250 l 1,18,-1
 750 125 l 1,19,-1
 125 125 l 1,0,-1
EndSplineSet
Validated: 1
EndChar

StartChar: K
Encoding: 75 75 58
Width: 1000
Flags: W
LayerCount: 2
Fore
SplineSet
0 125 m 1,0,-1
 0 1000 l 1,1,-1
 250 1000 l 1,2,-1
 250 625 l 1,3,-1
 375 625 l 1,4,-1
 375 750 l 1,5,-1
 500 750 l 1,6,-1
 500 875 l 1,7,-1
 625 875 l 1,8,-1
 625 1000 l 1,9,-1
 875 1000 l 1,10,-1
 875 875 l 1,11,-1
 750 875 l 1,12,-1
 750 750 l 1,13,-1
 625 750 l 1,14,-1
 625 625 l 1,15,-1
 500 625 l 1,16,-1
 500 500 l 1,17,-1
 625 500 l 1,18,-1
 625 375 l 1,19,-1
 750 375 l 1,20,-1
 750 250 l 1,21,-1
 875 250 l 1,22,-1
 875 125 l 1,23,-1
 500 125 l 1,24,-1
 500 250 l 1,25,-1
 375 250 l 1,26,-1
 375 375 l 1,27,-1
 250 375 l 1,28,-1
 250 125 l 1,29,-1
 0 125 l 1,0,-1
EndSplineSet
Validated: 1
EndChar

StartChar: Kcommaaccent
Encoding: 310 310 59
Width: 1000
Flags: W
LayerCount: 2
Fore
SplineSet
125 0 m 1,0,-1
 125 125 l 1,1,-1
 250 125 l 1,2,-1
 250 250 l 1,3,-1
 0 250 l 1,4,-1
 0 1000 l 1,5,-1
 250 1000 l 1,6,-1
 250 750 l 1,7,-1
 375 750 l 1,8,-1
 375 875 l 1,9,-1
 500 875 l 1,10,-1
 500 1000 l 1,11,-1
 750 1000 l 1,12,-1
 750 875 l 1,13,-1
 625 875 l 1,14,-1
 625 750 l 1,15,-1
 500 750 l 1,16,-1
 500 625 l 1,17,-1
 625 625 l 1,18,-1
 625 500 l 1,19,-1
 750 500 l 1,20,-1
 750 375 l 1,21,-1
 875 375 l 1,22,-1
 875 250 l 1,23,-1
 500 250 l 1,24,-1
 500 125 l 1,25,-1
 375 125 l 1,26,-1
 375 0 l 1,27,-1
 125 0 l 1,0,-1
250 250 m 1,28,-1
 500 250 l 1,29,-1
 500 375 l 1,30,-1
 375 375 l 1,31,-1
 375 500 l 1,32,-1
 250 500 l 1,33,-1
 250 250 l 1,28,-1
EndSplineSet
Validated: 5
EndChar

StartChar: L
Encoding: 76 76 60
Width: 1000
Flags: W
LayerCount: 2
Fore
SplineSet
125 125 m 1,0,-1
 125 1000 l 1,1,-1
 375 1000 l 1,2,-1
 375 250 l 1,3,-1
 875 250 l 1,4,-1
 875 125 l 1,5,-1
 125 125 l 1,0,-1
EndSplineSet
Validated: 1
EndChar

StartChar: Lacute
Encoding: 313 313 61
Width: 1000
Flags: W
LayerCount: 2
Fore
SplineSet
625 875 m 1,0,-1
 500 875 l 1,1,-1
 500 1000 l 1,2,-1
 625 1000 l 1,3,-1
 625 875 l 1,0,-1
875 250 m 1,4,-1
 875 125 l 1,5,-1
 125 125 l 1,6,-1
 125 875 l 1,7,-1
 500 875 l 1,8,-1
 500 750 l 1,9,-1
 375 750 l 1,10,-1
 375 250 l 1,11,-1
 875 250 l 1,4,-1
EndSplineSet
Validated: 5
EndChar

StartChar: Lcaron
Encoding: 317 317 62
Width: 1000
Flags: W
LayerCount: 2
Fore
SplineSet
125 125 m 1,0,-1
 125 1000 l 1,1,-1
 375 1000 l 1,2,-1
 375 250 l 1,3,-1
 875 250 l 1,4,-1
 875 125 l 1,5,-1
 125 125 l 1,0,-1
625 625 m 1,6,-1
 625 1000 l 1,7,-1
 875 1000 l 1,8,-1
 875 750 l 1,9,-1
 750 750 l 1,10,-1
 750 625 l 1,11,-1
 625 625 l 1,6,-1
EndSplineSet
Validated: 1
EndChar

StartChar: Lcommaaccent
Encoding: 315 315 63
Width: 1000
Flags: W
LayerCount: 2
Fore
SplineSet
250 0 m 1,0,-1
 250 125 l 1,1,-1
 375 125 l 1,2,-1
 375 250 l 1,3,-1
 125 250 l 1,4,-1
 125 1000 l 1,5,-1
 375 1000 l 1,6,-1
 375 375 l 1,7,-1
 875 375 l 1,8,-1
 875 250 l 1,9,-1
 625 250 l 1,10,-1
 625 125 l 1,11,-1
 500 125 l 1,12,-1
 500 0 l 1,13,-1
 250 0 l 1,0,-1
EndSplineSet
Validated: 1
EndChar

StartChar: Ldot
Encoding: 319 319 64
Width: 1000
Flags: W
LayerCount: 2
Fore
SplineSet
125 125 m 1,0,-1
 125 1000 l 1,1,-1
 375 1000 l 1,2,-1
 375 250 l 1,3,-1
 875 250 l 1,4,-1
 875 125 l 1,5,-1
 125 125 l 1,0,-1
500 500 m 1,6,-1
 500 750 l 1,7,-1
 750 750 l 1,8,-1
 750 500 l 1,9,-1
 500 500 l 1,6,-1
EndSplineSet
Validated: 1
Ligature2: "Ligature Substitution lookup 9 subtable" L periodcentered
EndChar

StartChar: Lslash
Encoding: 321 321 65
Width: 1000
Flags: W
LayerCount: 2
Fore
SplineSet
125 125 m 1,0,-1
 125 500 l 1,1,-1
 0 500 l 1,2,-1
 0 625 l 1,3,-1
 125 625 l 1,4,-1
 125 1000 l 1,5,-1
 375 1000 l 1,6,-1
 375 750 l 1,7,-1
 500 750 l 1,8,-1
 500 625 l 1,9,-1
 375 625 l 1,10,-1
 375 250 l 1,11,-1
 875 250 l 1,12,-1
 875 125 l 1,13,-1
 125 125 l 1,0,-1
EndSplineSet
Validated: 1
EndChar

StartChar: M
Encoding: 77 77 66
Width: 1000
Flags: W
LayerCount: 2
Fore
SplineSet
0 125 m 1,0,-1
 0 1000 l 1,1,-1
 250 1000 l 1,2,-1
 250 875 l 1,3,-1
 375 875 l 1,4,-1
 375 750 l 1,5,-1
 500 750 l 1,6,-1
 500 875 l 1,7,-1
 625 875 l 1,8,-1
 625 1000 l 1,9,-1
 875 1000 l 1,10,-1
 875 125 l 1,11,-1
 625 125 l 1,12,-1
 625 625 l 1,13,-1
 500 625 l 1,14,-1
 500 375 l 1,15,-1
 375 375 l 1,16,-1
 375 625 l 1,17,-1
 250 625 l 1,18,-1
 250 125 l 1,19,-1
 0 125 l 1,0,-1
EndSplineSet
Validated: 1
EndChar

StartChar: N
Encoding: 78 78 67
Width: 1000
Flags: W
LayerCount: 2
Fore
SplineSet
0 125 m 1,0,-1
 0 1000 l 1,1,-1
 250 1000 l 1,2,-1
 250 875 l 1,3,-1
 375 875 l 1,4,-1
 375 750 l 1,5,-1
 500 750 l 1,6,-1
 500 625 l 1,7,-1
 625 625 l 1,8,-1
 625 1000 l 1,9,-1
 875 1000 l 1,10,-1
 875 125 l 1,11,-1
 625 125 l 1,12,-1
 625 375 l 1,13,-1
 500 375 l 1,14,-1
 500 500 l 1,15,-1
 375 500 l 1,16,-1
 375 625 l 1,17,-1
 250 625 l 1,18,-1
 250 125 l 1,19,-1
 0 125 l 1,0,-1
EndSplineSet
Validated: 1
EndChar

StartChar: Nacute
Encoding: 323 323 68
Width: 1000
Flags: W
LayerCount: 2
Fore
SplineSet
625 875 m 1,0,-1
 500 875 l 1,1,-1
 500 1000 l 1,2,-1
 625 1000 l 1,3,-1
 625 875 l 1,0,-1
500 750 m 1,4,-1
 375 750 l 1,5,-1
 375 875 l 1,6,-1
 500 875 l 1,7,-1
 500 750 l 1,4,-1
875 750 m 1,8,-1
 875 125 l 1,9,-1
 500 125 l 1,10,-1
 500 250 l 1,11,-1
 375 250 l 1,12,-1
 375 375 l 1,13,-1
 250 375 l 1,14,-1
 250 125 l 1,15,-1
 0 125 l 1,16,-1
 0 750 l 1,17,-1
 375 750 l 1,18,-1
 375 625 l 1,19,-1
 500 625 l 1,20,-1
 500 500 l 1,21,-1
 625 500 l 1,22,-1
 625 750 l 1,23,-1
 875 750 l 1,8,-1
EndSplineSet
Validated: 5
EndChar

StartChar: Ncaron
Encoding: 327 327 69
Width: 1000
Flags: W
LayerCount: 2
Fore
SplineSet
875 750 m 1,0,-1
 875 125 l 1,1,-1
 500 125 l 1,2,-1
 500 250 l 1,3,-1
 375 250 l 1,4,-1
 375 375 l 1,5,-1
 250 375 l 1,6,-1
 250 125 l 1,7,-1
 0 125 l 1,8,-1
 0 750 l 1,9,-1
 250 750 l 1,10,-1
 250 875 l 1,11,-1
 125 875 l 1,12,-1
 125 1000 l 1,13,-1
 375 1000 l 1,14,-1
 375 875 l 1,15,-1
 500 875 l 1,16,-1
 500 1000 l 1,17,-1
 750 1000 l 1,18,-1
 750 875 l 1,19,-1
 625 875 l 1,20,-1
 625 750 l 1,21,-1
 375 750 l 1,22,-1
 375 625 l 1,23,-1
 500 625 l 1,24,-1
 500 500 l 1,25,-1
 625 500 l 1,26,-1
 625 750 l 1,27,-1
 875 750 l 1,0,-1
EndSplineSet
Validated: 5
EndChar

StartChar: Ncommaaccent
Encoding: 325 325 70
Width: 1000
Flags: W
LayerCount: 2
Fore
SplineSet
875 1000 m 1,0,-1
 875 250 l 1,1,-1
 625 250 l 1,2,-1
 625 375 l 1,3,-1
 500 375 l 1,4,-1
 500 500 l 1,5,-1
 375 500 l 1,6,-1
 375 625 l 1,7,-1
 250 625 l 1,8,-1
 250 250 l 1,9,-1
 0 250 l 1,10,-1
 0 1000 l 1,11,-1
 375 1000 l 1,12,-1
 375 875 l 1,13,-1
 500 875 l 1,14,-1
 500 750 l 1,15,-1
 625 750 l 1,16,-1
 625 1000 l 1,17,-1
 875 1000 l 1,0,-1
375 250 m 1,18,-1
 625 250 l 1,19,-1
 625 125 l 1,20,-1
 500 125 l 1,21,-1
 500 0 l 1,22,-1
 250 0 l 1,23,-1
 250 125 l 1,24,-1
 375 125 l 1,25,-1
 375 250 l 1,18,-1
EndSplineSet
Validated: 5
EndChar

StartChar: Eng
Encoding: 330 330 71
Width: 1000
Flags: W
LayerCount: 2
Fore
SplineSet
250 0 m 1,0,-1
 250 125 l 1,1,-1
 625 125 l 1,2,-1
 625 375 l 1,3,-1
 500 375 l 1,4,-1
 500 500 l 1,5,-1
 375 500 l 1,6,-1
 375 625 l 1,7,-1
 250 625 l 1,8,-1
 250 250 l 1,9,-1
 0 250 l 1,10,-1
 0 1000 l 1,11,-1
 375 1000 l 1,12,-1
 375 875 l 1,13,-1
 500 875 l 1,14,-1
 500 750 l 1,15,-1
 625 750 l 1,16,-1
 625 1000 l 1,17,-1
 875 1000 l 1,18,-1
 875 125 l 1,19,-1
 750 125 l 1,20,-1
 750 0 l 1,21,-1
 250 0 l 1,0,-1
EndSplineSet
Validated: 1
EndChar

StartChar: Ntilde
Encoding: 209 209 72
Width: 1000
Flags: W
LayerCount: 2
Fore
SplineSet
375 875 m 1,0,-1
 250 875 l 1,1,-1
 250 1000 l 1,2,-1
 500 1000 l 1,3,-1
 500 875 l 1,4,-1
 625 875 l 1,5,-1
 625 750 l 1,6,-1
 375 750 l 1,7,-1
 375 875 l 1,0,-1
750 875 m 1,8,-1
 625 875 l 1,9,-1
 625 1000 l 1,10,-1
 750 1000 l 1,11,-1
 750 875 l 1,8,-1
875 750 m 1,12,-1
 875 125 l 1,13,-1
 500 125 l 1,14,-1
 500 250 l 1,15,-1
 375 250 l 1,16,-1
 375 375 l 1,17,-1
 250 375 l 1,18,-1
 250 125 l 1,19,-1
 0 125 l 1,20,-1
 0 750 l 1,21,-1
 125 750 l 1,22,-1
 125 875 l 1,23,-1
 250 875 l 1,24,-1
 250 750 l 1,25,-1
 375 750 l 1,26,-1
 375 625 l 1,27,-1
 500 625 l 1,28,-1
 500 500 l 1,29,-1
 625 500 l 1,30,-1
 625 750 l 1,31,-1
 875 750 l 1,12,-1
EndSplineSet
Validated: 5
EndChar

StartChar: O
Encoding: 79 79 73
Width: 1000
Flags: W
LayerCount: 2
Fore
SplineSet
125 125 m 1,0,-1
 125 250 l 1,1,-1
 0 250 l 1,2,-1
 0 875 l 1,3,-1
 125 875 l 1,4,-1
 125 1000 l 1,5,-1
 750 1000 l 1,6,-1
 750 875 l 1,7,-1
 875 875 l 1,8,-1
 875 250 l 1,9,-1
 750 250 l 1,10,-1
 750 125 l 1,11,-1
 125 125 l 1,0,-1
250 250 m 1,12,-1
 625 250 l 1,13,-1
 625 875 l 1,14,-1
 250 875 l 1,15,-1
 250 250 l 1,12,-1
EndSplineSet
Validated: 1
Substitution2: "Single Substitution lookup 10 subtable" ordmasculine
Substitution2: "'aalt' Access All Alternates in Latin lookup 0 subtable" ordmasculine
EndChar

StartChar: Oacute
Encoding: 211 211 74
Width: 1000
Flags: W
LayerCount: 2
Fore
SplineSet
625 875 m 1,0,-1
 500 875 l 1,1,-1
 500 1000 l 1,2,-1
 625 1000 l 1,3,-1
 625 875 l 1,0,-1
875 625 m 1,4,-1
 875 250 l 1,5,-1
 750 250 l 1,6,-1
 750 125 l 1,7,-1
 125 125 l 1,8,-1
 125 250 l 1,9,-1
 0 250 l 1,10,-1
 0 625 l 1,11,-1
 125 625 l 1,12,-1
 125 750 l 1,13,-1
 375 750 l 1,14,-1
 375 875 l 1,15,-1
 500 875 l 1,16,-1
 500 750 l 1,17,-1
 750 750 l 1,18,-1
 750 625 l 1,19,-1
 875 625 l 1,4,-1
625 625 m 1,20,-1
 250 625 l 1,21,-1
 250 250 l 1,22,-1
 625 250 l 1,23,-1
 625 625 l 1,20,-1
EndSplineSet
Validated: 5
EndChar

StartChar: Obreve
Encoding: 334 334 75
Width: 1000
Flags: W
LayerCount: 2
Fore
SplineSet
250 1000 m 1,0,-1
 250 875 l 1,1,-1
 125 875 l 1,2,-1
 125 1000 l 1,3,-1
 250 1000 l 1,0,-1
750 875 m 1,4,-1
 625 875 l 1,5,-1
 625 1000 l 1,6,-1
 750 1000 l 1,7,-1
 750 875 l 1,4,-1
875 625 m 1,8,-1
 875 250 l 1,9,-1
 750 250 l 1,10,-1
 750 125 l 1,11,-1
 125 125 l 1,12,-1
 125 250 l 1,13,-1
 0 250 l 1,14,-1
 0 625 l 1,15,-1
 125 625 l 1,16,-1
 125 750 l 1,17,-1
 250 750 l 1,18,-1
 250 875 l 1,19,-1
 625 875 l 1,20,-1
 625 750 l 1,21,-1
 750 750 l 1,22,-1
 750 625 l 1,23,-1
 875 625 l 1,8,-1
625 625 m 1,24,-1
 250 625 l 1,25,-1
 250 250 l 1,26,-1
 625 250 l 1,27,-1
 625 625 l 1,24,-1
EndSplineSet
Validated: 5
EndChar

StartChar: Ocircumflex
Encoding: 212 212 76
Width: 1000
Flags: W
LayerCount: 2
Fore
SplineSet
125 125 m 1,0,-1
 125 250 l 1,1,-1
 0 250 l 1,2,-1
 0 625 l 1,3,-1
 125 625 l 1,4,-1
 125 875 l 1,5,-1
 250 875 l 1,6,-1
 250 1000 l 1,7,-1
 625 1000 l 1,8,-1
 625 875 l 1,9,-1
 750 875 l 1,10,-1
 750 625 l 1,11,-1
 875 625 l 1,12,-1
 875 250 l 1,13,-1
 750 250 l 1,14,-1
 750 125 l 1,15,-1
 125 125 l 1,0,-1
375 750 m 1,16,-1
 500 750 l 1,17,-1
 500 875 l 1,18,-1
 375 875 l 1,19,-1
 375 750 l 1,16,-1
250 250 m 1,20,-1
 625 250 l 1,21,-1
 625 625 l 1,22,-1
 250 625 l 1,23,-1
 250 250 l 1,20,-1
EndSplineSet
Validated: 1
EndChar

StartChar: Odieresis
Encoding: 214 214 77
Width: 1000
Flags: W
LayerCount: 2
Fore
SplineSet
125 875 m 1,0,-1
 125 1000 l 1,1,-1
 375 1000 l 1,2,-1
 375 875 l 1,3,-1
 125 875 l 1,0,-1
500 875 m 1,4,-1
 500 1000 l 1,5,-1
 750 1000 l 1,6,-1
 750 875 l 1,7,-1
 500 875 l 1,4,-1
125 125 m 1,8,-1
 125 250 l 1,9,-1
 0 250 l 1,10,-1
 0 625 l 1,11,-1
 125 625 l 1,12,-1
 125 750 l 1,13,-1
 750 750 l 1,14,-1
 750 625 l 1,15,-1
 875 625 l 1,16,-1
 875 250 l 1,17,-1
 750 250 l 1,18,-1
 750 125 l 1,19,-1
 125 125 l 1,8,-1
250 250 m 1,20,-1
 625 250 l 1,21,-1
 625 625 l 1,22,-1
 250 625 l 1,23,-1
 250 250 l 1,20,-1
EndSplineSet
Validated: 1
EndChar

StartChar: Ograve
Encoding: 210 210 78
Width: 1000
Flags: W
LayerCount: 2
Fore
SplineSet
375 1000 m 1,0,-1
 375 875 l 1,1,-1
 250 875 l 1,2,-1
 250 1000 l 1,3,-1
 375 1000 l 1,0,-1
875 625 m 1,4,-1
 875 250 l 1,5,-1
 750 250 l 1,6,-1
 750 125 l 1,7,-1
 125 125 l 1,8,-1
 125 250 l 1,9,-1
 0 250 l 1,10,-1
 0 625 l 1,11,-1
 125 625 l 1,12,-1
 125 750 l 1,13,-1
 375 750 l 1,14,-1
 375 875 l 1,15,-1
 500 875 l 1,16,-1
 500 750 l 1,17,-1
 750 750 l 1,18,-1
 750 625 l 1,19,-1
 875 625 l 1,4,-1
625 625 m 1,20,-1
 250 625 l 1,21,-1
 250 250 l 1,22,-1
 625 250 l 1,23,-1
 625 625 l 1,20,-1
EndSplineSet
Validated: 5
EndChar

StartChar: Ohungarumlaut
Encoding: 336 336 79
Width: 1000
Flags: W
LayerCount: 2
Fore
SplineSet
375 875 m 1,0,-1
 250 875 l 1,1,-1
 250 1000 l 1,2,-1
 375 1000 l 1,3,-1
 375 875 l 1,0,-1
750 875 m 1,4,-1
 625 875 l 1,5,-1
 625 1000 l 1,6,-1
 750 1000 l 1,7,-1
 750 875 l 1,4,-1
875 625 m 1,8,-1
 875 250 l 1,9,-1
 750 250 l 1,10,-1
 750 125 l 1,11,-1
 125 125 l 1,12,-1
 125 250 l 1,13,-1
 0 250 l 1,14,-1
 0 625 l 1,15,-1
 125 625 l 1,16,-1
 125 875 l 1,17,-1
 250 875 l 1,18,-1
 250 750 l 1,19,-1
 500 750 l 1,20,-1
 500 875 l 1,21,-1
 625 875 l 1,22,-1
 625 750 l 1,23,-1
 750 750 l 1,24,-1
 750 625 l 1,25,-1
 875 625 l 1,8,-1
625 625 m 1,26,-1
 250 625 l 1,27,-1
 250 250 l 1,28,-1
 625 250 l 1,29,-1
 625 625 l 1,26,-1
EndSplineSet
Validated: 5
EndChar

StartChar: Omacron
Encoding: 332 332 80
Width: 1000
Flags: W
LayerCount: 2
Fore
SplineSet
125 875 m 1,0,-1
 125 1000 l 1,1,-1
 750 1000 l 1,2,-1
 750 875 l 1,3,-1
 125 875 l 1,0,-1
125 125 m 1,4,-1
 125 250 l 1,5,-1
 0 250 l 1,6,-1
 0 625 l 1,7,-1
 125 625 l 1,8,-1
 125 750 l 1,9,-1
 750 750 l 1,10,-1
 750 625 l 1,11,-1
 875 625 l 1,12,-1
 875 250 l 1,13,-1
 750 250 l 1,14,-1
 750 125 l 1,15,-1
 125 125 l 1,4,-1
250 250 m 1,16,-1
 625 250 l 1,17,-1
 625 625 l 1,18,-1
 250 625 l 1,19,-1
 250 250 l 1,16,-1
EndSplineSet
Validated: 1
EndChar

StartChar: Oslash
Encoding: 216 216 81
Width: 1000
Flags: W
LayerCount: 2
Fore
SplineSet
125 125 m 1,0,-1
 125 250 l 1,1,-1
 0 250 l 1,2,-1
 0 875 l 1,3,-1
 125 875 l 1,4,-1
 125 1000 l 1,5,-1
 750 1000 l 1,6,-1
 750 875 l 1,7,-1
 875 875 l 1,8,-1
 875 250 l 1,9,-1
 750 250 l 1,10,-1
 750 125 l 1,11,-1
 125 125 l 1,0,-1
250 250 m 1,12,-1
 625 250 l 1,13,-1
 625 625 l 1,14,-1
 500 625 l 1,15,-1
 500 750 l 1,16,-1
 625 750 l 1,17,-1
 625 875 l 1,18,-1
 250 875 l 1,19,-1
 250 500 l 1,20,-1
 375 500 l 1,21,-1
 375 375 l 1,22,-1
 250 375 l 1,23,-1
 250 250 l 1,12,-1
375 500 m 1,24,-1
 375 625 l 1,25,-1
 500 625 l 1,26,-1
 500 500 l 1,27,-1
 375 500 l 1,24,-1
EndSplineSet
Validated: 5
EndChar

StartChar: Otilde
Encoding: 213 213 82
Width: 1000
Flags: W
LayerCount: 2
Fore
SplineSet
125 125 m 1,0,-1
 125 250 l 1,1,-1
 0 250 l 1,2,-1
 0 625 l 1,3,-1
 125 625 l 1,4,-1
 125 875 l 1,5,-1
 250 875 l 1,6,-1
 250 1000 l 1,7,-1
 500 1000 l 1,8,-1
 500 875 l 1,9,-1
 625 875 l 1,10,-1
 625 1000 l 1,11,-1
 750 1000 l 1,12,-1
 750 875 l 1,13,-1
 625 875 l 1,14,-1
 625 750 l 1,15,-1
 750 750 l 1,16,-1
 750 625 l 1,17,-1
 875 625 l 1,18,-1
 875 250 l 1,19,-1
 750 250 l 1,20,-1
 750 125 l 1,21,-1
 125 125 l 1,0,-1
250 750 m 1,22,-1
 375 750 l 1,23,-1
 375 875 l 1,24,-1
 250 875 l 1,25,-1
 250 750 l 1,22,-1
250 250 m 1,26,-1
 625 250 l 1,27,-1
 625 625 l 1,28,-1
 250 625 l 1,29,-1
 250 250 l 1,26,-1
EndSplineSet
Validated: 5
EndChar

StartChar: OE
Encoding: 338 338 83
Width: 1000
Flags: W
LayerCount: 2
Fore
SplineSet
125 125 m 1,0,-1
 125 250 l 1,1,-1
 0 250 l 1,2,-1
 0 875 l 1,3,-1
 125 875 l 1,4,-1
 125 1000 l 1,5,-1
 875 1000 l 1,6,-1
 875 875 l 1,7,-1
 625 875 l 1,8,-1
 625 625 l 1,9,-1
 875 625 l 1,10,-1
 875 500 l 1,11,-1
 625 500 l 1,12,-1
 625 250 l 1,13,-1
 875 250 l 1,14,-1
 875 125 l 1,15,-1
 125 125 l 1,0,-1
250 250 m 1,16,-1
 375 250 l 1,17,-1
 375 875 l 1,18,-1
 250 875 l 1,19,-1
 250 250 l 1,16,-1
EndSplineSet
Validated: 1
EndChar

StartChar: P
Encoding: 80 80 84
Width: 1000
Flags: W
LayerCount: 2
Fore
SplineSet
0 125 m 1,0,-1
 0 1000 l 1,1,-1
 750 1000 l 1,2,-1
 750 875 l 1,3,-1
 875 875 l 1,4,-1
 875 500 l 1,5,-1
 750 500 l 1,6,-1
 750 375 l 1,7,-1
 250 375 l 1,8,-1
 250 125 l 1,9,-1
 0 125 l 1,0,-1
250 500 m 1,10,-1
 625 500 l 1,11,-1
 625 875 l 1,12,-1
 250 875 l 1,13,-1
 250 500 l 1,10,-1
EndSplineSet
Validated: 1
EndChar

StartChar: Thorn
Encoding: 222 222 85
Width: 1000
Flags: W
LayerCount: 2
Fore
SplineSet
0 125 m 1,0,-1
 0 1000 l 1,1,-1
 250 1000 l 1,2,-1
 250 875 l 1,3,-1
 750 875 l 1,4,-1
 750 750 l 1,5,-1
 875 750 l 1,6,-1
 875 375 l 1,7,-1
 750 375 l 1,8,-1
 750 250 l 1,9,-1
 250 250 l 1,10,-1
 250 125 l 1,11,-1
 0 125 l 1,0,-1
250 375 m 1,12,-1
 625 375 l 1,13,-1
 625 750 l 1,14,-1
 250 750 l 1,15,-1
 250 375 l 1,12,-1
EndSplineSet
Validated: 1
EndChar

StartChar: Q
Encoding: 81 81 86
Width: 1000
Flags: W
LayerCount: 2
Fore
SplineSet
875 875 m 1,0,-1
 875 375 l 1,1,-1
 750 375 l 1,2,-1
 750 250 l 1,3,-1
 625 250 l 1,4,-1
 625 125 l 1,5,-1
 125 125 l 1,6,-1
 125 250 l 1,7,-1
 0 250 l 1,8,-1
 0 875 l 1,9,-1
 125 875 l 1,10,-1
 125 1000 l 1,11,-1
 750 1000 l 1,12,-1
 750 875 l 1,13,-1
 875 875 l 1,0,-1
625 875 m 1,14,-1
 250 875 l 1,15,-1
 250 250 l 1,16,-1
 500 250 l 1,17,-1
 500 375 l 1,18,-1
 375 375 l 1,19,-1
 375 500 l 1,20,-1
 625 500 l 1,21,-1
 625 875 l 1,14,-1
750 125 m 1,22,-1
 750 250 l 1,23,-1
 875 250 l 1,24,-1
 875 125 l 1,25,-1
 750 125 l 1,22,-1
EndSplineSet
Validated: 5
EndChar

StartChar: R
Encoding: 82 82 87
Width: 1000
Flags: W
LayerCount: 2
Fore
SplineSet
0 125 m 1,0,-1
 0 1000 l 1,1,-1
 750 1000 l 1,2,-1
 750 875 l 1,3,-1
 875 875 l 1,4,-1
 875 500 l 1,5,-1
 625 500 l 1,6,-1
 625 375 l 1,7,-1
 750 375 l 1,8,-1
 750 250 l 1,9,-1
 875 250 l 1,10,-1
 875 125 l 1,11,-1
 500 125 l 1,12,-1
 500 250 l 1,13,-1
 375 250 l 1,14,-1
 375 375 l 1,15,-1
 250 375 l 1,16,-1
 250 125 l 1,17,-1
 0 125 l 1,0,-1
250 500 m 1,18,-1
 500 500 l 1,19,-1
 500 625 l 1,20,-1
 625 625 l 1,21,-1
 625 875 l 1,22,-1
 250 875 l 1,23,-1
 250 500 l 1,18,-1
EndSplineSet
Validated: 1
EndChar

StartChar: Racute
Encoding: 340 340 88
Width: 1000
Flags: W
LayerCount: 2
Fore
SplineSet
625 875 m 1,0,-1
 500 875 l 1,1,-1
 500 1000 l 1,2,-1
 625 1000 l 1,3,-1
 625 875 l 1,0,-1
875 625 m 1,4,-1
 875 500 l 1,5,-1
 625 500 l 1,6,-1
 625 375 l 1,7,-1
 750 375 l 1,8,-1
 750 250 l 1,9,-1
 875 250 l 1,10,-1
 875 125 l 1,11,-1
 500 125 l 1,12,-1
 500 250 l 1,13,-1
 375 250 l 1,14,-1
 375 375 l 1,15,-1
 250 375 l 1,16,-1
 250 125 l 1,17,-1
 0 125 l 1,18,-1
 0 750 l 1,19,-1
 375 750 l 1,20,-1
 375 875 l 1,21,-1
 500 875 l 1,22,-1
 500 750 l 1,23,-1
 750 750 l 1,24,-1
 750 625 l 1,25,-1
 875 625 l 1,4,-1
500 625 m 1,26,-1
 250 625 l 1,27,-1
 250 500 l 1,28,-1
 500 500 l 1,29,-1
 500 625 l 1,26,-1
EndSplineSet
Validated: 5
EndChar

StartChar: Rcaron
Encoding: 344 344 89
Width: 1000
Flags: W
LayerCount: 2
Fore
SplineSet
375 1000 m 1,0,-1
 375 875 l 1,1,-1
 250 875 l 1,2,-1
 250 1000 l 1,3,-1
 375 1000 l 1,0,-1
625 875 m 1,4,-1
 500 875 l 1,5,-1
 500 1000 l 1,6,-1
 625 1000 l 1,7,-1
 625 875 l 1,4,-1
875 625 m 1,8,-1
 875 500 l 1,9,-1
 625 500 l 1,10,-1
 625 375 l 1,11,-1
 750 375 l 1,12,-1
 750 250 l 1,13,-1
 875 250 l 1,14,-1
 875 125 l 1,15,-1
 500 125 l 1,16,-1
 500 250 l 1,17,-1
 375 250 l 1,18,-1
 375 375 l 1,19,-1
 250 375 l 1,20,-1
 250 125 l 1,21,-1
 0 125 l 1,22,-1
 0 750 l 1,23,-1
 375 750 l 1,24,-1
 375 875 l 1,25,-1
 500 875 l 1,26,-1
 500 750 l 1,27,-1
 750 750 l 1,28,-1
 750 625 l 1,29,-1
 875 625 l 1,8,-1
500 625 m 1,30,-1
 250 625 l 1,31,-1
 250 500 l 1,32,-1
 500 500 l 1,33,-1
 500 625 l 1,30,-1
EndSplineSet
Validated: 5
EndChar

StartChar: Rcommaaccent
Encoding: 342 342 90
Width: 1000
Flags: W
LayerCount: 2
Fore
SplineSet
250 0 m 1,0,-1
 250 125 l 1,1,-1
 375 125 l 1,2,-1
 375 250 l 1,3,-1
 500 250 l 1,4,-1
 500 375 l 1,5,-1
 375 375 l 1,6,-1
 375 500 l 1,7,-1
 250 500 l 1,8,-1
 250 250 l 1,9,-1
 0 250 l 1,10,-1
 0 1000 l 1,11,-1
 750 1000 l 1,12,-1
 750 875 l 1,13,-1
 875 875 l 1,14,-1
 875 625 l 1,15,-1
 625 625 l 1,16,-1
 625 500 l 1,17,-1
 750 500 l 1,18,-1
 750 375 l 1,19,-1
 875 375 l 1,20,-1
 875 250 l 1,21,-1
 625 250 l 1,22,-1
 625 125 l 1,23,-1
 500 125 l 1,24,-1
 500 0 l 1,25,-1
 250 0 l 1,0,-1
250 625 m 1,26,-1
 500 625 l 1,27,-1
 500 750 l 1,28,-1
 625 750 l 1,29,-1
 625 875 l 1,30,-1
 250 875 l 1,31,-1
 250 625 l 1,26,-1
EndSplineSet
Validated: 1
EndChar

StartChar: S
Encoding: 83 83 91
Width: 1000
Flags: W
LayerCount: 2
Fore
SplineSet
125 125 m 1,0,-1
 125 250 l 1,1,-1
 0 250 l 1,2,-1
 0 375 l 1,3,-1
 250 375 l 1,4,-1
 250 250 l 1,5,-1
 625 250 l 1,6,-1
 625 500 l 1,7,-1
 125 500 l 1,8,-1
 125 625 l 1,9,-1
 0 625 l 1,10,-1
 0 875 l 1,11,-1
 125 875 l 1,12,-1
 125 1000 l 1,13,-1
 750 1000 l 1,14,-1
 750 875 l 1,15,-1
 875 875 l 1,16,-1
 875 750 l 1,17,-1
 625 750 l 1,18,-1
 625 875 l 1,19,-1
 250 875 l 1,20,-1
 250 625 l 1,21,-1
 750 625 l 1,22,-1
 750 500 l 1,23,-1
 875 500 l 1,24,-1
 875 250 l 1,25,-1
 750 250 l 1,26,-1
 750 125 l 1,27,-1
 125 125 l 1,0,-1
EndSplineSet
Validated: 1
EndChar

StartChar: Sacute
Encoding: 346 346 92
Width: 1000
Flags: W
LayerCount: 2
Fore
SplineSet
625 875 m 1,0,-1
 500 875 l 1,1,-1
 500 1000 l 1,2,-1
 625 1000 l 1,3,-1
 625 875 l 1,0,-1
875 375 m 1,4,-1
 875 250 l 1,5,-1
 750 250 l 1,6,-1
 750 125 l 1,7,-1
 0 125 l 1,8,-1
 0 250 l 1,9,-1
 625 250 l 1,10,-1
 625 375 l 1,11,-1
 125 375 l 1,12,-1
 125 500 l 1,13,-1
 0 500 l 1,14,-1
 0 625 l 1,15,-1
 125 625 l 1,16,-1
 125 750 l 1,17,-1
 375 750 l 1,18,-1
 375 875 l 1,19,-1
 500 875 l 1,20,-1
 500 750 l 1,21,-1
 750 750 l 1,22,-1
 750 625 l 1,23,-1
 250 625 l 1,24,-1
 250 500 l 1,25,-1
 750 500 l 1,26,-1
 750 375 l 1,27,-1
 875 375 l 1,4,-1
EndSplineSet
Validated: 5
EndChar

StartChar: Scaron
Encoding: 352 352 93
Width: 1000
Flags: W
LayerCount: 2
Fore
SplineSet
0 125 m 1,0,-1
 0 250 l 1,1,-1
 625 250 l 1,2,-1
 625 375 l 1,3,-1
 125 375 l 1,4,-1
 125 500 l 1,5,-1
 0 500 l 1,6,-1
 0 625 l 1,7,-1
 125 625 l 1,8,-1
 125 750 l 1,9,-1
 250 750 l 1,10,-1
 250 875 l 1,11,-1
 125 875 l 1,12,-1
 125 1000 l 1,13,-1
 375 1000 l 1,14,-1
 375 875 l 1,15,-1
 500 875 l 1,16,-1
 500 1000 l 1,17,-1
 750 1000 l 1,18,-1
 750 875 l 1,19,-1
 625 875 l 1,20,-1
 625 750 l 1,21,-1
 750 750 l 1,22,-1
 750 625 l 1,23,-1
 250 625 l 1,24,-1
 250 500 l 1,25,-1
 750 500 l 1,26,-1
 750 375 l 1,27,-1
 875 375 l 1,28,-1
 875 250 l 1,29,-1
 750 250 l 1,30,-1
 750 125 l 1,31,-1
 0 125 l 1,0,-1
EndSplineSet
Validated: 1
EndChar

StartChar: Scedilla
Encoding: 350 350 94
Width: 1000
Flags: W
LayerCount: 2
Fore
SplineSet
875 625 m 1,0,-1
 875 375 l 1,1,-1
 750 375 l 1,2,-1
 750 250 l 1,3,-1
 625 250 l 1,4,-1
 625 125 l 1,5,-1
 500 125 l 1,6,-1
 500 250 l 1,7,-1
 125 250 l 1,8,-1
 125 375 l 1,9,-1
 0 375 l 1,10,-1
 0 500 l 1,11,-1
 250 500 l 1,12,-1
 250 375 l 1,13,-1
 625 375 l 1,14,-1
 625 625 l 1,15,-1
 125 625 l 1,16,-1
 125 750 l 1,17,-1
 0 750 l 1,18,-1
 0 875 l 1,19,-1
 125 875 l 1,20,-1
 125 1000 l 1,21,-1
 750 1000 l 1,22,-1
 750 875 l 1,23,-1
 250 875 l 1,24,-1
 250 750 l 1,25,-1
 750 750 l 1,26,-1
 750 625 l 1,27,-1
 875 625 l 1,0,-1
250 125 m 1,28,-1
 500 125 l 1,29,-1
 500 0 l 1,30,-1
 250 0 l 1,31,-1
 250 125 l 1,28,-1
EndSplineSet
Validated: 5
EndChar

StartChar: Scircumflex
Encoding: 348 348 95
Width: 1000
Flags: W
LayerCount: 2
Fore
SplineSet
0 125 m 1,0,-1
 0 250 l 1,1,-1
 625 250 l 1,2,-1
 625 375 l 1,3,-1
 125 375 l 1,4,-1
 125 500 l 1,5,-1
 0 500 l 1,6,-1
 0 625 l 1,7,-1
 125 625 l 1,8,-1
 125 875 l 1,9,-1
 250 875 l 1,10,-1
 250 1000 l 1,11,-1
 625 1000 l 1,12,-1
 625 875 l 1,13,-1
 750 875 l 1,14,-1
 750 625 l 1,15,-1
 250 625 l 1,16,-1
 250 500 l 1,17,-1
 750 500 l 1,18,-1
 750 375 l 1,19,-1
 875 375 l 1,20,-1
 875 250 l 1,21,-1
 750 250 l 1,22,-1
 750 125 l 1,23,-1
 0 125 l 1,0,-1
375 750 m 1,24,-1
 500 750 l 1,25,-1
 500 875 l 1,26,-1
 375 875 l 1,27,-1
 375 750 l 1,24,-1
EndSplineSet
Validated: 1
EndChar

StartChar: T
Encoding: 84 84 96
Width: 1000
Flags: W
LayerCount: 2
Fore
SplineSet
375 125 m 1,0,-1
 375 875 l 1,1,-1
 125 875 l 1,2,-1
 125 1000 l 1,3,-1
 875 1000 l 1,4,-1
 875 875 l 1,5,-1
 625 875 l 1,6,-1
 625 125 l 1,7,-1
 375 125 l 1,0,-1
EndSplineSet
Validated: 1
EndChar

StartChar: Tbar
Encoding: 358 358 97
Width: 1000
Flags: W
LayerCount: 2
Fore
SplineSet
375 125 m 1,0,-1
 375 375 l 1,1,-1
 250 375 l 1,2,-1
 250 500 l 1,3,-1
 375 500 l 1,4,-1
 375 875 l 1,5,-1
 125 875 l 1,6,-1
 125 1000 l 1,7,-1
 875 1000 l 1,8,-1
 875 875 l 1,9,-1
 625 875 l 1,10,-1
 625 625 l 1,11,-1
 750 625 l 1,12,-1
 750 500 l 1,13,-1
 625 500 l 1,14,-1
 625 125 l 1,15,-1
 375 125 l 1,0,-1
EndSplineSet
Validated: 1
EndChar

StartChar: Tcaron
Encoding: 356 356 98
Width: 1000
Flags: W
LayerCount: 2
Fore
SplineSet
375 1000 m 1,0,-1
 375 875 l 1,1,-1
 250 875 l 1,2,-1
 250 1000 l 1,3,-1
 375 1000 l 1,0,-1
750 875 m 1,4,-1
 625 875 l 1,5,-1
 625 1000 l 1,6,-1
 750 1000 l 1,7,-1
 750 875 l 1,4,-1
875 750 m 1,8,-1
 875 625 l 1,9,-1
 625 625 l 1,10,-1
 625 125 l 1,11,-1
 375 125 l 1,12,-1
 375 625 l 1,13,-1
 125 625 l 1,14,-1
 125 750 l 1,15,-1
 375 750 l 1,16,-1
 375 875 l 1,17,-1
 625 875 l 1,18,-1
 625 750 l 1,19,-1
 875 750 l 1,8,-1
EndSplineSet
Validated: 5
EndChar

StartChar: uni021A
Encoding: 538 538 99
Width: 1000
Flags: W
LayerCount: 2
Fore
SplineSet
875 1000 m 1,0,-1
 875 875 l 1,1,-1
 625 875 l 1,2,-1
 625 125 l 1,3,-1
 500 125 l 1,4,-1
 500 250 l 1,5,-1
 375 250 l 1,6,-1
 375 875 l 1,7,-1
 125 875 l 1,8,-1
 125 1000 l 1,9,-1
 875 1000 l 1,0,-1
250 125 m 1,10,-1
 500 125 l 1,11,-1
 500 0 l 1,12,-1
 250 0 l 1,13,-1
 250 125 l 1,10,-1
EndSplineSet
Validated: 5
EndChar

StartChar: U
Encoding: 85 85 100
Width: 1000
Flags: W
LayerCount: 2
Fore
SplineSet
125 125 m 1,0,-1
 125 250 l 1,1,-1
 0 250 l 1,2,-1
 0 1000 l 1,3,-1
 250 1000 l 1,4,-1
 250 250 l 1,5,-1
 625 250 l 1,6,-1
 625 1000 l 1,7,-1
 875 1000 l 1,8,-1
 875 250 l 1,9,-1
 750 250 l 1,10,-1
 750 125 l 1,11,-1
 125 125 l 1,0,-1
EndSplineSet
Validated: 1
EndChar

StartChar: Uacute
Encoding: 218 218 101
Width: 1000
Flags: W
LayerCount: 2
Fore
SplineSet
625 875 m 1,0,-1
 500 875 l 1,1,-1
 500 1000 l 1,2,-1
 625 1000 l 1,3,-1
 625 875 l 1,0,-1
500 750 m 1,4,-1
 375 750 l 1,5,-1
 375 875 l 1,6,-1
 500 875 l 1,7,-1
 500 750 l 1,4,-1
875 750 m 1,8,-1
 875 250 l 1,9,-1
 750 250 l 1,10,-1
 750 125 l 1,11,-1
 125 125 l 1,12,-1
 125 250 l 1,13,-1
 0 250 l 1,14,-1
 0 750 l 1,15,-1
 250 750 l 1,16,-1
 250 250 l 1,17,-1
 625 250 l 1,18,-1
 625 750 l 1,19,-1
 875 750 l 1,8,-1
EndSplineSet
Validated: 5
EndChar

StartChar: Ubreve
Encoding: 364 364 102
Width: 1000
Flags: W
LayerCount: 2
Fore
SplineSet
250 1000 m 1,0,-1
 250 875 l 1,1,-1
 125 875 l 1,2,-1
 125 1000 l 1,3,-1
 250 1000 l 1,0,-1
750 875 m 1,4,-1
 625 875 l 1,5,-1
 625 1000 l 1,6,-1
 750 1000 l 1,7,-1
 750 875 l 1,4,-1
625 750 m 1,8,-1
 250 750 l 1,9,-1
 250 875 l 1,10,-1
 625 875 l 1,11,-1
 625 750 l 1,8,-1
875 750 m 1,12,-1
 875 250 l 1,13,-1
 750 250 l 1,14,-1
 750 125 l 1,15,-1
 125 125 l 1,16,-1
 125 250 l 1,17,-1
 0 250 l 1,18,-1
 0 750 l 1,19,-1
 250 750 l 1,20,-1
 250 250 l 1,21,-1
 625 250 l 1,22,-1
 625 750 l 1,23,-1
 875 750 l 1,12,-1
EndSplineSet
Validated: 5
EndChar

StartChar: Ucircumflex
Encoding: 219 219 103
Width: 1000
Flags: W
LayerCount: 2
Fore
SplineSet
125 750 m 1,0,-1
 125 875 l 1,1,-1
 250 875 l 1,2,-1
 250 1000 l 1,3,-1
 625 1000 l 1,4,-1
 625 875 l 1,5,-1
 750 875 l 1,6,-1
 750 750 l 1,7,-1
 500 750 l 1,8,-1
 500 875 l 1,9,-1
 375 875 l 1,10,-1
 375 750 l 1,11,-1
 125 750 l 1,0,-1
125 125 m 1,12,-1
 125 250 l 1,13,-1
 0 250 l 1,14,-1
 0 625 l 1,15,-1
 250 625 l 1,16,-1
 250 250 l 1,17,-1
 625 250 l 1,18,-1
 625 625 l 1,19,-1
 875 625 l 1,20,-1
 875 250 l 1,21,-1
 750 250 l 1,22,-1
 750 125 l 1,23,-1
 125 125 l 1,12,-1
EndSplineSet
Validated: 1
EndChar

StartChar: Udieresis
Encoding: 220 220 104
Width: 1000
Flags: W
LayerCount: 2
Fore
SplineSet
125 875 m 1,0,-1
 125 1000 l 1,1,-1
 375 1000 l 1,2,-1
 375 875 l 1,3,-1
 125 875 l 1,0,-1
500 875 m 1,4,-1
 500 1000 l 1,5,-1
 750 1000 l 1,6,-1
 750 875 l 1,7,-1
 500 875 l 1,4,-1
125 125 m 1,8,-1
 125 250 l 1,9,-1
 0 250 l 1,10,-1
 0 750 l 1,11,-1
 250 750 l 1,12,-1
 250 250 l 1,13,-1
 625 250 l 1,14,-1
 625 750 l 1,15,-1
 875 750 l 1,16,-1
 875 250 l 1,17,-1
 750 250 l 1,18,-1
 750 125 l 1,19,-1
 125 125 l 1,8,-1
EndSplineSet
Validated: 1
EndChar

StartChar: Ugrave
Encoding: 217 217 105
Width: 1000
Flags: W
LayerCount: 2
Fore
SplineSet
375 875 m 1,0,-1
 250 875 l 1,1,-1
 250 1000 l 1,2,-1
 375 1000 l 1,3,-1
 375 875 l 1,0,-1
375 750 m 1,4,-1
 375 875 l 1,5,-1
 500 875 l 1,6,-1
 500 750 l 1,7,-1
 375 750 l 1,4,-1
875 750 m 1,8,-1
 875 250 l 1,9,-1
 750 250 l 1,10,-1
 750 125 l 1,11,-1
 125 125 l 1,12,-1
 125 250 l 1,13,-1
 0 250 l 1,14,-1
 0 750 l 1,15,-1
 250 750 l 1,16,-1
 250 250 l 1,17,-1
 625 250 l 1,18,-1
 625 750 l 1,19,-1
 875 750 l 1,8,-1
EndSplineSet
Validated: 5
EndChar

StartChar: Uhungarumlaut
Encoding: 368 368 106
Width: 1000
Flags: W
LayerCount: 2
Fore
SplineSet
375 875 m 1,0,-1
 250 875 l 1,1,-1
 250 1000 l 1,2,-1
 375 1000 l 1,3,-1
 375 875 l 1,0,-1
750 875 m 1,4,-1
 625 875 l 1,5,-1
 625 1000 l 1,6,-1
 750 1000 l 1,7,-1
 750 875 l 1,4,-1
875 750 m 1,8,-1
 875 250 l 1,9,-1
 750 250 l 1,10,-1
 750 125 l 1,11,-1
 125 125 l 1,12,-1
 125 250 l 1,13,-1
 0 250 l 1,14,-1
 0 750 l 1,15,-1
 125 750 l 1,16,-1
 125 875 l 1,17,-1
 250 875 l 1,18,-1
 250 250 l 1,19,-1
 625 250 l 1,20,-1
 625 750 l 1,21,-1
 875 750 l 1,8,-1
625 875 m 1,22,-1
 625 750 l 1,23,-1
 500 750 l 1,24,-1
 500 875 l 1,25,-1
 625 875 l 1,22,-1
EndSplineSet
Validated: 5
EndChar

StartChar: Umacron
Encoding: 362 362 107
Width: 1000
Flags: W
LayerCount: 2
Fore
SplineSet
125 875 m 1,0,-1
 125 1000 l 1,1,-1
 750 1000 l 1,2,-1
 750 875 l 1,3,-1
 125 875 l 1,0,-1
125 125 m 1,4,-1
 125 250 l 1,5,-1
 0 250 l 1,6,-1
 0 750 l 1,7,-1
 250 750 l 1,8,-1
 250 250 l 1,9,-1
 625 250 l 1,10,-1
 625 750 l 1,11,-1
 875 750 l 1,12,-1
 875 250 l 1,13,-1
 750 250 l 1,14,-1
 750 125 l 1,15,-1
 125 125 l 1,4,-1
EndSplineSet
Validated: 1
EndChar

StartChar: Uogonek
Encoding: 370 370 108
Width: 1000
Flags: W
LayerCount: 2
Fore
SplineSet
875 1000 m 1,0,-1
 875 500 l 1,1,-1
 750 500 l 1,2,-1
 750 375 l 1,3,-1
 500 375 l 1,4,-1
 500 250 l 1,5,-1
 375 250 l 1,6,-1
 375 375 l 1,7,-1
 125 375 l 1,8,-1
 125 500 l 1,9,-1
 0 500 l 1,10,-1
 0 1000 l 1,11,-1
 250 1000 l 1,12,-1
 250 500 l 1,13,-1
 625 500 l 1,14,-1
 625 1000 l 1,15,-1
 875 1000 l 1,0,-1
250 250 m 1,16,-1
 375 250 l 1,17,-1
 375 125 l 1,18,-1
 250 125 l 1,19,-1
 250 250 l 1,16,-1
375 0 m 1,20,-1
 375 125 l 1,21,-1
 625 125 l 1,22,-1
 625 0 l 1,23,-1
 375 0 l 1,20,-1
EndSplineSet
Validated: 5
EndChar

StartChar: Uring
Encoding: 366 366 109
Width: 1000
Flags: W
LayerCount: 2
Fore
SplineSet
125 125 m 1,0,-1
 125 250 l 1,1,-1
 0 250 l 1,2,-1
 0 750 l 1,3,-1
 125 750 l 1,4,-1
 125 875 l 1,5,-1
 250 875 l 1,6,-1
 250 1000 l 1,7,-1
 625 1000 l 1,8,-1
 625 875 l 1,9,-1
 750 875 l 1,10,-1
 750 750 l 1,11,-1
 875 750 l 1,12,-1
 875 250 l 1,13,-1
 750 250 l 1,14,-1
 750 125 l 1,15,-1
 125 125 l 1,0,-1
375 750 m 1,16,-1
 500 750 l 1,17,-1
 500 875 l 1,18,-1
 375 875 l 1,19,-1
 375 750 l 1,16,-1
250 250 m 1,20,-1
 625 250 l 1,21,-1
 625 625 l 1,22,-1
 750 625 l 1,23,-1
 750 750 l 1,24,-1
 625 750 l 1,25,-1
 625 625 l 1,26,-1
 250 625 l 1,27,-1
 250 750 l 1,28,-1
 125 750 l 1,29,-1
 125 625 l 1,30,-1
 250 625 l 1,31,-1
 250 250 l 1,20,-1
EndSplineSet
Validated: 5
EndChar

StartChar: Utilde
Encoding: 360 360 110
Width: 1000
Flags: W
LayerCount: 2
Fore
SplineSet
375 875 m 1,0,-1
 250 875 l 1,1,-1
 250 1000 l 1,2,-1
 500 1000 l 1,3,-1
 500 875 l 1,4,-1
 625 875 l 1,5,-1
 625 750 l 1,6,-1
 375 750 l 1,7,-1
 375 875 l 1,0,-1
750 875 m 1,8,-1
 625 875 l 1,9,-1
 625 1000 l 1,10,-1
 750 1000 l 1,11,-1
 750 875 l 1,8,-1
875 750 m 1,12,-1
 875 250 l 1,13,-1
 750 250 l 1,14,-1
 750 125 l 1,15,-1
 125 125 l 1,16,-1
 125 250 l 1,17,-1
 0 250 l 1,18,-1
 0 750 l 1,19,-1
 125 750 l 1,20,-1
 125 875 l 1,21,-1
 250 875 l 1,22,-1
 250 250 l 1,23,-1
 625 250 l 1,24,-1
 625 750 l 1,25,-1
 875 750 l 1,12,-1
EndSplineSet
Validated: 5
EndChar

StartChar: V
Encoding: 86 86 111
Width: 1000
Flags: W
LayerCount: 2
Fore
SplineSet
375 125 m 1,0,-1
 375 250 l 1,1,-1
 250 250 l 1,2,-1
 250 375 l 1,3,-1
 125 375 l 1,4,-1
 125 500 l 1,5,-1
 0 500 l 1,6,-1
 0 1000 l 1,7,-1
 250 1000 l 1,8,-1
 250 625 l 1,9,-1
 375 625 l 1,10,-1
 375 500 l 1,11,-1
 500 500 l 1,12,-1
 500 625 l 1,13,-1
 625 625 l 1,14,-1
 625 1000 l 1,15,-1
 875 1000 l 1,16,-1
 875 500 l 1,17,-1
 750 500 l 1,18,-1
 750 375 l 1,19,-1
 625 375 l 1,20,-1
 625 250 l 1,21,-1
 500 250 l 1,22,-1
 500 125 l 1,23,-1
 375 125 l 1,0,-1
EndSplineSet
Validated: 1
EndChar

StartChar: W
Encoding: 87 87 112
Width: 1000
Flags: W
LayerCount: 2
Fore
SplineSet
125 125 m 1,0,-1
 125 250 l 1,1,-1
 0 250 l 1,2,-1
 0 1000 l 1,3,-1
 250 1000 l 1,4,-1
 250 500 l 1,5,-1
 375 500 l 1,6,-1
 375 1000 l 1,7,-1
 500 1000 l 1,8,-1
 500 500 l 1,9,-1
 625 500 l 1,10,-1
 625 1000 l 1,11,-1
 875 1000 l 1,12,-1
 875 250 l 1,13,-1
 750 250 l 1,14,-1
 750 125 l 1,15,-1
 625 125 l 1,16,-1
 625 250 l 1,17,-1
 500 250 l 1,18,-1
 500 375 l 1,19,-1
 375 375 l 1,20,-1
 375 250 l 1,21,-1
 250 250 l 1,22,-1
 250 125 l 1,23,-1
 125 125 l 1,0,-1
EndSplineSet
Validated: 1
EndChar

StartChar: Wcircumflex
Encoding: 372 372 113
Width: 1000
Flags: W
LayerCount: 2
Fore
SplineSet
0 125 m 1,0,-1
 0 750 l 1,1,-1
 125 750 l 1,2,-1
 125 875 l 1,3,-1
 250 875 l 1,4,-1
 250 1000 l 1,5,-1
 625 1000 l 1,6,-1
 625 875 l 1,7,-1
 750 875 l 1,8,-1
 750 750 l 1,9,-1
 875 750 l 1,10,-1
 875 125 l 1,11,-1
 500 125 l 1,12,-1
 500 250 l 1,13,-1
 375 250 l 1,14,-1
 375 125 l 1,15,-1
 0 125 l 1,0,-1
250 500 m 1,16,-1
 375 500 l 1,17,-1
 375 625 l 1,18,-1
 500 625 l 1,19,-1
 500 500 l 1,20,-1
 625 500 l 1,21,-1
 625 750 l 1,22,-1
 500 750 l 1,23,-1
 500 875 l 1,24,-1
 375 875 l 1,25,-1
 375 750 l 1,26,-1
 250 750 l 1,27,-1
 250 500 l 1,16,-1
EndSplineSet
Validated: 1
EndChar

StartChar: X
Encoding: 88 88 114
Width: 1000
Flags: W
LayerCount: 2
Fore
SplineSet
0 125 m 1,0,-1
 0 375 l 1,1,-1
 125 375 l 1,2,-1
 125 500 l 1,3,-1
 250 500 l 1,4,-1
 250 625 l 1,5,-1
 125 625 l 1,6,-1
 125 750 l 1,7,-1
 0 750 l 1,8,-1
 0 1000 l 1,9,-1
 250 1000 l 1,10,-1
 250 750 l 1,11,-1
 375 750 l 1,12,-1
 375 625 l 1,13,-1
 500 625 l 1,14,-1
 500 750 l 1,15,-1
 625 750 l 1,16,-1
 625 1000 l 1,17,-1
 875 1000 l 1,18,-1
 875 750 l 1,19,-1
 750 750 l 1,20,-1
 750 625 l 1,21,-1
 625 625 l 1,22,-1
 625 500 l 1,23,-1
 750 500 l 1,24,-1
 750 375 l 1,25,-1
 875 375 l 1,26,-1
 875 125 l 1,27,-1
 625 125 l 1,28,-1
 625 375 l 1,29,-1
 500 375 l 1,30,-1
 500 500 l 1,31,-1
 375 500 l 1,32,-1
 375 375 l 1,33,-1
 250 375 l 1,34,-1
 250 125 l 1,35,-1
 0 125 l 1,0,-1
EndSplineSet
Validated: 1
EndChar

StartChar: Y
Encoding: 89 89 115
Width: 1000
Flags: W
LayerCount: 2
Fore
SplineSet
375 125 m 1,0,-1
 375 500 l 1,1,-1
 250 500 l 1,2,-1
 250 625 l 1,3,-1
 125 625 l 1,4,-1
 125 1000 l 1,5,-1
 375 1000 l 1,6,-1
 375 625 l 1,7,-1
 625 625 l 1,8,-1
 625 1000 l 1,9,-1
 875 1000 l 1,10,-1
 875 625 l 1,11,-1
 750 625 l 1,12,-1
 750 500 l 1,13,-1
 625 500 l 1,14,-1
 625 125 l 1,15,-1
 375 125 l 1,0,-1
EndSplineSet
Validated: 1
EndChar

StartChar: Yacute
Encoding: 221 221 116
Width: 1000
Flags: W
LayerCount: 2
Fore
SplineSet
625 875 m 1,0,-1
 500 875 l 1,1,-1
 500 1000 l 1,2,-1
 625 1000 l 1,3,-1
 625 875 l 1,0,-1
500 750 m 1,4,-1
 375 750 l 1,5,-1
 375 875 l 1,6,-1
 500 875 l 1,7,-1
 500 750 l 1,4,-1
875 750 m 1,8,-1
 875 500 l 1,9,-1
 750 500 l 1,10,-1
 750 375 l 1,11,-1
 625 375 l 1,12,-1
 625 125 l 1,13,-1
 375 125 l 1,14,-1
 375 375 l 1,15,-1
 250 375 l 1,16,-1
 250 500 l 1,17,-1
 125 500 l 1,18,-1
 125 750 l 1,19,-1
 375 750 l 1,20,-1
 375 500 l 1,21,-1
 625 500 l 1,22,-1
 625 750 l 1,23,-1
 875 750 l 1,8,-1
EndSplineSet
Validated: 5
EndChar

StartChar: Ycircumflex
Encoding: 374 374 117
Width: 1000
Flags: W
LayerCount: 2
Fore
SplineSet
375 125 m 1,0,-1
 375 375 l 1,1,-1
 250 375 l 1,2,-1
 250 500 l 1,3,-1
 125 500 l 1,4,-1
 125 750 l 1,5,-1
 250 750 l 1,6,-1
 250 875 l 1,7,-1
 375 875 l 1,8,-1
 375 1000 l 1,9,-1
 625 1000 l 1,10,-1
 625 875 l 1,11,-1
 750 875 l 1,12,-1
 750 750 l 1,13,-1
 875 750 l 1,14,-1
 875 500 l 1,15,-1
 750 500 l 1,16,-1
 750 375 l 1,17,-1
 625 375 l 1,18,-1
 625 125 l 1,19,-1
 375 125 l 1,0,-1
375 500 m 1,20,-1
 625 500 l 1,21,-1
 625 875 l 1,22,-1
 375 875 l 1,23,-1
 375 500 l 1,20,-1
EndSplineSet
Validated: 5
EndChar

StartChar: Ydieresis
Encoding: 376 376 118
Width: 1000
Flags: W
LayerCount: 2
Fore
SplineSet
125 875 m 1,0,-1
 125 1000 l 1,1,-1
 375 1000 l 1,2,-1
 375 875 l 1,3,-1
 125 875 l 1,0,-1
625 875 m 1,4,-1
 625 1000 l 1,5,-1
 875 1000 l 1,6,-1
 875 875 l 1,7,-1
 625 875 l 1,4,-1
375 125 m 1,8,-1
 375 375 l 1,9,-1
 250 375 l 1,10,-1
 250 500 l 1,11,-1
 125 500 l 1,12,-1
 125 750 l 1,13,-1
 375 750 l 1,14,-1
 375 500 l 1,15,-1
 625 500 l 1,16,-1
 625 750 l 1,17,-1
 875 750 l 1,18,-1
 875 500 l 1,19,-1
 750 500 l 1,20,-1
 750 375 l 1,21,-1
 625 375 l 1,22,-1
 625 125 l 1,23,-1
 375 125 l 1,8,-1
EndSplineSet
Validated: 1
EndChar

StartChar: Z
Encoding: 90 90 119
Width: 1000
Flags: W
LayerCount: 2
Fore
SplineSet
0 125 m 1,0,-1
 0 375 l 1,1,-1
 125 375 l 1,2,-1
 125 500 l 1,3,-1
 250 500 l 1,4,-1
 250 625 l 1,5,-1
 375 625 l 1,6,-1
 375 750 l 1,7,-1
 500 750 l 1,8,-1
 500 875 l 1,9,-1
 0 875 l 1,10,-1
 0 1000 l 1,11,-1
 875 1000 l 1,12,-1
 875 750 l 1,13,-1
 750 750 l 1,14,-1
 750 625 l 1,15,-1
 625 625 l 1,16,-1
 625 500 l 1,17,-1
 500 500 l 1,18,-1
 500 375 l 1,19,-1
 375 375 l 1,20,-1
 375 250 l 1,21,-1
 875 250 l 1,22,-1
 875 125 l 1,23,-1
 0 125 l 1,0,-1
EndSplineSet
Validated: 1
EndChar

StartChar: Zacute
Encoding: 377 377 120
Width: 1000
Flags: W
LayerCount: 2
Fore
SplineSet
625 875 m 1,0,-1
 500 875 l 1,1,-1
 500 1000 l 1,2,-1
 625 1000 l 1,3,-1
 625 875 l 1,0,-1
875 750 m 1,4,-1
 875 625 l 1,5,-1
 750 625 l 1,6,-1
 750 500 l 1,7,-1
 625 500 l 1,8,-1
 625 375 l 1,9,-1
 500 375 l 1,10,-1
 500 250 l 1,11,-1
 875 250 l 1,12,-1
 875 125 l 1,13,-1
 0 125 l 1,14,-1
 0 250 l 1,15,-1
 125 250 l 1,16,-1
 125 375 l 1,17,-1
 250 375 l 1,18,-1
 250 500 l 1,19,-1
 375 500 l 1,20,-1
 375 625 l 1,21,-1
 0 625 l 1,22,-1
 0 750 l 1,23,-1
 375 750 l 1,24,-1
 375 875 l 1,25,-1
 500 875 l 1,26,-1
 500 750 l 1,27,-1
 875 750 l 1,4,-1
EndSplineSet
Validated: 5
EndChar

StartChar: Zcaron
Encoding: 381 381 121
Width: 1000
Flags: W
LayerCount: 2
Fore
SplineSet
0 125 m 1,0,-1
 0 250 l 1,1,-1
 125 250 l 1,2,-1
 125 375 l 1,3,-1
 250 375 l 1,4,-1
 250 500 l 1,5,-1
 375 500 l 1,6,-1
 375 625 l 1,7,-1
 0 625 l 1,8,-1
 0 750 l 1,9,-1
 250 750 l 1,10,-1
 250 875 l 1,11,-1
 125 875 l 1,12,-1
 125 1000 l 1,13,-1
 375 1000 l 1,14,-1
 375 875 l 1,15,-1
 500 875 l 1,16,-1
 500 1000 l 1,17,-1
 750 1000 l 1,18,-1
 750 875 l 1,19,-1
 625 875 l 1,20,-1
 625 750 l 1,21,-1
 875 750 l 1,22,-1
 875 625 l 1,23,-1
 750 625 l 1,24,-1
 750 500 l 1,25,-1
 625 500 l 1,26,-1
 625 375 l 1,27,-1
 500 375 l 1,28,-1
 500 250 l 1,29,-1
 875 250 l 1,30,-1
 875 125 l 1,31,-1
 0 125 l 1,0,-1
EndSplineSet
Validated: 1
EndChar

StartChar: Zdotaccent
Encoding: 379 379 122
Width: 1000
Flags: W
LayerCount: 2
Fore
SplineSet
375 875 m 1,0,-1
 375 1000 l 1,1,-1
 625 1000 l 1,2,-1
 625 875 l 1,3,-1
 375 875 l 1,0,-1
0 125 m 1,4,-1
 0 250 l 1,5,-1
 125 250 l 1,6,-1
 125 375 l 1,7,-1
 250 375 l 1,8,-1
 250 500 l 1,9,-1
 375 500 l 1,10,-1
 375 625 l 1,11,-1
 0 625 l 1,12,-1
 0 750 l 1,13,-1
 875 750 l 1,14,-1
 875 625 l 1,15,-1
 750 625 l 1,16,-1
 750 500 l 1,17,-1
 625 500 l 1,18,-1
 625 375 l 1,19,-1
 500 375 l 1,20,-1
 500 250 l 1,21,-1
 875 250 l 1,22,-1
 875 125 l 1,23,-1
 0 125 l 1,4,-1
EndSplineSet
Validated: 1
EndChar

StartChar: a
Encoding: 97 97 123
Width: 1000
Flags: W
LayerCount: 2
Fore
SplineSet
125 125 m 1,0,-1
 125 250 l 1,1,-1
 0 250 l 1,2,-1
 0 375 l 1,3,-1
 125 375 l 1,4,-1
 125 500 l 1,5,-1
 625 500 l 1,6,-1
 625 625 l 1,7,-1
 125 625 l 1,8,-1
 125 750 l 1,9,-1
 750 750 l 1,10,-1
 750 625 l 1,11,-1
 875 625 l 1,12,-1
 875 125 l 1,13,-1
 125 125 l 1,0,-1
250 250 m 1,14,-1
 625 250 l 1,15,-1
 625 375 l 1,16,-1
 250 375 l 1,17,-1
 250 250 l 1,14,-1
EndSplineSet
Validated: 1
Substitution2: "Single Substitution lookup 10 subtable" ordfeminine
Substitution2: "'aalt' Access All Alternates in Latin lookup 0 subtable" ordfeminine
EndChar

StartChar: aacute
Encoding: 225 225 124
Width: 1000
Flags: W
LayerCount: 2
Fore
SplineSet
625 875 m 1,0,-1
 500 875 l 1,1,-1
 500 1000 l 1,2,-1
 625 1000 l 1,3,-1
 625 875 l 1,0,-1
875 625 m 1,4,-1
 875 125 l 1,5,-1
 125 125 l 1,6,-1
 125 250 l 1,7,-1
 0 250 l 1,8,-1
 0 375 l 1,9,-1
 125 375 l 1,10,-1
 125 500 l 1,11,-1
 625 500 l 1,12,-1
 625 625 l 1,13,-1
 125 625 l 1,14,-1
 125 750 l 1,15,-1
 375 750 l 1,16,-1
 375 875 l 1,17,-1
 500 875 l 1,18,-1
 500 750 l 1,19,-1
 750 750 l 1,20,-1
 750 625 l 1,21,-1
 875 625 l 1,4,-1
625 375 m 1,22,-1
 250 375 l 1,23,-1
 250 250 l 1,24,-1
 625 250 l 1,25,-1
 625 375 l 1,22,-1
EndSplineSet
Validated: 5
EndChar

StartChar: abreve
Encoding: 259 259 125
Width: 1000
Flags: W
LayerCount: 2
Fore
SplineSet
250 1000 m 1,0,-1
 250 875 l 1,1,-1
 125 875 l 1,2,-1
 125 1000 l 1,3,-1
 250 1000 l 1,0,-1
750 875 m 1,4,-1
 625 875 l 1,5,-1
 625 1000 l 1,6,-1
 750 1000 l 1,7,-1
 750 875 l 1,4,-1
875 625 m 1,8,-1
 875 125 l 1,9,-1
 125 125 l 1,10,-1
 125 250 l 1,11,-1
 0 250 l 1,12,-1
 0 375 l 1,13,-1
 125 375 l 1,14,-1
 125 500 l 1,15,-1
 625 500 l 1,16,-1
 625 625 l 1,17,-1
 125 625 l 1,18,-1
 125 750 l 1,19,-1
 250 750 l 1,20,-1
 250 875 l 1,21,-1
 625 875 l 1,22,-1
 625 750 l 1,23,-1
 750 750 l 1,24,-1
 750 625 l 1,25,-1
 875 625 l 1,8,-1
625 375 m 1,26,-1
 250 375 l 1,27,-1
 250 250 l 1,28,-1
 625 250 l 1,29,-1
 625 375 l 1,26,-1
EndSplineSet
Validated: 5
EndChar

StartChar: acircumflex
Encoding: 226 226 126
Width: 1000
Flags: W
LayerCount: 2
Fore
SplineSet
125 125 m 1,0,-1
 125 250 l 1,1,-1
 0 250 l 1,2,-1
 0 375 l 1,3,-1
 125 375 l 1,4,-1
 125 500 l 1,5,-1
 625 500 l 1,6,-1
 625 625 l 1,7,-1
 125 625 l 1,8,-1
 125 875 l 1,9,-1
 250 875 l 1,10,-1
 250 1000 l 1,11,-1
 625 1000 l 1,12,-1
 625 875 l 1,13,-1
 750 875 l 1,14,-1
 750 625 l 1,15,-1
 875 625 l 1,16,-1
 875 125 l 1,17,-1
 125 125 l 1,0,-1
375 750 m 1,18,-1
 500 750 l 1,19,-1
 500 875 l 1,20,-1
 375 875 l 1,21,-1
 375 750 l 1,18,-1
250 250 m 1,22,-1
 625 250 l 1,23,-1
 625 375 l 1,24,-1
 250 375 l 1,25,-1
 250 250 l 1,22,-1
EndSplineSet
Validated: 1
EndChar

StartChar: adieresis
Encoding: 228 228 127
Width: 1000
Flags: W
LayerCount: 2
Fore
SplineSet
125 875 m 1,0,-1
 125 1000 l 1,1,-1
 375 1000 l 1,2,-1
 375 875 l 1,3,-1
 125 875 l 1,0,-1
500 875 m 1,4,-1
 500 1000 l 1,5,-1
 750 1000 l 1,6,-1
 750 875 l 1,7,-1
 500 875 l 1,4,-1
125 125 m 1,8,-1
 125 250 l 1,9,-1
 0 250 l 1,10,-1
 0 375 l 1,11,-1
 125 375 l 1,12,-1
 125 500 l 1,13,-1
 625 500 l 1,14,-1
 625 625 l 1,15,-1
 125 625 l 1,16,-1
 125 750 l 1,17,-1
 750 750 l 1,18,-1
 750 625 l 1,19,-1
 875 625 l 1,20,-1
 875 125 l 1,21,-1
 125 125 l 1,8,-1
250 250 m 1,22,-1
 625 250 l 1,23,-1
 625 375 l 1,24,-1
 250 375 l 1,25,-1
 250 250 l 1,22,-1
EndSplineSet
Validated: 1
EndChar

StartChar: agrave
Encoding: 224 224 128
Width: 1000
Flags: W
LayerCount: 2
Fore
SplineSet
375 1000 m 1,0,-1
 375 875 l 1,1,-1
 250 875 l 1,2,-1
 250 1000 l 1,3,-1
 375 1000 l 1,0,-1
875 625 m 1,4,-1
 875 125 l 1,5,-1
 125 125 l 1,6,-1
 125 250 l 1,7,-1
 0 250 l 1,8,-1
 0 375 l 1,9,-1
 125 375 l 1,10,-1
 125 500 l 1,11,-1
 625 500 l 1,12,-1
 625 625 l 1,13,-1
 125 625 l 1,14,-1
 125 750 l 1,15,-1
 375 750 l 1,16,-1
 375 875 l 1,17,-1
 500 875 l 1,18,-1
 500 750 l 1,19,-1
 750 750 l 1,20,-1
 750 625 l 1,21,-1
 875 625 l 1,4,-1
625 375 m 1,22,-1
 250 375 l 1,23,-1
 250 250 l 1,24,-1
 625 250 l 1,25,-1
 625 375 l 1,22,-1
EndSplineSet
Validated: 5
EndChar

StartChar: amacron
Encoding: 257 257 129
Width: 1000
Flags: W
LayerCount: 2
Fore
SplineSet
125 875 m 1,0,-1
 125 1000 l 1,1,-1
 750 1000 l 1,2,-1
 750 875 l 1,3,-1
 125 875 l 1,0,-1
125 125 m 1,4,-1
 125 250 l 1,5,-1
 0 250 l 1,6,-1
 0 375 l 1,7,-1
 125 375 l 1,8,-1
 125 500 l 1,9,-1
 625 500 l 1,10,-1
 625 625 l 1,11,-1
 125 625 l 1,12,-1
 125 750 l 1,13,-1
 750 750 l 1,14,-1
 750 625 l 1,15,-1
 875 625 l 1,16,-1
 875 125 l 1,17,-1
 125 125 l 1,4,-1
250 250 m 1,18,-1
 625 250 l 1,19,-1
 625 375 l 1,20,-1
 250 375 l 1,21,-1
 250 250 l 1,18,-1
EndSplineSet
Validated: 1
EndChar

StartChar: aogonek
Encoding: 261 261 130
Width: 1000
Flags: W
LayerCount: 2
Fore
SplineSet
875 875 m 1,0,-1
 875 375 l 1,1,-1
 500 375 l 1,2,-1
 500 250 l 1,3,-1
 375 250 l 1,4,-1
 375 375 l 1,5,-1
 125 375 l 1,6,-1
 125 500 l 1,7,-1
 0 500 l 1,8,-1
 0 625 l 1,9,-1
 125 625 l 1,10,-1
 125 750 l 1,11,-1
 625 750 l 1,12,-1
 625 875 l 1,13,-1
 125 875 l 1,14,-1
 125 1000 l 1,15,-1
 750 1000 l 1,16,-1
 750 875 l 1,17,-1
 875 875 l 1,0,-1
625 625 m 1,18,-1
 250 625 l 1,19,-1
 250 500 l 1,20,-1
 625 500 l 1,21,-1
 625 625 l 1,18,-1
250 250 m 1,22,-1
 375 250 l 1,23,-1
 375 125 l 1,24,-1
 250 125 l 1,25,-1
 250 250 l 1,22,-1
375 0 m 1,26,-1
 375 125 l 1,27,-1
 625 125 l 1,28,-1
 625 0 l 1,29,-1
 375 0 l 1,26,-1
EndSplineSet
Validated: 5
EndChar

StartChar: aring
Encoding: 229 229 131
Width: 1000
Flags: W
LayerCount: 2
Fore
SplineSet
125 125 m 1,0,-1
 125 250 l 1,1,-1
 0 250 l 1,2,-1
 0 375 l 1,3,-1
 125 375 l 1,4,-1
 125 500 l 1,5,-1
 625 500 l 1,6,-1
 625 625 l 1,7,-1
 125 625 l 1,8,-1
 125 750 l 1,9,-1
 250 750 l 1,10,-1
 250 875 l 1,11,-1
 375 875 l 1,12,-1
 375 1000 l 1,13,-1
 500 1000 l 1,14,-1
 500 875 l 1,15,-1
 625 875 l 1,16,-1
 625 750 l 1,17,-1
 750 750 l 1,18,-1
 750 625 l 1,19,-1
 875 625 l 1,20,-1
 875 125 l 1,21,-1
 125 125 l 1,0,-1
375 750 m 1,22,-1
 500 750 l 1,23,-1
 500 875 l 1,24,-1
 375 875 l 1,25,-1
 375 750 l 1,22,-1
250 250 m 1,26,-1
 625 250 l 1,27,-1
 625 375 l 1,28,-1
 250 375 l 1,29,-1
 250 250 l 1,26,-1
EndSplineSet
Validated: 5
EndChar

StartChar: atilde
Encoding: 227 227 132
Width: 1000
Flags: W
LayerCount: 2
Fore
SplineSet
125 125 m 1,0,-1
 125 250 l 1,1,-1
 0 250 l 1,2,-1
 0 375 l 1,3,-1
 125 375 l 1,4,-1
 125 500 l 1,5,-1
 625 500 l 1,6,-1
 625 625 l 1,7,-1
 125 625 l 1,8,-1
 125 875 l 1,9,-1
 250 875 l 1,10,-1
 250 1000 l 1,11,-1
 500 1000 l 1,12,-1
 500 875 l 1,13,-1
 625 875 l 1,14,-1
 625 1000 l 1,15,-1
 750 1000 l 1,16,-1
 750 875 l 1,17,-1
 625 875 l 1,18,-1
 625 750 l 1,19,-1
 750 750 l 1,20,-1
 750 625 l 1,21,-1
 875 625 l 1,22,-1
 875 125 l 1,23,-1
 125 125 l 1,0,-1
250 750 m 1,24,-1
 375 750 l 1,25,-1
 375 875 l 1,26,-1
 250 875 l 1,27,-1
 250 750 l 1,24,-1
250 250 m 1,28,-1
 625 250 l 1,29,-1
 625 375 l 1,30,-1
 250 375 l 1,31,-1
 250 250 l 1,28,-1
EndSplineSet
Validated: 5
EndChar

StartChar: ae
Encoding: 230 230 133
Width: 1000
Flags: W
LayerCount: 2
Fore
SplineSet
125 125 m 1,0,-1
 125 250 l 1,1,-1
 0 250 l 1,2,-1
 0 375 l 1,3,-1
 125 375 l 1,4,-1
 125 500 l 1,5,-1
 375 500 l 1,6,-1
 375 625 l 1,7,-1
 125 625 l 1,8,-1
 125 750 l 1,9,-1
 750 750 l 1,10,-1
 750 625 l 1,11,-1
 875 625 l 1,12,-1
 875 375 l 1,13,-1
 500 375 l 1,14,-1
 500 250 l 1,15,-1
 750 250 l 1,16,-1
 750 125 l 1,17,-1
 125 125 l 1,0,-1
500 500 m 1,18,-1
 625 500 l 1,19,-1
 625 625 l 1,20,-1
 500 625 l 1,21,-1
 500 500 l 1,18,-1
250 250 m 1,22,-1
 375 250 l 1,23,-1
 375 375 l 1,24,-1
 250 375 l 1,25,-1
 250 250 l 1,22,-1
EndSplineSet
Validated: 1
EndChar

StartChar: b
Encoding: 98 98 134
Width: 1000
Flags: W
LayerCount: 2
Fore
SplineSet
125 125 m 1,0,-1
 125 250 l 1,1,-1
 0 250 l 1,2,-1
 0 1000 l 1,3,-1
 250 1000 l 1,4,-1
 250 750 l 1,5,-1
 750 750 l 1,6,-1
 750 625 l 1,7,-1
 875 625 l 1,8,-1
 875 250 l 1,9,-1
 750 250 l 1,10,-1
 750 125 l 1,11,-1
 125 125 l 1,0,-1
250 250 m 1,12,-1
 625 250 l 1,13,-1
 625 625 l 1,14,-1
 250 625 l 1,15,-1
 250 250 l 1,12,-1
EndSplineSet
Validated: 1
EndChar

StartChar: c
Encoding: 99 99 135
Width: 1000
Flags: W
LayerCount: 2
Fore
SplineSet
125 125 m 1,0,-1
 125 250 l 1,1,-1
 0 250 l 1,2,-1
 0 625 l 1,3,-1
 125 625 l 1,4,-1
 125 750 l 1,5,-1
 875 750 l 1,6,-1
 875 625 l 1,7,-1
 250 625 l 1,8,-1
 250 250 l 1,9,-1
 875 250 l 1,10,-1
 875 125 l 1,11,-1
 125 125 l 1,0,-1
EndSplineSet
Validated: 1
EndChar

StartChar: cacute
Encoding: 263 263 136
Width: 1000
Flags: W
LayerCount: 2
Fore
SplineSet
625 875 m 1,0,-1
 500 875 l 1,1,-1
 500 1000 l 1,2,-1
 625 1000 l 1,3,-1
 625 875 l 1,0,-1
875 750 m 1,4,-1
 875 625 l 1,5,-1
 250 625 l 1,6,-1
 250 250 l 1,7,-1
 875 250 l 1,8,-1
 875 125 l 1,9,-1
 125 125 l 1,10,-1
 125 250 l 1,11,-1
 0 250 l 1,12,-1
 0 625 l 1,13,-1
 125 625 l 1,14,-1
 125 750 l 1,15,-1
 375 750 l 1,16,-1
 375 875 l 1,17,-1
 500 875 l 1,18,-1
 500 750 l 1,19,-1
 875 750 l 1,4,-1
EndSplineSet
Validated: 5
EndChar

StartChar: ccaron
Encoding: 269 269 137
Width: 1000
Flags: W
LayerCount: 2
Fore
SplineSet
125 125 m 1,0,-1
 125 250 l 1,1,-1
 0 250 l 1,2,-1
 0 625 l 1,3,-1
 125 625 l 1,4,-1
 125 750 l 1,5,-1
 250 750 l 1,6,-1
 250 875 l 1,7,-1
 125 875 l 1,8,-1
 125 1000 l 1,9,-1
 375 1000 l 1,10,-1
 375 875 l 1,11,-1
 500 875 l 1,12,-1
 500 1000 l 1,13,-1
 750 1000 l 1,14,-1
 750 875 l 1,15,-1
 625 875 l 1,16,-1
 625 750 l 1,17,-1
 875 750 l 1,18,-1
 875 625 l 1,19,-1
 250 625 l 1,20,-1
 250 250 l 1,21,-1
 875 250 l 1,22,-1
 875 125 l 1,23,-1
 125 125 l 1,0,-1
EndSplineSet
Validated: 1
EndChar

StartChar: ccedilla
Encoding: 231 231 138
Width: 1000
Flags: W
LayerCount: 2
Fore
SplineSet
875 750 m 1,0,-1
 875 625 l 1,1,-1
 250 625 l 1,2,-1
 250 375 l 1,3,-1
 875 375 l 1,4,-1
 875 250 l 1,5,-1
 625 250 l 1,6,-1
 625 125 l 1,7,-1
 500 125 l 1,8,-1
 500 250 l 1,9,-1
 125 250 l 1,10,-1
 125 375 l 1,11,-1
 0 375 l 1,12,-1
 0 625 l 1,13,-1
 125 625 l 1,14,-1
 125 750 l 1,15,-1
 875 750 l 1,0,-1
250 125 m 1,16,-1
 500 125 l 1,17,-1
 500 0 l 1,18,-1
 250 0 l 1,19,-1
 250 125 l 1,16,-1
EndSplineSet
Validated: 5
EndChar

StartChar: ccircumflex
Encoding: 265 265 139
Width: 1000
Flags: W
LayerCount: 2
Fore
SplineSet
125 125 m 1,0,-1
 125 250 l 1,1,-1
 0 250 l 1,2,-1
 0 625 l 1,3,-1
 125 625 l 1,4,-1
 125 875 l 1,5,-1
 250 875 l 1,6,-1
 250 1000 l 1,7,-1
 625 1000 l 1,8,-1
 625 875 l 1,9,-1
 750 875 l 1,10,-1
 750 750 l 1,11,-1
 875 750 l 1,12,-1
 875 625 l 1,13,-1
 250 625 l 1,14,-1
 250 250 l 1,15,-1
 875 250 l 1,16,-1
 875 125 l 1,17,-1
 125 125 l 1,0,-1
375 750 m 1,18,-1
 500 750 l 1,19,-1
 500 875 l 1,20,-1
 375 875 l 1,21,-1
 375 750 l 1,18,-1
EndSplineSet
Validated: 1
EndChar

StartChar: cdotaccent
Encoding: 267 267 140
Width: 1000
Flags: W
LayerCount: 2
Fore
SplineSet
375 875 m 1,0,-1
 375 1000 l 1,1,-1
 625 1000 l 1,2,-1
 625 875 l 1,3,-1
 375 875 l 1,0,-1
125 125 m 1,4,-1
 125 250 l 1,5,-1
 0 250 l 1,6,-1
 0 625 l 1,7,-1
 125 625 l 1,8,-1
 125 750 l 1,9,-1
 875 750 l 1,10,-1
 875 625 l 1,11,-1
 250 625 l 1,12,-1
 250 250 l 1,13,-1
 875 250 l 1,14,-1
 875 125 l 1,15,-1
 125 125 l 1,4,-1
EndSplineSet
Validated: 1
EndChar

StartChar: d
Encoding: 100 100 141
Width: 1000
Flags: W
LayerCount: 2
Fore
SplineSet
125 125 m 1,0,-1
 125 250 l 1,1,-1
 0 250 l 1,2,-1
 0 625 l 1,3,-1
 125 625 l 1,4,-1
 125 750 l 1,5,-1
 625 750 l 1,6,-1
 625 1000 l 1,7,-1
 875 1000 l 1,8,-1
 875 125 l 1,9,-1
 125 125 l 1,0,-1
250 250 m 1,10,-1
 625 250 l 1,11,-1
 625 625 l 1,12,-1
 250 625 l 1,13,-1
 250 250 l 1,10,-1
EndSplineSet
Validated: 1
EndChar

StartChar: eth
Encoding: 240 240 142
Width: 1000
Flags: W
LayerCount: 2
Fore
SplineSet
875 500 m 1,0,-1
 875 250 l 1,1,-1
 750 250 l 1,2,-1
 750 125 l 1,3,-1
 125 125 l 1,4,-1
 125 250 l 1,5,-1
 0 250 l 1,6,-1
 0 500 l 1,7,-1
 125 500 l 1,8,-1
 125 625 l 1,9,-1
 375 625 l 1,10,-1
 375 750 l 1,11,-1
 125 750 l 1,12,-1
 125 1000 l 1,13,-1
 375 1000 l 1,14,-1
 375 875 l 1,15,-1
 625 875 l 1,16,-1
 625 625 l 1,17,-1
 750 625 l 1,18,-1
 750 500 l 1,19,-1
 875 500 l 1,0,-1
750 875 m 1,20,-1
 625 875 l 1,21,-1
 625 1000 l 1,22,-1
 750 1000 l 1,23,-1
 750 875 l 1,20,-1
125 750 m 1,24,-1
 125 625 l 1,25,-1
 0 625 l 1,26,-1
 0 750 l 1,27,-1
 125 750 l 1,24,-1
625 500 m 1,28,-1
 250 500 l 1,29,-1
 250 250 l 1,30,-1
 625 250 l 1,31,-1
 625 500 l 1,28,-1
EndSplineSet
Validated: 5
EndChar

StartChar: dcaron
Encoding: 271 271 143
Width: 1000
Flags: W
LayerCount: 2
Fore
SplineSet
125 125 m 1,0,-1
 125 250 l 1,1,-1
 0 250 l 1,2,-1
 0 625 l 1,3,-1
 125 625 l 1,4,-1
 125 750 l 1,5,-1
 375 750 l 1,6,-1
 375 1000 l 1,7,-1
 625 1000 l 1,8,-1
 625 125 l 1,9,-1
 125 125 l 1,0,-1
750 625 m 1,10,-1
 750 1000 l 1,11,-1
 1000 1000 l 1,12,-1
 1000 750 l 1,13,-1
 875 750 l 1,14,-1
 875 625 l 1,15,-1
 750 625 l 1,10,-1
250 250 m 1,16,-1
 375 250 l 1,17,-1
 375 625 l 1,18,-1
 250 625 l 1,19,-1
 250 250 l 1,16,-1
EndSplineSet
Validated: 1
EndChar

StartChar: dcroat
Encoding: 273 273 144
Width: 1000
Flags: W
LayerCount: 2
Fore
SplineSet
125 125 m 1,0,-1
 125 250 l 1,1,-1
 0 250 l 1,2,-1
 0 625 l 1,3,-1
 125 625 l 1,4,-1
 125 750 l 1,5,-1
 375 750 l 1,6,-1
 375 875 l 1,7,-1
 500 875 l 1,8,-1
 500 1000 l 1,9,-1
 750 1000 l 1,10,-1
 750 875 l 1,11,-1
 875 875 l 1,12,-1
 875 750 l 1,13,-1
 750 750 l 1,14,-1
 750 125 l 1,15,-1
 125 125 l 1,0,-1
250 250 m 1,16,-1
 500 250 l 1,17,-1
 500 625 l 1,18,-1
 250 625 l 1,19,-1
 250 250 l 1,16,-1
EndSplineSet
Validated: 1
EndChar

StartChar: e
Encoding: 101 101 145
Width: 1000
Flags: W
LayerCount: 2
Fore
SplineSet
125 125 m 5,0,-1
 125 250 l 5,1,-1
 0 250 l 5,2,-1
 0 625 l 5,3,-1
 125 625 l 5,4,-1
 125 750 l 5,5,-1
 750 750 l 5,6,-1
 750 625 l 5,7,-1
 875 625 l 5,8,-1
 875 375 l 5,9,-1
 250 375 l 5,10,-1
 250 250 l 5,11,-1
 750 250 l 5,12,-1
 750 125 l 5,13,-1
 125 125 l 5,0,-1
250 500 m 5,14,-1
 625 500 l 5,15,-1
 625 625 l 5,16,-1
 250 625 l 5,17,-1
 250 500 l 5,14,-1
EndSplineSet
Validated: 1
EndChar

StartChar: eacute
Encoding: 233 233 146
Width: 1000
Flags: W
LayerCount: 2
Fore
SplineSet
625 875 m 1,0,-1
 500 875 l 1,1,-1
 500 1000 l 1,2,-1
 625 1000 l 1,3,-1
 625 875 l 1,0,-1
875 625 m 1,4,-1
 875 375 l 1,5,-1
 250 375 l 1,6,-1
 250 250 l 1,7,-1
 750 250 l 1,8,-1
 750 125 l 1,9,-1
 125 125 l 1,10,-1
 125 250 l 1,11,-1
 0 250 l 1,12,-1
 0 625 l 1,13,-1
 125 625 l 1,14,-1
 125 750 l 1,15,-1
 375 750 l 1,16,-1
 375 875 l 1,17,-1
 500 875 l 1,18,-1
 500 750 l 1,19,-1
 750 750 l 1,20,-1
 750 625 l 1,21,-1
 875 625 l 1,4,-1
625 625 m 1,22,-1
 250 625 l 1,23,-1
 250 500 l 1,24,-1
 625 500 l 1,25,-1
 625 625 l 1,22,-1
EndSplineSet
Validated: 5
EndChar

StartChar: ebreve
Encoding: 277 277 147
Width: 1000
Flags: W
LayerCount: 2
Fore
SplineSet
250 1000 m 1,0,-1
 250 875 l 1,1,-1
 125 875 l 1,2,-1
 125 1000 l 1,3,-1
 250 1000 l 1,0,-1
750 875 m 1,4,-1
 625 875 l 1,5,-1
 625 1000 l 1,6,-1
 750 1000 l 1,7,-1
 750 875 l 1,4,-1
875 625 m 1,8,-1
 875 375 l 1,9,-1
 250 375 l 1,10,-1
 250 250 l 1,11,-1
 750 250 l 1,12,-1
 750 125 l 1,13,-1
 125 125 l 1,14,-1
 125 250 l 1,15,-1
 0 250 l 1,16,-1
 0 625 l 1,17,-1
 125 625 l 1,18,-1
 125 750 l 1,19,-1
 250 750 l 1,20,-1
 250 875 l 1,21,-1
 625 875 l 1,22,-1
 625 750 l 1,23,-1
 750 750 l 1,24,-1
 750 625 l 1,25,-1
 875 625 l 1,8,-1
625 625 m 1,26,-1
 250 625 l 1,27,-1
 250 500 l 1,28,-1
 625 500 l 1,29,-1
 625 625 l 1,26,-1
EndSplineSet
Validated: 5
EndChar

StartChar: ecaron
Encoding: 283 283 148
Width: 1000
Flags: W
LayerCount: 2
Fore
SplineSet
125 125 m 1,0,-1
 125 250 l 1,1,-1
 0 250 l 1,2,-1
 0 625 l 1,3,-1
 125 625 l 1,4,-1
 125 750 l 1,5,-1
 250 750 l 1,6,-1
 250 875 l 1,7,-1
 125 875 l 1,8,-1
 125 1000 l 1,9,-1
 375 1000 l 1,10,-1
 375 875 l 1,11,-1
 500 875 l 1,12,-1
 500 1000 l 1,13,-1
 750 1000 l 1,14,-1
 750 875 l 1,15,-1
 625 875 l 1,16,-1
 625 750 l 1,17,-1
 750 750 l 1,18,-1
 750 625 l 1,19,-1
 875 625 l 1,20,-1
 875 375 l 1,21,-1
 250 375 l 1,22,-1
 250 250 l 1,23,-1
 750 250 l 1,24,-1
 750 125 l 1,25,-1
 125 125 l 1,0,-1
250 500 m 1,26,-1
 625 500 l 1,27,-1
 625 625 l 1,28,-1
 250 625 l 1,29,-1
 250 500 l 1,26,-1
EndSplineSet
Validated: 1
EndChar

StartChar: ecircumflex
Encoding: 234 234 149
Width: 1000
Flags: W
LayerCount: 2
Fore
SplineSet
125 125 m 1,0,-1
 125 250 l 1,1,-1
 0 250 l 1,2,-1
 0 625 l 1,3,-1
 125 625 l 1,4,-1
 125 875 l 1,5,-1
 250 875 l 1,6,-1
 250 1000 l 1,7,-1
 625 1000 l 1,8,-1
 625 875 l 1,9,-1
 750 875 l 1,10,-1
 750 625 l 1,11,-1
 875 625 l 1,12,-1
 875 375 l 1,13,-1
 250 375 l 1,14,-1
 250 250 l 1,15,-1
 750 250 l 1,16,-1
 750 125 l 1,17,-1
 125 125 l 1,0,-1
375 750 m 1,18,-1
 500 750 l 1,19,-1
 500 875 l 1,20,-1
 375 875 l 1,21,-1
 375 750 l 1,18,-1
250 500 m 1,22,-1
 625 500 l 1,23,-1
 625 625 l 1,24,-1
 250 625 l 1,25,-1
 250 500 l 1,22,-1
EndSplineSet
Validated: 1
EndChar

StartChar: edieresis
Encoding: 235 235 150
Width: 1000
Flags: W
LayerCount: 2
Fore
SplineSet
125 875 m 1,0,-1
 125 1000 l 1,1,-1
 375 1000 l 1,2,-1
 375 875 l 1,3,-1
 125 875 l 1,0,-1
500 875 m 1,4,-1
 500 1000 l 1,5,-1
 750 1000 l 1,6,-1
 750 875 l 1,7,-1
 500 875 l 1,4,-1
125 125 m 1,8,-1
 125 250 l 1,9,-1
 0 250 l 1,10,-1
 0 625 l 1,11,-1
 125 625 l 1,12,-1
 125 750 l 1,13,-1
 750 750 l 1,14,-1
 750 625 l 1,15,-1
 875 625 l 1,16,-1
 875 375 l 1,17,-1
 250 375 l 1,18,-1
 250 250 l 1,19,-1
 750 250 l 1,20,-1
 750 125 l 1,21,-1
 125 125 l 1,8,-1
250 500 m 1,22,-1
 625 500 l 1,23,-1
 625 625 l 1,24,-1
 250 625 l 1,25,-1
 250 500 l 1,22,-1
EndSplineSet
Validated: 1
EndChar

StartChar: edotaccent
Encoding: 279 279 151
Width: 1000
Flags: W
LayerCount: 2
Fore
SplineSet
375 875 m 1,0,-1
 375 1000 l 1,1,-1
 625 1000 l 1,2,-1
 625 875 l 1,3,-1
 375 875 l 1,0,-1
125 125 m 1,4,-1
 125 250 l 1,5,-1
 0 250 l 1,6,-1
 0 625 l 1,7,-1
 125 625 l 1,8,-1
 125 750 l 1,9,-1
 750 750 l 1,10,-1
 750 625 l 1,11,-1
 875 625 l 1,12,-1
 875 375 l 1,13,-1
 250 375 l 1,14,-1
 250 250 l 1,15,-1
 750 250 l 1,16,-1
 750 125 l 1,17,-1
 125 125 l 1,4,-1
250 500 m 1,18,-1
 625 500 l 1,19,-1
 625 625 l 1,20,-1
 250 625 l 1,21,-1
 250 500 l 1,18,-1
EndSplineSet
Validated: 1
EndChar

StartChar: egrave
Encoding: 232 232 152
Width: 1000
Flags: W
LayerCount: 2
Fore
SplineSet
375 1000 m 1,0,-1
 375 875 l 1,1,-1
 250 875 l 1,2,-1
 250 1000 l 1,3,-1
 375 1000 l 1,0,-1
875 625 m 1,4,-1
 875 375 l 1,5,-1
 250 375 l 1,6,-1
 250 250 l 1,7,-1
 750 250 l 1,8,-1
 750 125 l 1,9,-1
 125 125 l 1,10,-1
 125 250 l 1,11,-1
 0 250 l 1,12,-1
 0 625 l 1,13,-1
 125 625 l 1,14,-1
 125 750 l 1,15,-1
 375 750 l 1,16,-1
 375 875 l 1,17,-1
 500 875 l 1,18,-1
 500 750 l 1,19,-1
 750 750 l 1,20,-1
 750 625 l 1,21,-1
 875 625 l 1,4,-1
625 625 m 1,22,-1
 250 625 l 1,23,-1
 250 500 l 1,24,-1
 625 500 l 1,25,-1
 625 625 l 1,22,-1
EndSplineSet
Validated: 5
EndChar

StartChar: emacron
Encoding: 275 275 153
Width: 1000
Flags: W
LayerCount: 2
Fore
SplineSet
125 875 m 1,0,-1
 125 1000 l 1,1,-1
 750 1000 l 1,2,-1
 750 875 l 1,3,-1
 125 875 l 1,0,-1
125 125 m 1,4,-1
 125 250 l 1,5,-1
 0 250 l 1,6,-1
 0 625 l 1,7,-1
 125 625 l 1,8,-1
 125 750 l 1,9,-1
 750 750 l 1,10,-1
 750 625 l 1,11,-1
 875 625 l 1,12,-1
 875 375 l 1,13,-1
 250 375 l 1,14,-1
 250 250 l 1,15,-1
 750 250 l 1,16,-1
 750 125 l 1,17,-1
 125 125 l 1,4,-1
250 500 m 1,18,-1
 625 500 l 1,19,-1
 625 625 l 1,20,-1
 250 625 l 1,21,-1
 250 500 l 1,18,-1
EndSplineSet
Validated: 1
EndChar

StartChar: eogonek
Encoding: 281 281 154
Width: 1000
Flags: W
LayerCount: 2
Fore
SplineSet
875 875 m 1,0,-1
 875 625 l 1,1,-1
 250 625 l 1,2,-1
 250 500 l 1,3,-1
 750 500 l 1,4,-1
 750 375 l 1,5,-1
 500 375 l 1,6,-1
 500 250 l 1,7,-1
 375 250 l 1,8,-1
 375 375 l 1,9,-1
 125 375 l 1,10,-1
 125 500 l 1,11,-1
 0 500 l 1,12,-1
 0 875 l 1,13,-1
 125 875 l 1,14,-1
 125 1000 l 1,15,-1
 750 1000 l 1,16,-1
 750 875 l 1,17,-1
 875 875 l 1,0,-1
625 875 m 1,18,-1
 250 875 l 1,19,-1
 250 750 l 1,20,-1
 625 750 l 1,21,-1
 625 875 l 1,18,-1
250 250 m 1,22,-1
 375 250 l 1,23,-1
 375 125 l 1,24,-1
 250 125 l 1,25,-1
 250 250 l 1,22,-1
375 0 m 1,26,-1
 375 125 l 1,27,-1
 625 125 l 1,28,-1
 625 0 l 1,29,-1
 375 0 l 1,26,-1
EndSplineSet
Validated: 5
EndChar

StartChar: f
Encoding: 102 102 155
Width: 1000
Flags: W
LayerCount: 2
Fore
SplineSet
375 125 m 1,0,-1
 375 625 l 1,1,-1
 125 625 l 1,2,-1
 125 750 l 1,3,-1
 375 750 l 1,4,-1
 375 875 l 1,5,-1
 500 875 l 1,6,-1
 500 1000 l 1,7,-1
 875 1000 l 1,8,-1
 875 875 l 1,9,-1
 625 875 l 1,10,-1
 625 750 l 1,11,-1
 875 750 l 1,12,-1
 875 625 l 1,13,-1
 625 625 l 1,14,-1
 625 125 l 1,15,-1
 375 125 l 1,0,-1
EndSplineSet
Validated: 1
EndChar

StartChar: g
Encoding: 103 103 156
Width: 1000
Flags: W
LayerCount: 2
Fore
SplineSet
125 0 m 1,0,-1
 125 125 l 1,1,-1
 625 125 l 1,2,-1
 625 250 l 1,3,-1
 125 250 l 1,4,-1
 125 375 l 1,5,-1
 0 375 l 1,6,-1
 0 625 l 1,7,-1
 125 625 l 1,8,-1
 125 750 l 1,9,-1
 875 750 l 1,10,-1
 875 125 l 1,11,-1
 750 125 l 1,12,-1
 750 0 l 1,13,-1
 125 0 l 1,0,-1
250 375 m 1,14,-1
 625 375 l 1,15,-1
 625 625 l 1,16,-1
 250 625 l 1,17,-1
 250 375 l 1,14,-1
EndSplineSet
Validated: 1
EndChar

StartChar: gbreve
Encoding: 287 287 157
Width: 1000
Flags: W
LayerCount: 2
Fore
SplineSet
250 1000 m 1,0,-1
 250 875 l 1,1,-1
 125 875 l 1,2,-1
 125 1000 l 1,3,-1
 250 1000 l 1,0,-1
750 875 m 1,4,-1
 625 875 l 1,5,-1
 625 1000 l 1,6,-1
 750 1000 l 1,7,-1
 750 875 l 1,4,-1
875 750 m 1,8,-1
 875 125 l 1,9,-1
 750 125 l 1,10,-1
 750 0 l 1,11,-1
 125 0 l 1,12,-1
 125 125 l 1,13,-1
 625 125 l 1,14,-1
 625 250 l 1,15,-1
 125 250 l 1,16,-1
 125 375 l 1,17,-1
 0 375 l 1,18,-1
 0 625 l 1,19,-1
 125 625 l 1,20,-1
 125 750 l 1,21,-1
 250 750 l 1,22,-1
 250 875 l 1,23,-1
 625 875 l 1,24,-1
 625 750 l 1,25,-1
 875 750 l 1,8,-1
625 625 m 1,26,-1
 250 625 l 1,27,-1
 250 375 l 1,28,-1
 625 375 l 1,29,-1
 625 625 l 1,26,-1
EndSplineSet
Validated: 5
EndChar

StartChar: gcircumflex
Encoding: 285 285 158
Width: 1000
Flags: W
LayerCount: 2
Fore
SplineSet
125 0 m 1,0,-1
 125 125 l 1,1,-1
 625 125 l 1,2,-1
 625 250 l 1,3,-1
 125 250 l 1,4,-1
 125 375 l 1,5,-1
 0 375 l 1,6,-1
 0 625 l 1,7,-1
 125 625 l 1,8,-1
 125 875 l 1,9,-1
 250 875 l 1,10,-1
 250 1000 l 1,11,-1
 625 1000 l 1,12,-1
 625 875 l 1,13,-1
 750 875 l 1,14,-1
 750 750 l 1,15,-1
 875 750 l 1,16,-1
 875 125 l 1,17,-1
 750 125 l 1,18,-1
 750 0 l 1,19,-1
 125 0 l 1,0,-1
375 750 m 1,20,-1
 500 750 l 1,21,-1
 500 875 l 1,22,-1
 375 875 l 1,23,-1
 375 750 l 1,20,-1
250 375 m 1,24,-1
 625 375 l 1,25,-1
 625 625 l 1,26,-1
 250 625 l 1,27,-1
 250 375 l 1,24,-1
EndSplineSet
Validated: 1
EndChar

StartChar: gcommaaccent
Encoding: 291 291 159
Width: 1000
Flags: W
LayerCount: 2
Fore
SplineSet
125 0 m 1,0,-1
 125 125 l 1,1,-1
 625 125 l 1,2,-1
 625 250 l 1,3,-1
 125 250 l 1,4,-1
 125 375 l 1,5,-1
 0 375 l 1,6,-1
 0 625 l 1,7,-1
 125 625 l 1,8,-1
 125 750 l 1,9,-1
 250 750 l 1,10,-1
 250 875 l 1,11,-1
 375 875 l 1,12,-1
 375 1000 l 1,13,-1
 625 1000 l 1,14,-1
 625 875 l 1,15,-1
 500 875 l 1,16,-1
 500 750 l 1,17,-1
 875 750 l 1,18,-1
 875 125 l 1,19,-1
 750 125 l 1,20,-1
 750 0 l 1,21,-1
 125 0 l 1,0,-1
250 375 m 1,22,-1
 625 375 l 1,23,-1
 625 625 l 1,24,-1
 250 625 l 1,25,-1
 250 375 l 1,22,-1
EndSplineSet
Validated: 1
EndChar

StartChar: gdotaccent
Encoding: 289 289 160
Width: 1000
Flags: W
LayerCount: 2
Fore
SplineSet
375 875 m 1,0,-1
 375 1000 l 1,1,-1
 625 1000 l 1,2,-1
 625 875 l 1,3,-1
 375 875 l 1,0,-1
125 0 m 1,4,-1
 125 125 l 1,5,-1
 625 125 l 1,6,-1
 625 250 l 1,7,-1
 125 250 l 1,8,-1
 125 375 l 1,9,-1
 0 375 l 1,10,-1
 0 625 l 1,11,-1
 125 625 l 1,12,-1
 125 750 l 1,13,-1
 875 750 l 1,14,-1
 875 125 l 1,15,-1
 750 125 l 1,16,-1
 750 0 l 1,17,-1
 125 0 l 1,4,-1
250 375 m 1,18,-1
 625 375 l 1,19,-1
 625 625 l 1,20,-1
 250 625 l 1,21,-1
 250 375 l 1,18,-1
EndSplineSet
Validated: 1
EndChar

StartChar: h
Encoding: 104 104 161
Width: 1000
Flags: W
LayerCount: 2
Fore
SplineSet
0 125 m 1,0,-1
 0 1000 l 1,1,-1
 250 1000 l 1,2,-1
 250 750 l 1,3,-1
 750 750 l 1,4,-1
 750 625 l 1,5,-1
 875 625 l 1,6,-1
 875 125 l 1,7,-1
 625 125 l 1,8,-1
 625 625 l 1,9,-1
 250 625 l 1,10,-1
 250 125 l 1,11,-1
 0 125 l 1,0,-1
EndSplineSet
Validated: 1
EndChar

StartChar: hbar
Encoding: 295 295 162
Width: 1000
Flags: W
LayerCount: 2
Fore
SplineSet
125 125 m 1,0,-1
 125 750 l 1,1,-1
 0 750 l 1,2,-1
 0 875 l 1,3,-1
 125 875 l 1,4,-1
 125 1000 l 1,5,-1
 375 1000 l 1,6,-1
 375 875 l 1,7,-1
 625 875 l 1,8,-1
 625 750 l 1,9,-1
 375 750 l 1,10,-1
 375 625 l 1,11,-1
 750 625 l 1,12,-1
 750 500 l 1,13,-1
 875 500 l 1,14,-1
 875 125 l 1,15,-1
 625 125 l 1,16,-1
 625 500 l 1,17,-1
 375 500 l 1,18,-1
 375 125 l 1,19,-1
 125 125 l 1,0,-1
EndSplineSet
Validated: 1
EndChar

StartChar: hcircumflex
Encoding: 293 293 163
Width: 1000
Flags: W
LayerCount: 2
Fore
SplineSet
0 125 m 1,0,-1
 0 875 l 1,1,-1
 250 875 l 1,2,-1
 250 1000 l 1,3,-1
 625 1000 l 1,4,-1
 625 875 l 1,5,-1
 750 875 l 1,6,-1
 750 750 l 1,7,-1
 500 750 l 1,8,-1
 500 875 l 1,9,-1
 375 875 l 1,10,-1
 375 750 l 1,11,-1
 250 750 l 1,12,-1
 250 625 l 1,13,-1
 750 625 l 1,14,-1
 750 500 l 1,15,-1
 875 500 l 1,16,-1
 875 125 l 1,17,-1
 625 125 l 1,18,-1
 625 500 l 1,19,-1
 250 500 l 1,20,-1
 250 125 l 1,21,-1
 0 125 l 1,0,-1
EndSplineSet
Validated: 1
EndChar

StartChar: i
Encoding: 105 105 164
Width: 1000
Flags: W
LayerCount: 2
Fore
SplineSet
375 875 m 1,0,-1
 375 1000 l 1,1,-1
 625 1000 l 1,2,-1
 625 875 l 1,3,-1
 375 875 l 1,0,-1
125 125 m 1,4,-1
 125 250 l 1,5,-1
 375 250 l 1,6,-1
 375 625 l 1,7,-1
 250 625 l 1,8,-1
 250 750 l 1,9,-1
 625 750 l 1,10,-1
 625 250 l 1,11,-1
 875 250 l 1,12,-1
 875 125 l 1,13,-1
 125 125 l 1,4,-1
EndSplineSet
Validated: 1
Substitution2: "Single Substitution lookup 8 subtable" dotlessi
Substitution2: "'aalt' Access All Alternates in Latin lookup 0 subtable" dotlessi
EndChar

StartChar: dotlessi
Encoding: 305 305 165
Width: 1000
Flags: W
LayerCount: 2
Fore
SplineSet
125 125 m 1,0,-1
 125 250 l 1,1,-1
 375 250 l 1,2,-1
 375 625 l 1,3,-1
 250 625 l 1,4,-1
 250 750 l 1,5,-1
 625 750 l 1,6,-1
 625 250 l 1,7,-1
 875 250 l 1,8,-1
 875 125 l 1,9,-1
 125 125 l 1,0,-1
EndSplineSet
Validated: 1
EndChar

StartChar: iacute
Encoding: 237 237 166
Width: 1000
Flags: W
LayerCount: 2
Fore
SplineSet
625 875 m 1,0,-1
 500 875 l 1,1,-1
 500 1000 l 1,2,-1
 625 1000 l 1,3,-1
 625 875 l 1,0,-1
500 750 m 1,4,-1
 375 750 l 1,5,-1
 375 875 l 1,6,-1
 500 875 l 1,7,-1
 500 750 l 1,4,-1
875 250 m 1,8,-1
 875 125 l 1,9,-1
 125 125 l 1,10,-1
 125 250 l 1,11,-1
 375 250 l 1,12,-1
 375 500 l 1,13,-1
 250 500 l 1,14,-1
 250 625 l 1,15,-1
 625 625 l 1,16,-1
 625 250 l 1,17,-1
 875 250 l 1,8,-1
EndSplineSet
Validated: 5
EndChar

StartChar: ibreve
Encoding: 301 301 167
Width: 1000
Flags: W
LayerCount: 2
Fore
SplineSet
250 875 m 1,0,-1
 125 875 l 1,1,-1
 125 1000 l 1,2,-1
 250 1000 l 1,3,-1
 250 875 l 1,0,-1
750 875 m 1,4,-1
 625 875 l 1,5,-1
 625 1000 l 1,6,-1
 750 1000 l 1,7,-1
 750 875 l 1,4,-1
250 750 m 1,8,-1
 250 875 l 1,9,-1
 625 875 l 1,10,-1
 625 750 l 1,11,-1
 250 750 l 1,8,-1
875 250 m 1,12,-1
 875 125 l 1,13,-1
 125 125 l 1,14,-1
 125 250 l 1,15,-1
 375 250 l 1,16,-1
 375 500 l 1,17,-1
 250 500 l 1,18,-1
 250 625 l 1,19,-1
 625 625 l 1,20,-1
 625 250 l 1,21,-1
 875 250 l 1,12,-1
EndSplineSet
Validated: 5
EndChar

StartChar: icircumflex
Encoding: 238 238 168
Width: 1000
Flags: W
LayerCount: 2
Fore
SplineSet
125 750 m 1,0,-1
 125 875 l 1,1,-1
 250 875 l 1,2,-1
 250 1000 l 1,3,-1
 625 1000 l 1,4,-1
 625 875 l 1,5,-1
 750 875 l 1,6,-1
 750 750 l 1,7,-1
 500 750 l 1,8,-1
 500 875 l 1,9,-1
 375 875 l 1,10,-1
 375 750 l 1,11,-1
 125 750 l 1,0,-1
125 125 m 1,12,-1
 125 250 l 1,13,-1
 375 250 l 1,14,-1
 375 500 l 1,15,-1
 250 500 l 1,16,-1
 250 625 l 1,17,-1
 625 625 l 1,18,-1
 625 250 l 1,19,-1
 875 250 l 1,20,-1
 875 125 l 1,21,-1
 125 125 l 1,12,-1
EndSplineSet
Validated: 1
EndChar

StartChar: idieresis
Encoding: 239 239 169
Width: 1000
Flags: W
LayerCount: 2
Fore
SplineSet
125 875 m 1,0,-1
 125 1000 l 1,1,-1
 375 1000 l 1,2,-1
 375 875 l 1,3,-1
 125 875 l 1,0,-1
500 875 m 1,4,-1
 500 1000 l 1,5,-1
 750 1000 l 1,6,-1
 750 875 l 1,7,-1
 500 875 l 1,4,-1
125 125 m 1,8,-1
 125 250 l 1,9,-1
 375 250 l 1,10,-1
 375 625 l 1,11,-1
 250 625 l 1,12,-1
 250 750 l 1,13,-1
 625 750 l 1,14,-1
 625 250 l 1,15,-1
 875 250 l 1,16,-1
 875 125 l 1,17,-1
 125 125 l 1,8,-1
EndSplineSet
Validated: 1
EndChar

StartChar: igrave
Encoding: 236 236 170
Width: 1000
Flags: W
LayerCount: 2
Fore
SplineSet
375 875 m 1,0,-1
 250 875 l 1,1,-1
 250 1000 l 1,2,-1
 375 1000 l 1,3,-1
 375 875 l 1,0,-1
375 750 m 1,4,-1
 375 875 l 1,5,-1
 500 875 l 1,6,-1
 500 750 l 1,7,-1
 375 750 l 1,4,-1
875 250 m 1,8,-1
 875 125 l 1,9,-1
 125 125 l 1,10,-1
 125 250 l 1,11,-1
 375 250 l 1,12,-1
 375 500 l 1,13,-1
 250 500 l 1,14,-1
 250 625 l 1,15,-1
 625 625 l 1,16,-1
 625 250 l 1,17,-1
 875 250 l 1,8,-1
EndSplineSet
Validated: 5
EndChar

StartChar: ij
Encoding: 307 307 171
Width: 1000
Flags: W
LayerCount: 2
Fore
SplineSet
125 875 m 1,0,-1
 125 1000 l 1,1,-1
 375 1000 l 1,2,-1
 375 875 l 1,3,-1
 125 875 l 1,0,-1
625 875 m 1,4,-1
 625 1000 l 1,5,-1
 875 1000 l 1,6,-1
 875 875 l 1,7,-1
 625 875 l 1,4,-1
125 250 m 1,8,-1
 125 625 l 1,9,-1
 0 625 l 1,10,-1
 0 750 l 1,11,-1
 375 750 l 1,12,-1
 375 250 l 1,13,-1
 125 250 l 1,8,-1
250 0 m 1,14,-1
 250 125 l 1,15,-1
 625 125 l 1,16,-1
 625 625 l 1,17,-1
 500 625 l 1,18,-1
 500 750 l 1,19,-1
 875 750 l 1,20,-1
 875 125 l 1,21,-1
 750 125 l 1,22,-1
 750 0 l 1,23,-1
 250 0 l 1,14,-1
EndSplineSet
Validated: 1
EndChar

StartChar: imacron
Encoding: 299 299 172
Width: 1000
Flags: W
LayerCount: 2
Fore
SplineSet
125 875 m 1,0,-1
 125 1000 l 1,1,-1
 750 1000 l 1,2,-1
 750 875 l 1,3,-1
 125 875 l 1,0,-1
125 125 m 1,4,-1
 125 250 l 1,5,-1
 375 250 l 1,6,-1
 375 625 l 1,7,-1
 250 625 l 1,8,-1
 250 750 l 1,9,-1
 625 750 l 1,10,-1
 625 250 l 1,11,-1
 875 250 l 1,12,-1
 875 125 l 1,13,-1
 125 125 l 1,4,-1
EndSplineSet
Validated: 1
EndChar

StartChar: iogonek
Encoding: 303 303 173
Width: 1000
Flags: W
LayerCount: 2
Fore
SplineSet
625 875 m 1,0,-1
 375 875 l 1,1,-1
 375 1000 l 1,2,-1
 625 1000 l 1,3,-1
 625 875 l 1,0,-1
875 500 m 1,4,-1
 875 375 l 1,5,-1
 500 375 l 1,6,-1
 500 250 l 1,7,-1
 375 250 l 1,8,-1
 375 375 l 1,9,-1
 125 375 l 1,10,-1
 125 500 l 1,11,-1
 375 500 l 1,12,-1
 375 625 l 1,13,-1
 250 625 l 1,14,-1
 250 750 l 1,15,-1
 625 750 l 1,16,-1
 625 500 l 1,17,-1
 875 500 l 1,4,-1
250 250 m 1,18,-1
 375 250 l 1,19,-1
 375 125 l 1,20,-1
 250 125 l 1,21,-1
 250 250 l 1,18,-1
375 0 m 1,22,-1
 375 125 l 1,23,-1
 625 125 l 1,24,-1
 625 0 l 1,25,-1
 375 0 l 1,22,-1
EndSplineSet
Validated: 5
EndChar

StartChar: itilde
Encoding: 297 297 174
Width: 1000
Flags: W
LayerCount: 2
Fore
SplineSet
500 1000 m 1,0,-1
 500 875 l 1,1,-1
 250 875 l 1,2,-1
 250 1000 l 1,3,-1
 500 1000 l 1,0,-1
875 1000 m 1,4,-1
 875 875 l 1,5,-1
 750 875 l 1,6,-1
 750 1000 l 1,7,-1
 875 1000 l 1,4,-1
125 875 m 1,8,-1
 250 875 l 1,9,-1
 250 750 l 1,10,-1
 125 750 l 1,11,-1
 125 875 l 1,8,-1
500 875 m 1,12,-1
 750 875 l 1,13,-1
 750 750 l 1,14,-1
 500 750 l 1,15,-1
 500 875 l 1,12,-1
625 250 m 1,16,-1
 875 250 l 1,17,-1
 875 125 l 1,18,-1
 125 125 l 1,19,-1
 125 250 l 1,20,-1
 375 250 l 1,21,-1
 375 500 l 1,22,-1
 250 500 l 1,23,-1
 250 625 l 1,24,-1
 625 625 l 1,25,-1
 625 250 l 1,16,-1
EndSplineSet
Validated: 5
EndChar

StartChar: j
Encoding: 106 106 175
Width: 1000
Flags: W
LayerCount: 2
Fore
SplineSet
500 875 m 1,0,-1
 500 1000 l 1,1,-1
 750 1000 l 1,2,-1
 750 875 l 1,3,-1
 500 875 l 1,0,-1
125 0 m 1,4,-1
 125 125 l 1,5,-1
 500 125 l 1,6,-1
 500 625 l 1,7,-1
 375 625 l 1,8,-1
 375 750 l 1,9,-1
 750 750 l 1,10,-1
 750 125 l 1,11,-1
 625 125 l 1,12,-1
 625 0 l 1,13,-1
 125 0 l 1,4,-1
EndSplineSet
Validated: 1
EndChar

StartChar: jcircumflex
Encoding: 309 309 176
Width: 1000
Flags: W
LayerCount: 2
Fore
SplineSet
250 750 m 1,0,-1
 250 875 l 1,1,-1
 375 875 l 1,2,-1
 375 1000 l 1,3,-1
 750 1000 l 1,4,-1
 750 875 l 1,5,-1
 875 875 l 1,6,-1
 875 750 l 1,7,-1
 625 750 l 1,8,-1
 625 875 l 1,9,-1
 500 875 l 1,10,-1
 500 750 l 1,11,-1
 250 750 l 1,0,-1
125 0 m 1,12,-1
 125 125 l 1,13,-1
 500 125 l 1,14,-1
 500 500 l 1,15,-1
 375 500 l 1,16,-1
 375 625 l 1,17,-1
 750 625 l 1,18,-1
 750 125 l 1,19,-1
 625 125 l 1,20,-1
 625 0 l 1,21,-1
 125 0 l 1,12,-1
EndSplineSet
Validated: 1
EndChar

StartChar: k
Encoding: 107 107 177
Width: 1000
Flags: W
LayerCount: 2
Fore
SplineSet
0 125 m 1,0,-1
 0 1000 l 1,1,-1
 250 1000 l 1,2,-1
 250 500 l 1,3,-1
 500 500 l 1,4,-1
 500 625 l 1,5,-1
 625 625 l 1,6,-1
 625 750 l 1,7,-1
 875 750 l 1,8,-1
 875 625 l 1,9,-1
 750 625 l 1,10,-1
 750 500 l 1,11,-1
 625 500 l 1,12,-1
 625 375 l 1,13,-1
 750 375 l 1,14,-1
 750 250 l 1,15,-1
 875 250 l 1,16,-1
 875 125 l 1,17,-1
 625 125 l 1,18,-1
 625 250 l 1,19,-1
 500 250 l 1,20,-1
 500 375 l 1,21,-1
 250 375 l 1,22,-1
 250 125 l 1,23,-1
 0 125 l 1,0,-1
EndSplineSet
Validated: 1
EndChar

StartChar: kcommaaccent
Encoding: 311 311 178
Width: 1000
Flags: W
LayerCount: 2
Fore
SplineSet
0 250 m 1,0,-1
 0 1000 l 1,1,-1
 250 1000 l 1,2,-1
 250 625 l 1,3,-1
 500 625 l 1,4,-1
 500 750 l 1,5,-1
 625 750 l 1,6,-1
 625 875 l 1,7,-1
 875 875 l 1,8,-1
 875 750 l 1,9,-1
 750 750 l 1,10,-1
 750 625 l 1,11,-1
 625 625 l 1,12,-1
 625 500 l 1,13,-1
 750 500 l 1,14,-1
 750 375 l 1,15,-1
 875 375 l 1,16,-1
 875 250 l 1,17,-1
 625 250 l 1,18,-1
 625 375 l 1,19,-1
 500 375 l 1,20,-1
 500 500 l 1,21,-1
 250 500 l 1,22,-1
 250 250 l 1,23,-1
 0 250 l 1,0,-1
125 0 m 1,24,-1
 125 125 l 1,25,-1
 250 125 l 1,26,-1
 250 250 l 1,27,-1
 500 250 l 1,28,-1
 500 125 l 1,29,-1
 375 125 l 1,30,-1
 375 0 l 1,31,-1
 125 0 l 1,24,-1
EndSplineSet
Validated: 5
EndChar

StartChar: kgreenlandic
Encoding: 312 312 179
Width: 1000
Flags: W
LayerCount: 2
Fore
SplineSet
0 125 m 1,0,-1
 0 750 l 1,1,-1
 250 750 l 1,2,-1
 250 500 l 1,3,-1
 500 500 l 1,4,-1
 500 625 l 1,5,-1
 625 625 l 1,6,-1
 625 750 l 1,7,-1
 875 750 l 1,8,-1
 875 625 l 1,9,-1
 750 625 l 1,10,-1
 750 500 l 1,11,-1
 625 500 l 1,12,-1
 625 375 l 1,13,-1
 750 375 l 1,14,-1
 750 250 l 1,15,-1
 875 250 l 1,16,-1
 875 125 l 1,17,-1
 625 125 l 1,18,-1
 625 250 l 1,19,-1
 500 250 l 1,20,-1
 500 375 l 1,21,-1
 250 375 l 1,22,-1
 250 125 l 1,23,-1
 0 125 l 1,0,-1
EndSplineSet
Validated: 1
EndChar

StartChar: l
Encoding: 108 108 180
Width: 1000
Flags: W
LayerCount: 2
Fore
SplineSet
125 125 m 1,0,-1
 125 250 l 1,1,-1
 375 250 l 1,2,-1
 375 875 l 1,3,-1
 250 875 l 1,4,-1
 250 1000 l 1,5,-1
 625 1000 l 1,6,-1
 625 250 l 1,7,-1
 875 250 l 1,8,-1
 875 125 l 1,9,-1
 125 125 l 1,0,-1
EndSplineSet
Validated: 1
EndChar

StartChar: lacute
Encoding: 314 314 181
Width: 1000
Flags: W
LayerCount: 2
Fore
SplineSet
500 875 m 1,0,-1
 375 875 l 1,1,-1
 375 1000 l 1,2,-1
 500 1000 l 1,3,-1
 500 875 l 1,0,-1
750 250 m 1,4,-1
 750 125 l 1,5,-1
 0 125 l 1,6,-1
 0 250 l 1,7,-1
 250 250 l 1,8,-1
 250 625 l 1,9,-1
 125 625 l 1,10,-1
 125 750 l 1,11,-1
 250 750 l 1,12,-1
 250 875 l 1,13,-1
 375 875 l 1,14,-1
 375 750 l 1,15,-1
 500 750 l 1,16,-1
 500 250 l 1,17,-1
 750 250 l 1,4,-1
EndSplineSet
Validated: 5
EndChar

StartChar: lcaron
Encoding: 318 318 182
Width: 1000
Flags: W
LayerCount: 2
Fore
SplineSet
0 125 m 1,0,-1
 0 250 l 1,1,-1
 250 250 l 1,2,-1
 250 875 l 1,3,-1
 125 875 l 1,4,-1
 125 1000 l 1,5,-1
 500 1000 l 1,6,-1
 500 250 l 1,7,-1
 750 250 l 1,8,-1
 750 125 l 1,9,-1
 0 125 l 1,0,-1
625 625 m 1,10,-1
 625 1000 l 1,11,-1
 875 1000 l 1,12,-1
 875 750 l 1,13,-1
 750 750 l 1,14,-1
 750 625 l 1,15,-1
 625 625 l 1,10,-1
EndSplineSet
Validated: 1
EndChar

StartChar: lcommaaccent
Encoding: 316 316 183
Width: 1000
Flags: W
LayerCount: 2
Fore
SplineSet
250 0 m 1,0,-1
 250 125 l 1,1,-1
 375 125 l 1,2,-1
 375 250 l 1,3,-1
 125 250 l 1,4,-1
 125 375 l 1,5,-1
 375 375 l 1,6,-1
 375 875 l 1,7,-1
 250 875 l 1,8,-1
 250 1000 l 1,9,-1
 625 1000 l 1,10,-1
 625 375 l 1,11,-1
 875 375 l 1,12,-1
 875 250 l 1,13,-1
 625 250 l 1,14,-1
 625 125 l 1,15,-1
 500 125 l 1,16,-1
 500 0 l 1,17,-1
 250 0 l 1,0,-1
EndSplineSet
Validated: 1
EndChar

StartChar: ldot
Encoding: 320 320 184
Width: 1000
Flags: W
LayerCount: 2
Fore
SplineSet
0 125 m 1,0,-1
 0 250 l 1,1,-1
 250 250 l 1,2,-1
 250 875 l 1,3,-1
 125 875 l 1,4,-1
 125 1000 l 1,5,-1
 500 1000 l 1,6,-1
 500 250 l 1,7,-1
 750 250 l 1,8,-1
 750 125 l 1,9,-1
 0 125 l 1,0,-1
625 500 m 1,10,-1
 625 750 l 1,11,-1
 875 750 l 1,12,-1
 875 500 l 1,13,-1
 625 500 l 1,10,-1
EndSplineSet
Validated: 1
Ligature2: "Ligature Substitution lookup 9 subtable" l periodcentered
EndChar

StartChar: lslash
Encoding: 322 322 185
Width: 1000
Flags: W
LayerCount: 2
Fore
SplineSet
125 125 m 1,0,-1
 125 250 l 1,1,-1
 375 250 l 1,2,-1
 375 500 l 1,3,-1
 250 500 l 1,4,-1
 250 625 l 1,5,-1
 375 625 l 1,6,-1
 375 875 l 1,7,-1
 250 875 l 1,8,-1
 250 1000 l 1,9,-1
 625 1000 l 1,10,-1
 625 750 l 1,11,-1
 750 750 l 1,12,-1
 750 625 l 1,13,-1
 625 625 l 1,14,-1
 625 250 l 1,15,-1
 875 250 l 1,16,-1
 875 125 l 1,17,-1
 125 125 l 1,0,-1
EndSplineSet
Validated: 1
EndChar

StartChar: m
Encoding: 109 109 186
Width: 1000
Flags: W
LayerCount: 2
Fore
SplineSet
0 125 m 1,0,-1
 0 750 l 1,1,-1
 750 750 l 1,2,-1
 750 625 l 1,3,-1
 875 625 l 1,4,-1
 875 125 l 1,5,-1
 625 125 l 1,6,-1
 625 625 l 1,7,-1
 500 625 l 1,8,-1
 500 125 l 1,9,-1
 250 125 l 1,10,-1
 250 625 l 1,11,-1
 125 625 l 1,12,-1
 125 125 l 1,13,-1
 0 125 l 1,0,-1
EndSplineSet
Validated: 1
EndChar

StartChar: n
Encoding: 110 110 187
Width: 1000
Flags: W
LayerCount: 2
Fore
SplineSet
0 125 m 1,0,-1
 0 750 l 1,1,-1
 750 750 l 1,2,-1
 750 625 l 1,3,-1
 875 625 l 1,4,-1
 875 125 l 1,5,-1
 625 125 l 1,6,-1
 625 625 l 1,7,-1
 250 625 l 1,8,-1
 250 125 l 1,9,-1
 0 125 l 1,0,-1
EndSplineSet
Validated: 1
EndChar

StartChar: nacute
Encoding: 324 324 188
Width: 1000
Flags: W
LayerCount: 2
Fore
SplineSet
625 875 m 1,0,-1
 500 875 l 1,1,-1
 500 1000 l 1,2,-1
 625 1000 l 1,3,-1
 625 875 l 1,0,-1
875 625 m 1,4,-1
 875 125 l 1,5,-1
 625 125 l 1,6,-1
 625 625 l 1,7,-1
 250 625 l 1,8,-1
 250 125 l 1,9,-1
 0 125 l 1,10,-1
 0 750 l 1,11,-1
 375 750 l 1,12,-1
 375 875 l 1,13,-1
 500 875 l 1,14,-1
 500 750 l 1,15,-1
 750 750 l 1,16,-1
 750 625 l 1,17,-1
 875 625 l 1,4,-1
EndSplineSet
Validated: 5
EndChar

StartChar: ncaron
Encoding: 328 328 189
Width: 1000
Flags: W
LayerCount: 2
Fore
SplineSet
0 125 m 1,0,-1
 0 750 l 1,1,-1
 250 750 l 1,2,-1
 250 875 l 1,3,-1
 125 875 l 1,4,-1
 125 1000 l 1,5,-1
 375 1000 l 1,6,-1
 375 875 l 1,7,-1
 500 875 l 1,8,-1
 500 1000 l 1,9,-1
 750 1000 l 1,10,-1
 750 875 l 1,11,-1
 625 875 l 1,12,-1
 625 750 l 1,13,-1
 750 750 l 1,14,-1
 750 625 l 1,15,-1
 875 625 l 1,16,-1
 875 125 l 1,17,-1
 625 125 l 1,18,-1
 625 625 l 1,19,-1
 250 625 l 1,20,-1
 250 125 l 1,21,-1
 0 125 l 1,0,-1
EndSplineSet
Validated: 1
EndChar

StartChar: ncommaaccent
Encoding: 326 326 190
Width: 1000
Flags: W
LayerCount: 2
Fore
SplineSet
875 750 m 1,0,-1
 875 250 l 1,1,-1
 625 250 l 1,2,-1
 625 750 l 1,3,-1
 250 750 l 1,4,-1
 250 250 l 1,5,-1
 0 250 l 1,6,-1
 0 875 l 1,7,-1
 750 875 l 1,8,-1
 750 750 l 1,9,-1
 875 750 l 1,0,-1
375 250 m 1,10,-1
 625 250 l 1,11,-1
 625 125 l 1,12,-1
 500 125 l 1,13,-1
 500 0 l 1,14,-1
 250 0 l 1,15,-1
 250 125 l 1,16,-1
 375 125 l 1,17,-1
 375 250 l 1,10,-1
EndSplineSet
Validated: 5
EndChar

StartChar: eng
Encoding: 331 331 191
Width: 1000
Flags: W
LayerCount: 2
Fore
SplineSet
250 0 m 1,0,-1
 250 125 l 1,1,-1
 625 125 l 1,2,-1
 625 750 l 1,3,-1
 250 750 l 1,4,-1
 250 250 l 1,5,-1
 0 250 l 1,6,-1
 0 875 l 1,7,-1
 750 875 l 1,8,-1
 750 750 l 1,9,-1
 875 750 l 1,10,-1
 875 125 l 1,11,-1
 750 125 l 1,12,-1
 750 0 l 1,13,-1
 250 0 l 1,0,-1
EndSplineSet
Validated: 1
EndChar

StartChar: ntilde
Encoding: 241 241 192
Width: 1000
Flags: W
LayerCount: 2
Fore
SplineSet
0 125 m 1,0,-1
 0 750 l 1,1,-1
 125 750 l 1,2,-1
 125 875 l 1,3,-1
 250 875 l 1,4,-1
 250 1000 l 1,5,-1
 500 1000 l 1,6,-1
 500 875 l 1,7,-1
 625 875 l 1,8,-1
 625 1000 l 1,9,-1
 750 1000 l 1,10,-1
 750 875 l 1,11,-1
 625 875 l 1,12,-1
 625 750 l 1,13,-1
 750 750 l 1,14,-1
 750 625 l 1,15,-1
 875 625 l 1,16,-1
 875 125 l 1,17,-1
 625 125 l 1,18,-1
 625 625 l 1,19,-1
 250 625 l 1,20,-1
 250 125 l 1,21,-1
 0 125 l 1,0,-1
250 750 m 1,22,-1
 375 750 l 1,23,-1
 375 875 l 1,24,-1
 250 875 l 1,25,-1
 250 750 l 1,22,-1
EndSplineSet
Validated: 5
EndChar

StartChar: o
Encoding: 111 111 193
Width: 1000
Flags: W
LayerCount: 2
Fore
SplineSet
125 125 m 1,0,-1
 125 250 l 1,1,-1
 0 250 l 1,2,-1
 0 625 l 1,3,-1
 125 625 l 1,4,-1
 125 750 l 1,5,-1
 750 750 l 1,6,-1
 750 625 l 1,7,-1
 875 625 l 1,8,-1
 875 250 l 1,9,-1
 750 250 l 1,10,-1
 750 125 l 1,11,-1
 125 125 l 1,0,-1
250 250 m 1,12,-1
 625 250 l 1,13,-1
 625 625 l 1,14,-1
 250 625 l 1,15,-1
 250 250 l 1,12,-1
EndSplineSet
Validated: 1
Substitution2: "Single Substitution lookup 10 subtable" ordmasculine
Substitution2: "'aalt' Access All Alternates in Latin lookup 0 subtable" ordmasculine
EndChar

StartChar: oacute
Encoding: 243 243 194
Width: 1000
Flags: W
LayerCount: 2
Fore
SplineSet
625 875 m 1,0,-1
 500 875 l 1,1,-1
 500 1000 l 1,2,-1
 625 1000 l 1,3,-1
 625 875 l 1,0,-1
875 625 m 1,4,-1
 875 250 l 1,5,-1
 750 250 l 1,6,-1
 750 125 l 1,7,-1
 125 125 l 1,8,-1
 125 250 l 1,9,-1
 0 250 l 1,10,-1
 0 625 l 1,11,-1
 125 625 l 1,12,-1
 125 750 l 1,13,-1
 375 750 l 1,14,-1
 375 875 l 1,15,-1
 500 875 l 1,16,-1
 500 750 l 1,17,-1
 750 750 l 1,18,-1
 750 625 l 1,19,-1
 875 625 l 1,4,-1
625 625 m 1,20,-1
 250 625 l 1,21,-1
 250 250 l 1,22,-1
 625 250 l 1,23,-1
 625 625 l 1,20,-1
EndSplineSet
Validated: 5
EndChar

StartChar: obreve
Encoding: 335 335 195
Width: 1000
Flags: W
LayerCount: 2
Fore
SplineSet
250 1000 m 1,0,-1
 250 875 l 1,1,-1
 125 875 l 1,2,-1
 125 1000 l 1,3,-1
 250 1000 l 1,0,-1
750 875 m 1,4,-1
 625 875 l 1,5,-1
 625 1000 l 1,6,-1
 750 1000 l 1,7,-1
 750 875 l 1,4,-1
875 625 m 1,8,-1
 875 250 l 1,9,-1
 750 250 l 1,10,-1
 750 125 l 1,11,-1
 125 125 l 1,12,-1
 125 250 l 1,13,-1
 0 250 l 1,14,-1
 0 625 l 1,15,-1
 125 625 l 1,16,-1
 125 750 l 1,17,-1
 250 750 l 1,18,-1
 250 875 l 1,19,-1
 625 875 l 1,20,-1
 625 750 l 1,21,-1
 750 750 l 1,22,-1
 750 625 l 1,23,-1
 875 625 l 1,8,-1
625 625 m 1,24,-1
 250 625 l 1,25,-1
 250 250 l 1,26,-1
 625 250 l 1,27,-1
 625 625 l 1,24,-1
EndSplineSet
Validated: 5
EndChar

StartChar: ocircumflex
Encoding: 244 244 196
Width: 1000
Flags: W
LayerCount: 2
Fore
SplineSet
125 125 m 1,0,-1
 125 250 l 1,1,-1
 0 250 l 1,2,-1
 0 625 l 1,3,-1
 125 625 l 1,4,-1
 125 875 l 1,5,-1
 250 875 l 1,6,-1
 250 1000 l 1,7,-1
 625 1000 l 1,8,-1
 625 875 l 1,9,-1
 750 875 l 1,10,-1
 750 625 l 1,11,-1
 875 625 l 1,12,-1
 875 250 l 1,13,-1
 750 250 l 1,14,-1
 750 125 l 1,15,-1
 125 125 l 1,0,-1
375 750 m 1,16,-1
 500 750 l 1,17,-1
 500 875 l 1,18,-1
 375 875 l 1,19,-1
 375 750 l 1,16,-1
250 250 m 1,20,-1
 625 250 l 1,21,-1
 625 625 l 1,22,-1
 250 625 l 1,23,-1
 250 250 l 1,20,-1
EndSplineSet
Validated: 1
EndChar

StartChar: odieresis
Encoding: 246 246 197
Width: 1000
Flags: W
LayerCount: 2
Fore
SplineSet
125 875 m 1,0,-1
 125 1000 l 1,1,-1
 375 1000 l 1,2,-1
 375 875 l 1,3,-1
 125 875 l 1,0,-1
500 875 m 1,4,-1
 500 1000 l 1,5,-1
 750 1000 l 1,6,-1
 750 875 l 1,7,-1
 500 875 l 1,4,-1
125 125 m 1,8,-1
 125 250 l 1,9,-1
 0 250 l 1,10,-1
 0 625 l 1,11,-1
 125 625 l 1,12,-1
 125 750 l 1,13,-1
 750 750 l 1,14,-1
 750 625 l 1,15,-1
 875 625 l 1,16,-1
 875 250 l 1,17,-1
 750 250 l 1,18,-1
 750 125 l 1,19,-1
 125 125 l 1,8,-1
250 250 m 1,20,-1
 625 250 l 1,21,-1
 625 625 l 1,22,-1
 250 625 l 1,23,-1
 250 250 l 1,20,-1
EndSplineSet
Validated: 1
EndChar

StartChar: ograve
Encoding: 242 242 198
Width: 1000
Flags: W
LayerCount: 2
Fore
SplineSet
375 1000 m 1,0,-1
 375 875 l 1,1,-1
 250 875 l 1,2,-1
 250 1000 l 1,3,-1
 375 1000 l 1,0,-1
875 625 m 1,4,-1
 875 250 l 1,5,-1
 750 250 l 1,6,-1
 750 125 l 1,7,-1
 125 125 l 1,8,-1
 125 250 l 1,9,-1
 0 250 l 1,10,-1
 0 625 l 1,11,-1
 125 625 l 1,12,-1
 125 750 l 1,13,-1
 375 750 l 1,14,-1
 375 875 l 1,15,-1
 500 875 l 1,16,-1
 500 750 l 1,17,-1
 750 750 l 1,18,-1
 750 625 l 1,19,-1
 875 625 l 1,4,-1
625 625 m 1,20,-1
 250 625 l 1,21,-1
 250 250 l 1,22,-1
 625 250 l 1,23,-1
 625 625 l 1,20,-1
EndSplineSet
Validated: 5
EndChar

StartChar: ohungarumlaut
Encoding: 337 337 199
Width: 1000
Flags: W
LayerCount: 2
Fore
SplineSet
375 875 m 1,0,-1
 250 875 l 1,1,-1
 250 1000 l 1,2,-1
 375 1000 l 1,3,-1
 375 875 l 1,0,-1
750 875 m 1,4,-1
 625 875 l 1,5,-1
 625 1000 l 1,6,-1
 750 1000 l 1,7,-1
 750 875 l 1,4,-1
875 625 m 1,8,-1
 875 250 l 1,9,-1
 750 250 l 1,10,-1
 750 125 l 1,11,-1
 125 125 l 1,12,-1
 125 250 l 1,13,-1
 0 250 l 1,14,-1
 0 625 l 1,15,-1
 125 625 l 1,16,-1
 125 875 l 1,17,-1
 250 875 l 1,18,-1
 250 750 l 1,19,-1
 500 750 l 1,20,-1
 500 875 l 1,21,-1
 625 875 l 1,22,-1
 625 750 l 1,23,-1
 750 750 l 1,24,-1
 750 625 l 1,25,-1
 875 625 l 1,8,-1
625 625 m 1,26,-1
 250 625 l 1,27,-1
 250 250 l 1,28,-1
 625 250 l 1,29,-1
 625 625 l 1,26,-1
EndSplineSet
Validated: 5
EndChar

StartChar: omacron
Encoding: 333 333 200
Width: 1000
Flags: W
LayerCount: 2
Fore
SplineSet
125 875 m 1,0,-1
 125 1000 l 1,1,-1
 750 1000 l 1,2,-1
 750 875 l 1,3,-1
 125 875 l 1,0,-1
125 125 m 1,4,-1
 125 250 l 1,5,-1
 0 250 l 1,6,-1
 0 625 l 1,7,-1
 125 625 l 1,8,-1
 125 750 l 1,9,-1
 750 750 l 1,10,-1
 750 625 l 1,11,-1
 875 625 l 1,12,-1
 875 250 l 1,13,-1
 750 250 l 1,14,-1
 750 125 l 1,15,-1
 125 125 l 1,4,-1
250 250 m 1,16,-1
 625 250 l 1,17,-1
 625 625 l 1,18,-1
 250 625 l 1,19,-1
 250 250 l 1,16,-1
EndSplineSet
Validated: 1
EndChar

StartChar: oslash
Encoding: 248 248 201
Width: 1000
Flags: W
LayerCount: 2
Fore
SplineSet
125 125 m 1,0,-1
 125 250 l 1,1,-1
 0 250 l 1,2,-1
 0 625 l 1,3,-1
 125 625 l 1,4,-1
 125 750 l 1,5,-1
 750 750 l 1,6,-1
 750 625 l 1,7,-1
 875 625 l 1,8,-1
 875 250 l 1,9,-1
 750 250 l 1,10,-1
 750 125 l 1,11,-1
 125 125 l 1,0,-1
375 250 m 1,12,-1
 625 250 l 1,13,-1
 625 500 l 1,14,-1
 500 500 l 1,15,-1
 500 625 l 1,16,-1
 250 625 l 1,17,-1
 250 375 l 1,18,-1
 375 375 l 1,19,-1
 375 250 l 1,12,-1
375 375 m 1,20,-1
 375 500 l 1,21,-1
 500 500 l 1,22,-1
 500 375 l 1,23,-1
 375 375 l 1,20,-1
EndSplineSet
Validated: 5
EndChar

StartChar: otilde
Encoding: 245 245 202
Width: 1000
Flags: W
LayerCount: 2
Fore
SplineSet
125 125 m 1,0,-1
 125 250 l 1,1,-1
 0 250 l 1,2,-1
 0 625 l 1,3,-1
 125 625 l 1,4,-1
 125 875 l 1,5,-1
 250 875 l 1,6,-1
 250 1000 l 1,7,-1
 500 1000 l 1,8,-1
 500 875 l 1,9,-1
 625 875 l 1,10,-1
 625 1000 l 1,11,-1
 750 1000 l 1,12,-1
 750 875 l 1,13,-1
 625 875 l 1,14,-1
 625 750 l 1,15,-1
 750 750 l 1,16,-1
 750 625 l 1,17,-1
 875 625 l 1,18,-1
 875 250 l 1,19,-1
 750 250 l 1,20,-1
 750 125 l 1,21,-1
 125 125 l 1,0,-1
250 750 m 1,22,-1
 375 750 l 1,23,-1
 375 875 l 1,24,-1
 250 875 l 1,25,-1
 250 750 l 1,22,-1
250 250 m 1,26,-1
 625 250 l 1,27,-1
 625 625 l 1,28,-1
 250 625 l 1,29,-1
 250 250 l 1,26,-1
EndSplineSet
Validated: 5
EndChar

StartChar: oe
Encoding: 339 339 203
Width: 1000
Flags: W
LayerCount: 2
Fore
SplineSet
125 125 m 1,0,-1
 125 250 l 1,1,-1
 0 250 l 1,2,-1
 0 625 l 1,3,-1
 125 625 l 1,4,-1
 125 750 l 1,5,-1
 750 750 l 1,6,-1
 750 625 l 1,7,-1
 875 625 l 1,8,-1
 875 375 l 1,9,-1
 500 375 l 1,10,-1
 500 250 l 1,11,-1
 750 250 l 1,12,-1
 750 125 l 1,13,-1
 125 125 l 1,0,-1
250 250 m 1,14,-1
 375 250 l 1,15,-1
 375 625 l 1,16,-1
 250 625 l 1,17,-1
 250 250 l 1,14,-1
500 500 m 1,18,-1
 625 500 l 1,19,-1
 625 625 l 1,20,-1
 500 625 l 1,21,-1
 500 500 l 1,18,-1
EndSplineSet
Validated: 1
EndChar

StartChar: p
Encoding: 112 112 204
Width: 1000
Flags: W
LayerCount: 2
Fore
SplineSet
0 0 m 1,0,-1
 0 750 l 1,1,-1
 750 750 l 1,2,-1
 750 625 l 1,3,-1
 875 625 l 1,4,-1
 875 375 l 1,5,-1
 750 375 l 1,6,-1
 750 250 l 1,7,-1
 250 250 l 1,8,-1
 250 0 l 1,9,-1
 0 0 l 1,0,-1
250 375 m 1,10,-1
 625 375 l 1,11,-1
 625 625 l 1,12,-1
 250 625 l 1,13,-1
 250 375 l 1,10,-1
EndSplineSet
Validated: 1
EndChar

StartChar: thorn
Encoding: 254 254 205
Width: 1000
Flags: W
LayerCount: 2
Fore
SplineSet
0 0 m 1,0,-1
 0 1000 l 1,1,-1
 250 1000 l 1,2,-1
 250 750 l 1,3,-1
 750 750 l 1,4,-1
 750 625 l 1,5,-1
 875 625 l 1,6,-1
 875 375 l 1,7,-1
 750 375 l 1,8,-1
 750 250 l 1,9,-1
 250 250 l 1,10,-1
 250 0 l 1,11,-1
 0 0 l 1,0,-1
250 375 m 1,12,-1
 625 375 l 1,13,-1
 625 625 l 1,14,-1
 250 625 l 1,15,-1
 250 375 l 1,12,-1
EndSplineSet
Validated: 1
EndChar

StartChar: q
Encoding: 113 113 206
Width: 1000
Flags: W
LayerCount: 2
Fore
SplineSet
625 0 m 1,0,-1
 625 250 l 1,1,-1
 125 250 l 1,2,-1
 125 375 l 1,3,-1
 0 375 l 1,4,-1
 0 625 l 1,5,-1
 125 625 l 1,6,-1
 125 750 l 1,7,-1
 875 750 l 1,8,-1
 875 0 l 1,9,-1
 625 0 l 1,0,-1
250 375 m 1,10,-1
 625 375 l 1,11,-1
 625 625 l 1,12,-1
 250 625 l 1,13,-1
 250 375 l 1,10,-1
EndSplineSet
Validated: 1
EndChar

StartChar: r
Encoding: 114 114 207
Width: 1000
Flags: W
LayerCount: 2
Fore
SplineSet
375 625 m 1,0,-1
 500 625 l 1,1,-1
 500 500 l 1,2,-1
 375 500 l 1,3,-1
 375 125 l 1,4,-1
 125 125 l 1,5,-1
 125 750 l 1,6,-1
 375 750 l 1,7,-1
 375 625 l 1,0,-1
875 750 m 1,8,-1
 875 625 l 1,9,-1
 500 625 l 1,10,-1
 500 750 l 1,11,-1
 875 750 l 1,8,-1
EndSplineSet
Validated: 5
EndChar

StartChar: racute
Encoding: 341 341 208
Width: 1000
Flags: W
LayerCount: 2
Fore
SplineSet
625 875 m 1,0,-1
 500 875 l 1,1,-1
 500 1000 l 1,2,-1
 625 1000 l 1,3,-1
 625 875 l 1,0,-1
500 750 m 1,4,-1
 375 750 l 1,5,-1
 375 875 l 1,6,-1
 500 875 l 1,7,-1
 500 750 l 1,4,-1
375 625 m 1,8,-1
 500 625 l 1,9,-1
 500 500 l 1,10,-1
 375 500 l 1,11,-1
 375 125 l 1,12,-1
 125 125 l 1,13,-1
 125 750 l 1,14,-1
 375 750 l 1,15,-1
 375 625 l 1,8,-1
875 750 m 1,16,-1
 875 625 l 1,17,-1
 500 625 l 1,18,-1
 500 750 l 1,19,-1
 875 750 l 1,16,-1
EndSplineSet
Validated: 5
EndChar

StartChar: rcaron
Encoding: 345 345 209
Width: 1000
Flags: W
LayerCount: 2
Fore
SplineSet
125 125 m 1,0,-1
 125 750 l 1,1,-1
 375 750 l 1,2,-1
 375 875 l 1,3,-1
 250 875 l 1,4,-1
 250 1000 l 1,5,-1
 500 1000 l 1,6,-1
 500 875 l 1,7,-1
 625 875 l 1,8,-1
 625 1000 l 1,9,-1
 875 1000 l 1,10,-1
 875 875 l 1,11,-1
 750 875 l 1,12,-1
 750 750 l 1,13,-1
 875 750 l 1,14,-1
 875 625 l 1,15,-1
 500 625 l 1,16,-1
 500 500 l 1,17,-1
 375 500 l 1,18,-1
 375 125 l 1,19,-1
 125 125 l 1,0,-1
375 625 m 1,20,-1
 500 625 l 1,21,-1
 500 750 l 1,22,-1
 375 750 l 1,23,-1
 375 625 l 1,20,-1
EndSplineSet
Validated: 5
EndChar

StartChar: rcommaaccent
Encoding: 343 343 210
Width: 1000
Flags: W
LayerCount: 2
Fore
SplineSet
375 750 m 1,0,-1
 500 750 l 1,1,-1
 500 625 l 1,2,-1
 375 625 l 1,3,-1
 375 250 l 1,4,-1
 500 250 l 1,5,-1
 500 125 l 1,6,-1
 375 125 l 1,7,-1
 375 0 l 1,8,-1
 125 0 l 1,9,-1
 125 125 l 1,10,-1
 250 125 l 1,11,-1
 250 250 l 1,12,-1
 125 250 l 1,13,-1
 125 875 l 1,14,-1
 375 875 l 1,15,-1
 375 750 l 1,0,-1
875 875 m 1,16,-1
 875 750 l 1,17,-1
 500 750 l 1,18,-1
 500 875 l 1,19,-1
 875 875 l 1,16,-1
EndSplineSet
Validated: 5
EndChar

StartChar: s
Encoding: 115 115 211
Width: 1000
Flags: W
LayerCount: 2
Fore
SplineSet
0 125 m 1,0,-1
 0 250 l 1,1,-1
 625 250 l 1,2,-1
 625 375 l 1,3,-1
 125 375 l 1,4,-1
 125 500 l 1,5,-1
 0 500 l 1,6,-1
 0 625 l 1,7,-1
 125 625 l 1,8,-1
 125 750 l 1,9,-1
 750 750 l 1,10,-1
 750 625 l 1,11,-1
 250 625 l 1,12,-1
 250 500 l 1,13,-1
 750 500 l 1,14,-1
 750 375 l 1,15,-1
 875 375 l 1,16,-1
 875 250 l 1,17,-1
 750 250 l 1,18,-1
 750 125 l 1,19,-1
 0 125 l 1,0,-1
EndSplineSet
Validated: 1
EndChar

StartChar: sacute
Encoding: 347 347 212
Width: 1000
Flags: W
LayerCount: 2
Fore
SplineSet
625 875 m 1,0,-1
 500 875 l 1,1,-1
 500 1000 l 1,2,-1
 625 1000 l 1,3,-1
 625 875 l 1,0,-1
875 375 m 1,4,-1
 875 250 l 1,5,-1
 750 250 l 1,6,-1
 750 125 l 1,7,-1
 0 125 l 1,8,-1
 0 250 l 1,9,-1
 625 250 l 1,10,-1
 625 375 l 1,11,-1
 125 375 l 1,12,-1
 125 500 l 1,13,-1
 0 500 l 1,14,-1
 0 625 l 1,15,-1
 125 625 l 1,16,-1
 125 750 l 1,17,-1
 375 750 l 1,18,-1
 375 875 l 1,19,-1
 500 875 l 1,20,-1
 500 750 l 1,21,-1
 750 750 l 1,22,-1
 750 625 l 1,23,-1
 250 625 l 1,24,-1
 250 500 l 1,25,-1
 750 500 l 1,26,-1
 750 375 l 1,27,-1
 875 375 l 1,4,-1
EndSplineSet
Validated: 5
EndChar

StartChar: scaron
Encoding: 353 353 213
Width: 1000
Flags: W
LayerCount: 2
Fore
SplineSet
0 125 m 1,0,-1
 0 250 l 1,1,-1
 625 250 l 1,2,-1
 625 375 l 1,3,-1
 125 375 l 1,4,-1
 125 500 l 1,5,-1
 0 500 l 1,6,-1
 0 625 l 1,7,-1
 125 625 l 1,8,-1
 125 750 l 1,9,-1
 250 750 l 1,10,-1
 250 875 l 1,11,-1
 125 875 l 1,12,-1
 125 1000 l 1,13,-1
 375 1000 l 1,14,-1
 375 875 l 1,15,-1
 500 875 l 1,16,-1
 500 1000 l 1,17,-1
 750 1000 l 1,18,-1
 750 875 l 1,19,-1
 625 875 l 1,20,-1
 625 750 l 1,21,-1
 750 750 l 1,22,-1
 750 625 l 1,23,-1
 250 625 l 1,24,-1
 250 500 l 1,25,-1
 750 500 l 1,26,-1
 750 375 l 1,27,-1
 875 375 l 1,28,-1
 875 250 l 1,29,-1
 750 250 l 1,30,-1
 750 125 l 1,31,-1
 0 125 l 1,0,-1
EndSplineSet
Validated: 1
EndChar

StartChar: scedilla
Encoding: 351 351 214
Width: 1000
Flags: W
LayerCount: 2
Fore
SplineSet
875 500 m 1,0,-1
 875 375 l 1,1,-1
 750 375 l 1,2,-1
 750 250 l 1,3,-1
 625 250 l 1,4,-1
 625 125 l 1,5,-1
 500 125 l 1,6,-1
 500 250 l 1,7,-1
 0 250 l 1,8,-1
 0 375 l 1,9,-1
 625 375 l 1,10,-1
 625 500 l 1,11,-1
 125 500 l 1,12,-1
 125 625 l 1,13,-1
 0 625 l 1,14,-1
 0 750 l 1,15,-1
 125 750 l 1,16,-1
 125 875 l 1,17,-1
 750 875 l 1,18,-1
 750 750 l 1,19,-1
 250 750 l 1,20,-1
 250 625 l 1,21,-1
 750 625 l 1,22,-1
 750 500 l 1,23,-1
 875 500 l 1,0,-1
250 125 m 1,24,-1
 500 125 l 1,25,-1
 500 0 l 1,26,-1
 250 0 l 1,27,-1
 250 125 l 1,24,-1
EndSplineSet
Validated: 5
EndChar

StartChar: scircumflex
Encoding: 349 349 215
Width: 1000
Flags: W
LayerCount: 2
Fore
SplineSet
0 125 m 1,0,-1
 0 250 l 1,1,-1
 625 250 l 1,2,-1
 625 375 l 1,3,-1
 125 375 l 1,4,-1
 125 500 l 1,5,-1
 0 500 l 1,6,-1
 0 625 l 1,7,-1
 125 625 l 1,8,-1
 125 875 l 1,9,-1
 250 875 l 1,10,-1
 250 1000 l 1,11,-1
 625 1000 l 1,12,-1
 625 875 l 1,13,-1
 750 875 l 1,14,-1
 750 625 l 1,15,-1
 250 625 l 1,16,-1
 250 500 l 1,17,-1
 750 500 l 1,18,-1
 750 375 l 1,19,-1
 875 375 l 1,20,-1
 875 250 l 1,21,-1
 750 250 l 1,22,-1
 750 125 l 1,23,-1
 0 125 l 1,0,-1
375 750 m 1,24,-1
 500 750 l 1,25,-1
 500 875 l 1,26,-1
 375 875 l 1,27,-1
 375 750 l 1,24,-1
EndSplineSet
Validated: 1
EndChar

StartChar: germandbls
Encoding: 223 223 216
Width: 1000
Flags: W
LayerCount: 2
Fore
SplineSet
875 875 m 1,0,-1
 875 625 l 1,1,-1
 750 625 l 1,2,-1
 750 500 l 1,3,-1
 875 500 l 1,4,-1
 875 250 l 1,5,-1
 750 250 l 1,6,-1
 750 125 l 1,7,-1
 500 125 l 1,8,-1
 500 250 l 1,9,-1
 625 250 l 1,10,-1
 625 500 l 1,11,-1
 500 500 l 1,12,-1
 500 625 l 1,13,-1
 625 625 l 1,14,-1
 625 875 l 1,15,-1
 375 875 l 1,16,-1
 375 375 l 1,17,-1
 500 375 l 1,18,-1
 500 250 l 1,19,-1
 375 250 l 1,20,-1
 375 125 l 1,21,-1
 125 125 l 1,22,-1
 125 875 l 1,23,-1
 250 875 l 1,24,-1
 250 1000 l 1,25,-1
 750 1000 l 1,26,-1
 750 875 l 1,27,-1
 875 875 l 1,0,-1
EndSplineSet
Validated: 5
EndChar

StartChar: longs
Encoding: 383 383 217
Width: 1000
Flags: W
LayerCount: 2
Fore
SplineSet
375 125 m 1,0,-1
 375 875 l 1,1,-1
 500 875 l 1,2,-1
 500 1000 l 1,3,-1
 875 1000 l 1,4,-1
 875 875 l 1,5,-1
 625 875 l 1,6,-1
 625 125 l 1,7,-1
 375 125 l 1,0,-1
EndSplineSet
Validated: 1
EndChar

StartChar: t
Encoding: 116 116 218
Width: 1000
Flags: W
LayerCount: 2
Fore
SplineSet
375 125 m 1,0,-1
 375 625 l 1,1,-1
 125 625 l 1,2,-1
 125 750 l 1,3,-1
 375 750 l 1,4,-1
 375 1000 l 1,5,-1
 625 1000 l 1,6,-1
 625 750 l 1,7,-1
 875 750 l 1,8,-1
 875 625 l 1,9,-1
 625 625 l 1,10,-1
 625 125 l 1,11,-1
 375 125 l 1,0,-1
EndSplineSet
Validated: 1
EndChar

StartChar: tbar
Encoding: 359 359 219
Width: 1000
Flags: W
LayerCount: 2
Fore
SplineSet
375 125 m 1,0,-1
 375 250 l 1,1,-1
 250 250 l 1,2,-1
 250 375 l 1,3,-1
 375 375 l 1,4,-1
 375 625 l 1,5,-1
 125 625 l 1,6,-1
 125 750 l 1,7,-1
 375 750 l 1,8,-1
 375 1000 l 1,9,-1
 625 1000 l 1,10,-1
 625 750 l 1,11,-1
 875 750 l 1,12,-1
 875 625 l 1,13,-1
 625 625 l 1,14,-1
 625 500 l 1,15,-1
 750 500 l 1,16,-1
 750 375 l 1,17,-1
 625 375 l 1,18,-1
 625 125 l 1,19,-1
 375 125 l 1,0,-1
EndSplineSet
Validated: 1
EndChar

StartChar: tcaron
Encoding: 357 357 220
Width: 1000
Flags: W
LayerCount: 2
Fore
SplineSet
375 1000 m 1,0,-1
 375 875 l 1,1,-1
 250 875 l 1,2,-1
 250 1000 l 1,3,-1
 375 1000 l 1,0,-1
750 875 m 1,4,-1
 625 875 l 1,5,-1
 625 1000 l 1,6,-1
 750 1000 l 1,7,-1
 750 875 l 1,4,-1
875 625 m 1,8,-1
 875 500 l 1,9,-1
 625 500 l 1,10,-1
 625 125 l 1,11,-1
 375 125 l 1,12,-1
 375 500 l 1,13,-1
 125 500 l 1,14,-1
 125 625 l 1,15,-1
 375 625 l 1,16,-1
 375 875 l 1,17,-1
 625 875 l 1,18,-1
 625 625 l 1,19,-1
 875 625 l 1,8,-1
EndSplineSet
Validated: 5
EndChar

StartChar: uni021B
Encoding: 539 539 221
Width: 1000
Flags: W
LayerCount: 2
Fore
SplineSet
875 750 m 1,0,-1
 875 625 l 1,1,-1
 625 625 l 1,2,-1
 625 125 l 1,3,-1
 500 125 l 1,4,-1
 500 250 l 1,5,-1
 375 250 l 1,6,-1
 375 625 l 1,7,-1
 125 625 l 1,8,-1
 125 750 l 1,9,-1
 375 750 l 1,10,-1
 375 1000 l 1,11,-1
 625 1000 l 1,12,-1
 625 750 l 1,13,-1
 875 750 l 1,0,-1
250 125 m 1,14,-1
 500 125 l 1,15,-1
 500 0 l 1,16,-1
 250 0 l 1,17,-1
 250 125 l 1,14,-1
EndSplineSet
Validated: 5
EndChar

StartChar: u
Encoding: 117 117 222
Width: 1000
Flags: W
LayerCount: 2
Fore
SplineSet
125 125 m 1,0,-1
 125 250 l 1,1,-1
 0 250 l 1,2,-1
 0 750 l 1,3,-1
 250 750 l 1,4,-1
 250 250 l 1,5,-1
 625 250 l 1,6,-1
 625 750 l 1,7,-1
 875 750 l 1,8,-1
 875 125 l 1,9,-1
 125 125 l 1,0,-1
EndSplineSet
Validated: 1
EndChar

StartChar: uacute
Encoding: 250 250 223
Width: 1000
Flags: W
LayerCount: 2
Fore
SplineSet
625 875 m 1,0,-1
 500 875 l 1,1,-1
 500 1000 l 1,2,-1
 625 1000 l 1,3,-1
 625 875 l 1,0,-1
500 750 m 1,4,-1
 375 750 l 1,5,-1
 375 875 l 1,6,-1
 500 875 l 1,7,-1
 500 750 l 1,4,-1
875 750 m 1,8,-1
 875 125 l 1,9,-1
 125 125 l 1,10,-1
 125 250 l 1,11,-1
 0 250 l 1,12,-1
 0 750 l 1,13,-1
 250 750 l 1,14,-1
 250 250 l 1,15,-1
 625 250 l 1,16,-1
 625 750 l 1,17,-1
 875 750 l 1,8,-1
EndSplineSet
Validated: 5
EndChar

StartChar: ubreve
Encoding: 365 365 224
Width: 1000
Flags: W
LayerCount: 2
Fore
SplineSet
250 1000 m 1,0,-1
 250 875 l 1,1,-1
 125 875 l 1,2,-1
 125 1000 l 1,3,-1
 250 1000 l 1,0,-1
750 875 m 1,4,-1
 625 875 l 1,5,-1
 625 1000 l 1,6,-1
 750 1000 l 1,7,-1
 750 875 l 1,4,-1
625 750 m 1,8,-1
 250 750 l 1,9,-1
 250 875 l 1,10,-1
 625 875 l 1,11,-1
 625 750 l 1,8,-1
875 750 m 1,12,-1
 875 125 l 1,13,-1
 125 125 l 1,14,-1
 125 250 l 1,15,-1
 0 250 l 1,16,-1
 0 750 l 1,17,-1
 250 750 l 1,18,-1
 250 250 l 1,19,-1
 625 250 l 1,20,-1
 625 750 l 1,21,-1
 875 750 l 1,12,-1
EndSplineSet
Validated: 5
EndChar

StartChar: ucircumflex
Encoding: 251 251 225
Width: 1000
Flags: W
LayerCount: 2
Fore
SplineSet
125 750 m 1,0,-1
 125 875 l 1,1,-1
 250 875 l 1,2,-1
 250 1000 l 1,3,-1
 625 1000 l 1,4,-1
 625 875 l 1,5,-1
 750 875 l 1,6,-1
 750 750 l 1,7,-1
 500 750 l 1,8,-1
 500 875 l 1,9,-1
 375 875 l 1,10,-1
 375 750 l 1,11,-1
 125 750 l 1,0,-1
125 125 m 1,12,-1
 125 250 l 1,13,-1
 0 250 l 1,14,-1
 0 625 l 1,15,-1
 250 625 l 1,16,-1
 250 250 l 1,17,-1
 625 250 l 1,18,-1
 625 625 l 1,19,-1
 875 625 l 1,20,-1
 875 125 l 1,21,-1
 125 125 l 1,12,-1
EndSplineSet
Validated: 1
EndChar

StartChar: udieresis
Encoding: 252 252 226
Width: 1000
Flags: W
LayerCount: 2
Fore
SplineSet
125 875 m 1,0,-1
 125 1000 l 1,1,-1
 375 1000 l 1,2,-1
 375 875 l 1,3,-1
 125 875 l 1,0,-1
500 875 m 1,4,-1
 500 1000 l 1,5,-1
 750 1000 l 1,6,-1
 750 875 l 1,7,-1
 500 875 l 1,4,-1
125 125 m 1,8,-1
 125 250 l 1,9,-1
 0 250 l 1,10,-1
 0 750 l 1,11,-1
 250 750 l 1,12,-1
 250 250 l 1,13,-1
 625 250 l 1,14,-1
 625 750 l 1,15,-1
 875 750 l 1,16,-1
 875 125 l 1,17,-1
 125 125 l 1,8,-1
EndSplineSet
Validated: 1
EndChar

StartChar: ugrave
Encoding: 249 249 227
Width: 1000
Flags: W
LayerCount: 2
Fore
SplineSet
375 875 m 1,0,-1
 250 875 l 1,1,-1
 250 1000 l 1,2,-1
 375 1000 l 1,3,-1
 375 875 l 1,0,-1
375 750 m 1,4,-1
 375 875 l 1,5,-1
 500 875 l 1,6,-1
 500 750 l 1,7,-1
 375 750 l 1,4,-1
875 750 m 1,8,-1
 875 125 l 1,9,-1
 125 125 l 1,10,-1
 125 250 l 1,11,-1
 0 250 l 1,12,-1
 0 750 l 1,13,-1
 250 750 l 1,14,-1
 250 250 l 1,15,-1
 625 250 l 1,16,-1
 625 750 l 1,17,-1
 875 750 l 1,8,-1
EndSplineSet
Validated: 5
EndChar

StartChar: uhungarumlaut
Encoding: 369 369 228
Width: 1000
Flags: W
LayerCount: 2
Fore
SplineSet
375 875 m 1,0,-1
 250 875 l 1,1,-1
 250 1000 l 1,2,-1
 375 1000 l 1,3,-1
 375 875 l 1,0,-1
750 875 m 1,4,-1
 625 875 l 1,5,-1
 625 1000 l 1,6,-1
 750 1000 l 1,7,-1
 750 875 l 1,4,-1
875 750 m 1,8,-1
 875 125 l 1,9,-1
 125 125 l 1,10,-1
 125 250 l 1,11,-1
 0 250 l 1,12,-1
 0 750 l 1,13,-1
 125 750 l 1,14,-1
 125 875 l 1,15,-1
 250 875 l 1,16,-1
 250 250 l 1,17,-1
 625 250 l 1,18,-1
 625 750 l 1,19,-1
 875 750 l 1,8,-1
625 875 m 1,20,-1
 625 750 l 1,21,-1
 500 750 l 1,22,-1
 500 875 l 1,23,-1
 625 875 l 1,20,-1
EndSplineSet
Validated: 5
EndChar

StartChar: umacron
Encoding: 363 363 229
Width: 1000
Flags: W
LayerCount: 2
Fore
SplineSet
125 875 m 1,0,-1
 125 1000 l 1,1,-1
 750 1000 l 1,2,-1
 750 875 l 1,3,-1
 125 875 l 1,0,-1
125 125 m 1,4,-1
 125 250 l 1,5,-1
 0 250 l 1,6,-1
 0 750 l 1,7,-1
 250 750 l 1,8,-1
 250 250 l 1,9,-1
 625 250 l 1,10,-1
 625 750 l 1,11,-1
 875 750 l 1,12,-1
 875 125 l 1,13,-1
 125 125 l 1,4,-1
EndSplineSet
Validated: 1
EndChar

StartChar: uogonek
Encoding: 371 371 230
Width: 1000
Flags: W
LayerCount: 2
Fore
SplineSet
875 1000 m 1,0,-1
 875 375 l 1,1,-1
 500 375 l 1,2,-1
 500 250 l 1,3,-1
 375 250 l 1,4,-1
 375 375 l 1,5,-1
 125 375 l 1,6,-1
 125 500 l 1,7,-1
 0 500 l 1,8,-1
 0 1000 l 1,9,-1
 250 1000 l 1,10,-1
 250 500 l 1,11,-1
 625 500 l 1,12,-1
 625 1000 l 1,13,-1
 875 1000 l 1,0,-1
250 250 m 1,14,-1
 375 250 l 1,15,-1
 375 125 l 1,16,-1
 250 125 l 1,17,-1
 250 250 l 1,14,-1
375 0 m 1,18,-1
 375 125 l 1,19,-1
 625 125 l 1,20,-1
 625 0 l 1,21,-1
 375 0 l 1,18,-1
EndSplineSet
Validated: 5
EndChar

StartChar: uring
Encoding: 367 367 231
Width: 1000
Flags: W
LayerCount: 2
Fore
SplineSet
125 125 m 1,0,-1
 125 250 l 1,1,-1
 0 250 l 1,2,-1
 0 750 l 1,3,-1
 125 750 l 1,4,-1
 125 875 l 1,5,-1
 250 875 l 1,6,-1
 250 1000 l 1,7,-1
 625 1000 l 1,8,-1
 625 875 l 1,9,-1
 750 875 l 1,10,-1
 750 750 l 1,11,-1
 875 750 l 1,12,-1
 875 125 l 1,13,-1
 125 125 l 1,0,-1
375 750 m 1,14,-1
 500 750 l 1,15,-1
 500 875 l 1,16,-1
 375 875 l 1,17,-1
 375 750 l 1,14,-1
250 250 m 1,18,-1
 625 250 l 1,19,-1
 625 625 l 1,20,-1
 750 625 l 1,21,-1
 750 750 l 1,22,-1
 625 750 l 1,23,-1
 625 625 l 1,24,-1
 250 625 l 1,25,-1
 250 750 l 1,26,-1
 125 750 l 1,27,-1
 125 625 l 1,28,-1
 250 625 l 1,29,-1
 250 250 l 1,18,-1
EndSplineSet
Validated: 5
EndChar

StartChar: utilde
Encoding: 361 361 232
Width: 1000
Flags: W
LayerCount: 2
Fore
SplineSet
375 875 m 1,0,-1
 250 875 l 1,1,-1
 250 1000 l 1,2,-1
 500 1000 l 1,3,-1
 500 875 l 1,4,-1
 625 875 l 1,5,-1
 625 750 l 1,6,-1
 375 750 l 1,7,-1
 375 875 l 1,0,-1
750 875 m 1,8,-1
 625 875 l 1,9,-1
 625 1000 l 1,10,-1
 750 1000 l 1,11,-1
 750 875 l 1,8,-1
875 750 m 1,12,-1
 875 125 l 1,13,-1
 125 125 l 1,14,-1
 125 250 l 1,15,-1
 0 250 l 1,16,-1
 0 750 l 1,17,-1
 125 750 l 1,18,-1
 125 875 l 1,19,-1
 250 875 l 1,20,-1
 250 250 l 1,21,-1
 625 250 l 1,22,-1
 625 750 l 1,23,-1
 875 750 l 1,12,-1
EndSplineSet
Validated: 5
EndChar

StartChar: v
Encoding: 118 118 233
Width: 1000
Flags: W
LayerCount: 2
Fore
SplineSet
375 125 m 1,0,-1
 375 250 l 1,1,-1
 250 250 l 1,2,-1
 250 375 l 1,3,-1
 125 375 l 1,4,-1
 125 750 l 1,5,-1
 375 750 l 1,6,-1
 375 375 l 1,7,-1
 625 375 l 1,8,-1
 625 750 l 1,9,-1
 875 750 l 1,10,-1
 875 375 l 1,11,-1
 750 375 l 1,12,-1
 750 250 l 1,13,-1
 625 250 l 1,14,-1
 625 125 l 1,15,-1
 375 125 l 1,0,-1
EndSplineSet
Validated: 1
EndChar

StartChar: w
Encoding: 119 119 234
Width: 1000
Flags: W
LayerCount: 2
Fore
SplineSet
250 250 m 1,0,-1
 375 250 l 1,1,-1
 375 125 l 1,2,-1
 125 125 l 1,3,-1
 125 250 l 1,4,-1
 0 250 l 1,5,-1
 0 750 l 1,6,-1
 250 750 l 1,7,-1
 250 250 l 1,0,-1
500 750 m 1,8,-1
 500 250 l 1,9,-1
 375 250 l 1,10,-1
 375 750 l 1,11,-1
 500 750 l 1,8,-1
875 750 m 1,12,-1
 875 250 l 1,13,-1
 750 250 l 1,14,-1
 750 125 l 1,15,-1
 500 125 l 1,16,-1
 500 250 l 1,17,-1
 625 250 l 1,18,-1
 625 750 l 1,19,-1
 875 750 l 1,12,-1
EndSplineSet
Validated: 5
EndChar

StartChar: wcircumflex
Encoding: 373 373 235
Width: 1000
Flags: W
LayerCount: 2
Fore
SplineSet
375 750 m 1,0,-1
 125 750 l 1,1,-1
 125 875 l 1,2,-1
 250 875 l 1,3,-1
 250 1000 l 1,4,-1
 625 1000 l 1,5,-1
 625 875 l 1,6,-1
 750 875 l 1,7,-1
 750 750 l 1,8,-1
 500 750 l 1,9,-1
 500 875 l 1,10,-1
 375 875 l 1,11,-1
 375 750 l 1,0,-1
250 250 m 1,12,-1
 375 250 l 1,13,-1
 375 125 l 1,14,-1
 125 125 l 1,15,-1
 125 250 l 1,16,-1
 0 250 l 1,17,-1
 0 625 l 1,18,-1
 250 625 l 1,19,-1
 250 250 l 1,12,-1
500 625 m 1,20,-1
 500 250 l 1,21,-1
 375 250 l 1,22,-1
 375 625 l 1,23,-1
 500 625 l 1,20,-1
875 625 m 1,24,-1
 875 250 l 1,25,-1
 750 250 l 1,26,-1
 750 125 l 1,27,-1
 500 125 l 1,28,-1
 500 250 l 1,29,-1
 625 250 l 1,30,-1
 625 625 l 1,31,-1
 875 625 l 1,24,-1
EndSplineSet
Validated: 5
EndChar

StartChar: x
Encoding: 120 120 236
Width: 1000
Flags: W
LayerCount: 2
Fore
SplineSet
0 125 m 1,0,-1
 0 250 l 1,1,-1
 125 250 l 1,2,-1
 125 375 l 1,3,-1
 250 375 l 1,4,-1
 250 500 l 1,5,-1
 125 500 l 1,6,-1
 125 625 l 1,7,-1
 0 625 l 1,8,-1
 0 750 l 1,9,-1
 250 750 l 1,10,-1
 250 625 l 1,11,-1
 375 625 l 1,12,-1
 375 500 l 1,13,-1
 500 500 l 1,14,-1
 500 625 l 1,15,-1
 625 625 l 1,16,-1
 625 750 l 1,17,-1
 875 750 l 1,18,-1
 875 625 l 1,19,-1
 750 625 l 1,20,-1
 750 500 l 1,21,-1
 625 500 l 1,22,-1
 625 375 l 1,23,-1
 750 375 l 1,24,-1
 750 250 l 1,25,-1
 875 250 l 1,26,-1
 875 125 l 1,27,-1
 625 125 l 1,28,-1
 625 250 l 1,29,-1
 500 250 l 1,30,-1
 500 375 l 1,31,-1
 375 375 l 1,32,-1
 375 250 l 1,33,-1
 250 250 l 1,34,-1
 250 125 l 1,35,-1
 0 125 l 1,0,-1
EndSplineSet
Validated: 1
EndChar

StartChar: y
Encoding: 121 121 237
Width: 1000
Flags: W
LayerCount: 2
Fore
SplineSet
125 0 m 1,0,-1
 125 125 l 1,1,-1
 625 125 l 1,2,-1
 625 250 l 1,3,-1
 125 250 l 1,4,-1
 125 375 l 1,5,-1
 0 375 l 1,6,-1
 0 750 l 1,7,-1
 250 750 l 1,8,-1
 250 375 l 1,9,-1
 625 375 l 1,10,-1
 625 750 l 1,11,-1
 875 750 l 1,12,-1
 875 125 l 1,13,-1
 750 125 l 1,14,-1
 750 0 l 1,15,-1
 125 0 l 1,0,-1
EndSplineSet
Validated: 1
EndChar

StartChar: yacute
Encoding: 253 253 238
Width: 1000
Flags: W
LayerCount: 2
Fore
SplineSet
625 875 m 1,0,-1
 500 875 l 1,1,-1
 500 1000 l 1,2,-1
 625 1000 l 1,3,-1
 625 875 l 1,0,-1
500 750 m 1,4,-1
 375 750 l 1,5,-1
 375 875 l 1,6,-1
 500 875 l 1,7,-1
 500 750 l 1,4,-1
875 750 m 1,8,-1
 875 125 l 1,9,-1
 750 125 l 1,10,-1
 750 0 l 1,11,-1
 125 0 l 1,12,-1
 125 125 l 1,13,-1
 625 125 l 1,14,-1
 625 250 l 1,15,-1
 125 250 l 1,16,-1
 125 375 l 1,17,-1
 0 375 l 1,18,-1
 0 750 l 1,19,-1
 250 750 l 1,20,-1
 250 375 l 1,21,-1
 625 375 l 1,22,-1
 625 750 l 1,23,-1
 875 750 l 1,8,-1
EndSplineSet
Validated: 5
EndChar

StartChar: ycircumflex
Encoding: 375 375 239
Width: 1000
Flags: W
LayerCount: 2
Fore
SplineSet
125 750 m 1,0,-1
 125 875 l 1,1,-1
 250 875 l 1,2,-1
 250 1000 l 1,3,-1
 625 1000 l 1,4,-1
 625 875 l 1,5,-1
 750 875 l 1,6,-1
 750 750 l 1,7,-1
 500 750 l 1,8,-1
 500 875 l 1,9,-1
 375 875 l 1,10,-1
 375 750 l 1,11,-1
 125 750 l 1,0,-1
125 0 m 1,12,-1
 125 125 l 1,13,-1
 625 125 l 1,14,-1
 625 250 l 1,15,-1
 125 250 l 1,16,-1
 125 375 l 1,17,-1
 0 375 l 1,18,-1
 0 625 l 1,19,-1
 250 625 l 1,20,-1
 250 375 l 1,21,-1
 625 375 l 1,22,-1
 625 625 l 1,23,-1
 875 625 l 1,24,-1
 875 125 l 1,25,-1
 750 125 l 1,26,-1
 750 0 l 1,27,-1
 125 0 l 1,12,-1
EndSplineSet
Validated: 1
EndChar

StartChar: ydieresis
Encoding: 255 255 240
Width: 1000
Flags: W
LayerCount: 2
Fore
SplineSet
125 875 m 1,0,-1
 125 1000 l 1,1,-1
 375 1000 l 1,2,-1
 375 875 l 1,3,-1
 125 875 l 1,0,-1
500 875 m 1,4,-1
 500 1000 l 1,5,-1
 750 1000 l 1,6,-1
 750 875 l 1,7,-1
 500 875 l 1,4,-1
125 0 m 1,8,-1
 125 125 l 1,9,-1
 625 125 l 1,10,-1
 625 250 l 1,11,-1
 125 250 l 1,12,-1
 125 375 l 1,13,-1
 0 375 l 1,14,-1
 0 750 l 1,15,-1
 250 750 l 1,16,-1
 250 375 l 1,17,-1
 625 375 l 1,18,-1
 625 750 l 1,19,-1
 875 750 l 1,20,-1
 875 125 l 1,21,-1
 750 125 l 1,22,-1
 750 0 l 1,23,-1
 125 0 l 1,8,-1
EndSplineSet
Validated: 1
EndChar

StartChar: z
Encoding: 122 122 241
Width: 1000
Flags: W
LayerCount: 2
Fore
SplineSet
0 125 m 1,0,-1
 0 250 l 1,1,-1
 125 250 l 1,2,-1
 125 375 l 1,3,-1
 250 375 l 1,4,-1
 250 500 l 1,5,-1
 375 500 l 1,6,-1
 375 625 l 1,7,-1
 0 625 l 1,8,-1
 0 750 l 1,9,-1
 875 750 l 1,10,-1
 875 625 l 1,11,-1
 750 625 l 1,12,-1
 750 500 l 1,13,-1
 625 500 l 1,14,-1
 625 375 l 1,15,-1
 500 375 l 1,16,-1
 500 250 l 1,17,-1
 875 250 l 1,18,-1
 875 125 l 1,19,-1
 0 125 l 1,0,-1
EndSplineSet
Validated: 1
EndChar

StartChar: zacute
Encoding: 378 378 242
Width: 1000
Flags: W
LayerCount: 2
Fore
SplineSet
625 875 m 1,0,-1
 500 875 l 1,1,-1
 500 1000 l 1,2,-1
 625 1000 l 1,3,-1
 625 875 l 1,0,-1
875 750 m 1,4,-1
 875 625 l 1,5,-1
 750 625 l 1,6,-1
 750 500 l 1,7,-1
 625 500 l 1,8,-1
 625 375 l 1,9,-1
 500 375 l 1,10,-1
 500 250 l 1,11,-1
 875 250 l 1,12,-1
 875 125 l 1,13,-1
 0 125 l 1,14,-1
 0 250 l 1,15,-1
 125 250 l 1,16,-1
 125 375 l 1,17,-1
 250 375 l 1,18,-1
 250 500 l 1,19,-1
 375 500 l 1,20,-1
 375 625 l 1,21,-1
 0 625 l 1,22,-1
 0 750 l 1,23,-1
 375 750 l 1,24,-1
 375 875 l 1,25,-1
 500 875 l 1,26,-1
 500 750 l 1,27,-1
 875 750 l 1,4,-1
EndSplineSet
Validated: 5
EndChar

StartChar: zcaron
Encoding: 382 382 243
Width: 1000
Flags: W
LayerCount: 2
Fore
SplineSet
0 125 m 1,0,-1
 0 250 l 1,1,-1
 125 250 l 1,2,-1
 125 375 l 1,3,-1
 250 375 l 1,4,-1
 250 500 l 1,5,-1
 375 500 l 1,6,-1
 375 625 l 1,7,-1
 0 625 l 1,8,-1
 0 750 l 1,9,-1
 250 750 l 1,10,-1
 250 875 l 1,11,-1
 125 875 l 1,12,-1
 125 1000 l 1,13,-1
 375 1000 l 1,14,-1
 375 875 l 1,15,-1
 500 875 l 1,16,-1
 500 1000 l 1,17,-1
 750 1000 l 1,18,-1
 750 875 l 1,19,-1
 625 875 l 1,20,-1
 625 750 l 1,21,-1
 875 750 l 1,22,-1
 875 625 l 1,23,-1
 750 625 l 1,24,-1
 750 500 l 1,25,-1
 625 500 l 1,26,-1
 625 375 l 1,27,-1
 500 375 l 1,28,-1
 500 250 l 1,29,-1
 875 250 l 1,30,-1
 875 125 l 1,31,-1
 0 125 l 1,0,-1
EndSplineSet
Validated: 1
EndChar

StartChar: zdotaccent
Encoding: 380 380 244
Width: 1000
Flags: W
LayerCount: 2
Fore
SplineSet
375 875 m 1,0,-1
 375 1000 l 1,1,-1
 625 1000 l 1,2,-1
 625 875 l 1,3,-1
 375 875 l 1,0,-1
0 125 m 1,4,-1
 0 250 l 1,5,-1
 125 250 l 1,6,-1
 125 375 l 1,7,-1
 250 375 l 1,8,-1
 250 500 l 1,9,-1
 375 500 l 1,10,-1
 375 625 l 1,11,-1
 0 625 l 1,12,-1
 0 750 l 1,13,-1
 875 750 l 1,14,-1
 875 625 l 1,15,-1
 750 625 l 1,16,-1
 750 500 l 1,17,-1
 625 500 l 1,18,-1
 625 375 l 1,19,-1
 500 375 l 1,20,-1
 500 250 l 1,21,-1
 875 250 l 1,22,-1
 875 125 l 1,23,-1
 0 125 l 1,4,-1
EndSplineSet
Validated: 1
EndChar

StartChar: fi
Encoding: 64257 64257 245
Width: 1000
Flags: W
LayerCount: 2
Fore
SplineSet
125 125 m 1,0,-1
 125 625 l 1,1,-1
 0 625 l 1,2,-1
 0 750 l 1,3,-1
 125 750 l 1,4,-1
 125 875 l 1,5,-1
 250 875 l 1,6,-1
 250 1000 l 1,7,-1
 625 1000 l 1,8,-1
 625 875 l 1,9,-1
 375 875 l 1,10,-1
 375 750 l 1,11,-1
 875 750 l 1,12,-1
 875 125 l 1,13,-1
 625 125 l 1,14,-1
 625 625 l 1,15,-1
 375 625 l 1,16,-1
 375 125 l 1,17,-1
 125 125 l 1,0,-1
EndSplineSet
Validated: 1
Ligature2: "'liga' Standard Ligatures in Latin lookup 7 subtable" f i
EndChar

StartChar: fl
Encoding: 64258 64258 246
Width: 1000
Flags: W
LayerCount: 2
Fore
SplineSet
125 125 m 1,0,-1
 125 625 l 1,1,-1
 0 625 l 1,2,-1
 0 750 l 1,3,-1
 125 750 l 1,4,-1
 125 875 l 1,5,-1
 250 875 l 1,6,-1
 250 1000 l 1,7,-1
 875 1000 l 1,8,-1
 875 125 l 1,9,-1
 625 125 l 1,10,-1
 625 625 l 1,11,-1
 375 625 l 1,12,-1
 375 125 l 1,13,-1
 125 125 l 1,0,-1
375 750 m 1,14,-1
 625 750 l 1,15,-1
 625 875 l 1,16,-1
 375 875 l 1,17,-1
 375 750 l 1,14,-1
EndSplineSet
Validated: 1
Ligature2: "'liga' Standard Ligatures in Latin lookup 7 subtable" f l
EndChar

StartChar: ordfeminine
Encoding: 170 170 247
Width: 1000
Flags: W
LayerCount: 2
Fore
SplineSet
250 500 m 1,0,-1
 250 625 l 1,1,-1
 125 625 l 1,2,-1
 125 750 l 1,3,-1
 250 750 l 1,4,-1
 250 875 l 1,5,-1
 125 875 l 1,6,-1
 125 1000 l 1,7,-1
 625 1000 l 1,8,-1
 625 875 l 1,9,-1
 750 875 l 1,10,-1
 750 500 l 1,11,-1
 250 500 l 1,0,-1
375 625 m 1,12,-1
 500 625 l 1,13,-1
 500 750 l 1,14,-1
 375 750 l 1,15,-1
 375 625 l 1,12,-1
EndSplineSet
Validated: 1
EndChar

StartChar: ordmasculine
Encoding: 186 186 248
Width: 1000
Flags: W
LayerCount: 2
Fore
SplineSet
250 500 m 1,0,-1
 250 625 l 1,1,-1
 125 625 l 1,2,-1
 125 875 l 1,3,-1
 250 875 l 1,4,-1
 250 1000 l 1,5,-1
 625 1000 l 1,6,-1
 625 875 l 1,7,-1
 750 875 l 1,8,-1
 750 625 l 1,9,-1
 625 625 l 1,10,-1
 625 500 l 1,11,-1
 250 500 l 1,0,-1
375 625 m 1,12,-1
 500 625 l 1,13,-1
 500 875 l 1,14,-1
 375 875 l 1,15,-1
 375 625 l 1,12,-1
EndSplineSet
Validated: 1
EndChar

StartChar: uni0410
Encoding: 1040 1040 249
Width: 1000
Flags: W
LayerCount: 2
Fore
SplineSet
0 125 m 1,0,-1
 0 750 l 1,1,-1
 125 750 l 1,2,-1
 125 875 l 1,3,-1
 250 875 l 1,4,-1
 250 1000 l 1,5,-1
 625 1000 l 1,6,-1
 625 875 l 1,7,-1
 750 875 l 1,8,-1
 750 750 l 1,9,-1
 875 750 l 1,10,-1
 875 125 l 1,11,-1
 625 125 l 1,12,-1
 625 375 l 1,13,-1
 250 375 l 1,14,-1
 250 125 l 1,15,-1
 0 125 l 1,0,-1
250 500 m 1,16,-1
 625 500 l 1,17,-1
 625 750 l 1,18,-1
 500 750 l 1,19,-1
 500 875 l 1,20,-1
 375 875 l 1,21,-1
 375 750 l 1,22,-1
 250 750 l 1,23,-1
 250 500 l 1,16,-1
EndSplineSet
Validated: 1
EndChar

StartChar: uni0411
Encoding: 1041 1041 250
Width: 1000
Flags: W
LayerCount: 2
Fore
SplineSet
0 125 m 1,0,-1
 0 1000 l 1,1,-1
 750 1000 l 1,2,-1
 750 875 l 1,3,-1
 250 875 l 1,4,-1
 250 625 l 1,5,-1
 750 625 l 1,6,-1
 750 500 l 1,7,-1
 875 500 l 1,8,-1
 875 250 l 1,9,-1
 750 250 l 1,10,-1
 750 125 l 1,11,-1
 0 125 l 1,0,-1
250 250 m 1,12,-1
 625 250 l 1,13,-1
 625 500 l 1,14,-1
 250 500 l 1,15,-1
 250 250 l 1,12,-1
EndSplineSet
Validated: 1
EndChar

StartChar: uni0412
Encoding: 1042 1042 251
Width: 1000
Flags: W
LayerCount: 2
Fore
SplineSet
0 125 m 1,0,-1
 0 1000 l 1,1,-1
 750 1000 l 1,2,-1
 750 875 l 1,3,-1
 875 875 l 1,4,-1
 875 625 l 1,5,-1
 750 625 l 1,6,-1
 750 500 l 1,7,-1
 875 500 l 1,8,-1
 875 250 l 1,9,-1
 750 250 l 1,10,-1
 750 125 l 1,11,-1
 0 125 l 1,0,-1
250 625 m 1,12,-1
 625 625 l 1,13,-1
 625 875 l 1,14,-1
 250 875 l 1,15,-1
 250 625 l 1,12,-1
250 250 m 1,16,-1
 625 250 l 1,17,-1
 625 500 l 1,18,-1
 250 500 l 1,19,-1
 250 250 l 1,16,-1
EndSplineSet
Validated: 1
EndChar

StartChar: uni0413
Encoding: 1043 1043 252
Width: 1000
Flags: W
LayerCount: 2
Fore
SplineSet
125 125 m 1,0,-1
 125 1000 l 1,1,-1
 875 1000 l 1,2,-1
 875 750 l 1,3,-1
 750 750 l 1,4,-1
 750 875 l 1,5,-1
 375 875 l 1,6,-1
 375 125 l 1,7,-1
 125 125 l 1,0,-1
EndSplineSet
Validated: 1
EndChar

StartChar: uni0403
Encoding: 1027 1027 253
Width: 1000
Flags: W
LayerCount: 2
Fore
SplineSet
625 875 m 1,0,-1
 500 875 l 1,1,-1
 500 1000 l 1,2,-1
 625 1000 l 1,3,-1
 625 875 l 1,0,-1
875 750 m 1,4,-1
 875 500 l 1,5,-1
 750 500 l 1,6,-1
 750 625 l 1,7,-1
 375 625 l 1,8,-1
 375 125 l 1,9,-1
 125 125 l 1,10,-1
 125 750 l 1,11,-1
 375 750 l 1,12,-1
 375 875 l 1,13,-1
 500 875 l 1,14,-1
 500 750 l 1,15,-1
 875 750 l 1,4,-1
EndSplineSet
Validated: 5
EndChar

StartChar: uni0490
Encoding: 1168 1168 254
Width: 1000
Flags: W
LayerCount: 2
Fore
SplineSet
625 1000 m 1,0,-1
 875 1000 l 1,1,-1
 875 750 l 1,2,-1
 375 750 l 1,3,-1
 375 125 l 1,4,-1
 125 125 l 1,5,-1
 125 875 l 1,6,-1
 625 875 l 1,7,-1
 625 1000 l 1,0,-1
EndSplineSet
Validated: 1
EndChar

StartChar: uni0414
Encoding: 1044 1044 255
Width: 1000
Flags: W
LayerCount: 2
Fore
SplineSet
0 0 m 1,0,-1
 0 250 l 1,1,-1
 125 250 l 1,2,-1
 125 500 l 1,3,-1
 250 500 l 1,4,-1
 250 1000 l 1,5,-1
 875 1000 l 1,6,-1
 875 250 l 1,7,-1
 1000 250 l 1,8,-1
 1000 0 l 1,9,-1
 750 0 l 1,10,-1
 750 125 l 1,11,-1
 250 125 l 1,12,-1
 250 0 l 1,13,-1
 0 0 l 1,0,-1
375 250 m 1,14,-1
 625 250 l 1,15,-1
 625 875 l 1,16,-1
 375 875 l 1,17,-1
 375 250 l 1,14,-1
EndSplineSet
Validated: 1
EndChar

StartChar: uni0415
Encoding: 1045 1045 256
Width: 1000
Flags: W
LayerCount: 2
Fore
SplineSet
0 125 m 1,0,-1
 0 1000 l 1,1,-1
 875 1000 l 1,2,-1
 875 875 l 1,3,-1
 250 875 l 1,4,-1
 250 625 l 1,5,-1
 750 625 l 1,6,-1
 750 500 l 1,7,-1
 250 500 l 1,8,-1
 250 250 l 1,9,-1
 875 250 l 1,10,-1
 875 125 l 1,11,-1
 0 125 l 1,0,-1
EndSplineSet
Validated: 1
EndChar

StartChar: uni0400
Encoding: 1024 1024 257
Width: 1000
Flags: W
LayerCount: 2
Fore
SplineSet
375 1000 m 1,0,-1
 375 875 l 1,1,-1
 250 875 l 1,2,-1
 250 1000 l 1,3,-1
 375 1000 l 1,0,-1
875 750 m 1,4,-1
 875 625 l 1,5,-1
 250 625 l 1,6,-1
 250 500 l 1,7,-1
 750 500 l 1,8,-1
 750 375 l 1,9,-1
 250 375 l 1,10,-1
 250 250 l 1,11,-1
 875 250 l 1,12,-1
 875 125 l 1,13,-1
 0 125 l 1,14,-1
 0 750 l 1,15,-1
 375 750 l 1,16,-1
 375 875 l 1,17,-1
 500 875 l 1,18,-1
 500 750 l 1,19,-1
 875 750 l 1,4,-1
EndSplineSet
Validated: 5
EndChar

StartChar: uni0401
Encoding: 1025 1025 258
Width: 1000
Flags: W
LayerCount: 2
Fore
SplineSet
125 875 m 1,0,-1
 125 1000 l 1,1,-1
 375 1000 l 1,2,-1
 375 875 l 1,3,-1
 125 875 l 1,0,-1
500 875 m 1,4,-1
 500 1000 l 1,5,-1
 750 1000 l 1,6,-1
 750 875 l 1,7,-1
 500 875 l 1,4,-1
0 125 m 1,8,-1
 0 750 l 1,9,-1
 875 750 l 1,10,-1
 875 625 l 1,11,-1
 250 625 l 1,12,-1
 250 500 l 1,13,-1
 750 500 l 1,14,-1
 750 375 l 1,15,-1
 250 375 l 1,16,-1
 250 250 l 1,17,-1
 875 250 l 1,18,-1
 875 125 l 1,19,-1
 0 125 l 1,8,-1
EndSplineSet
Validated: 1
EndChar

StartChar: uni0416
Encoding: 1046 1046 259
Width: 1000
Flags: W
LayerCount: 2
Fore
SplineSet
250 1000 m 1,0,-1
 250 625 l 1,1,-1
 125 625 l 1,2,-1
 125 750 l 1,3,-1
 0 750 l 1,4,-1
 0 1000 l 1,5,-1
 250 1000 l 1,0,-1
500 625 m 1,6,-1
 625 625 l 1,7,-1
 625 500 l 1,8,-1
 500 500 l 1,9,-1
 500 125 l 1,10,-1
 375 125 l 1,11,-1
 375 500 l 1,12,-1
 250 500 l 1,13,-1
 250 625 l 1,14,-1
 375 625 l 1,15,-1
 375 1000 l 1,16,-1
 500 1000 l 1,17,-1
 500 625 l 1,6,-1
875 1000 m 1,18,-1
 875 750 l 1,19,-1
 750 750 l 1,20,-1
 750 625 l 1,21,-1
 625 625 l 1,22,-1
 625 1000 l 1,23,-1
 875 1000 l 1,18,-1
125 500 m 1,24,-1
 250 500 l 1,25,-1
 250 125 l 1,26,-1
 0 125 l 1,27,-1
 0 375 l 1,28,-1
 125 375 l 1,29,-1
 125 500 l 1,24,-1
625 125 m 1,30,-1
 625 500 l 1,31,-1
 750 500 l 1,32,-1
 750 375 l 1,33,-1
 875 375 l 1,34,-1
 875 125 l 1,35,-1
 625 125 l 1,30,-1
EndSplineSet
Validated: 5
EndChar

StartChar: uni0417
Encoding: 1047 1047 260
Width: 1000
Flags: W
LayerCount: 2
Fore
SplineSet
125 125 m 1,0,-1
 125 250 l 1,1,-1
 0 250 l 1,2,-1
 0 375 l 1,3,-1
 250 375 l 1,4,-1
 250 250 l 1,5,-1
 625 250 l 1,6,-1
 625 500 l 1,7,-1
 250 500 l 1,8,-1
 250 625 l 1,9,-1
 625 625 l 1,10,-1
 625 875 l 1,11,-1
 250 875 l 1,12,-1
 250 750 l 1,13,-1
 0 750 l 1,14,-1
 0 875 l 1,15,-1
 125 875 l 1,16,-1
 125 1000 l 1,17,-1
 750 1000 l 1,18,-1
 750 875 l 1,19,-1
 875 875 l 1,20,-1
 875 625 l 1,21,-1
 750 625 l 1,22,-1
 750 500 l 1,23,-1
 875 500 l 1,24,-1
 875 250 l 1,25,-1
 750 250 l 1,26,-1
 750 125 l 1,27,-1
 125 125 l 1,0,-1
EndSplineSet
Validated: 1
EndChar

StartChar: uni0418
Encoding: 1048 1048 261
Width: 1000
Flags: W
LayerCount: 2
Fore
SplineSet
0 125 m 1,0,-1
 0 1000 l 1,1,-1
 250 1000 l 1,2,-1
 250 500 l 1,3,-1
 375 500 l 1,4,-1
 375 625 l 1,5,-1
 500 625 l 1,6,-1
 500 750 l 1,7,-1
 625 750 l 1,8,-1
 625 1000 l 1,9,-1
 875 1000 l 1,10,-1
 875 125 l 1,11,-1
 625 125 l 1,12,-1
 625 500 l 1,13,-1
 500 500 l 1,14,-1
 500 375 l 1,15,-1
 375 375 l 1,16,-1
 375 250 l 1,17,-1
 250 250 l 1,18,-1
 250 125 l 1,19,-1
 0 125 l 1,0,-1
EndSplineSet
Validated: 1
EndChar

StartChar: uni0419
Encoding: 1049 1049 262
Width: 1000
Flags: W
LayerCount: 2
Fore
SplineSet
125 875 m 1,0,-1
 125 1000 l 1,1,-1
 750 1000 l 1,2,-1
 750 875 l 1,3,-1
 125 875 l 1,0,-1
0 125 m 1,4,-1
 0 750 l 1,5,-1
 250 750 l 1,6,-1
 250 375 l 1,7,-1
 375 375 l 1,8,-1
 375 500 l 1,9,-1
 500 500 l 1,10,-1
 500 625 l 1,11,-1
 625 625 l 1,12,-1
 625 750 l 1,13,-1
 875 750 l 1,14,-1
 875 125 l 1,15,-1
 625 125 l 1,16,-1
 625 375 l 1,17,-1
 500 375 l 1,18,-1
 500 250 l 1,19,-1
 375 250 l 1,20,-1
 375 125 l 1,21,-1
 0 125 l 1,4,-1
EndSplineSet
Validated: 1
EndChar

StartChar: uni040D
Encoding: 1037 1037 263
Width: 1000
Flags: W
LayerCount: 2
Fore
SplineSet
375 875 m 1,0,-1
 250 875 l 1,1,-1
 250 1000 l 1,2,-1
 375 1000 l 1,3,-1
 375 875 l 1,0,-1
375 750 m 1,4,-1
 375 875 l 1,5,-1
 500 875 l 1,6,-1
 500 750 l 1,7,-1
 375 750 l 1,4,-1
875 750 m 1,8,-1
 875 125 l 1,9,-1
 625 125 l 1,10,-1
 625 375 l 1,11,-1
 500 375 l 1,12,-1
 500 250 l 1,13,-1
 375 250 l 1,14,-1
 375 125 l 1,15,-1
 0 125 l 1,16,-1
 0 750 l 1,17,-1
 250 750 l 1,18,-1
 250 375 l 1,19,-1
 375 375 l 1,20,-1
 375 500 l 1,21,-1
 500 500 l 1,22,-1
 500 625 l 1,23,-1
 625 625 l 1,24,-1
 625 750 l 1,25,-1
 875 750 l 1,8,-1
EndSplineSet
Validated: 5
EndChar

StartChar: uni041A
Encoding: 1050 1050 264
Width: 1000
Flags: W
LayerCount: 2
Fore
SplineSet
375 750 m 1,0,-1
 500 750 l 1,1,-1
 500 625 l 1,2,-1
 625 625 l 1,3,-1
 625 500 l 1,4,-1
 750 500 l 1,5,-1
 750 250 l 1,6,-1
 875 250 l 1,7,-1
 875 125 l 1,8,-1
 625 125 l 1,9,-1
 625 250 l 1,10,-1
 500 250 l 1,11,-1
 500 500 l 1,12,-1
 250 500 l 1,13,-1
 250 125 l 1,14,-1
 0 125 l 1,15,-1
 0 1000 l 1,16,-1
 250 1000 l 1,17,-1
 250 625 l 1,18,-1
 375 625 l 1,19,-1
 375 750 l 1,0,-1
875 1000 m 1,20,-1
 875 875 l 1,21,-1
 750 875 l 1,22,-1
 750 750 l 1,23,-1
 500 750 l 1,24,-1
 500 875 l 1,25,-1
 625 875 l 1,26,-1
 625 1000 l 1,27,-1
 875 1000 l 1,20,-1
EndSplineSet
Validated: 5
EndChar

StartChar: uni040C
Encoding: 1036 1036 265
Width: 1000
Flags: W
LayerCount: 2
Fore
SplineSet
625 875 m 1,0,-1
 500 875 l 1,1,-1
 500 1000 l 1,2,-1
 625 1000 l 1,3,-1
 625 875 l 1,0,-1
500 750 m 1,4,-1
 375 750 l 1,5,-1
 375 875 l 1,6,-1
 500 875 l 1,7,-1
 500 750 l 1,4,-1
500 625 m 1,8,-1
 625 625 l 1,9,-1
 625 500 l 1,10,-1
 750 500 l 1,11,-1
 750 375 l 1,12,-1
 875 375 l 1,13,-1
 875 125 l 1,14,-1
 625 125 l 1,15,-1
 625 375 l 1,16,-1
 250 375 l 1,17,-1
 250 125 l 1,18,-1
 0 125 l 1,19,-1
 0 750 l 1,20,-1
 250 750 l 1,21,-1
 250 500 l 1,22,-1
 500 500 l 1,23,-1
 500 625 l 1,8,-1
875 750 m 1,24,-1
 875 625 l 1,25,-1
 625 625 l 1,26,-1
 625 750 l 1,27,-1
 875 750 l 1,24,-1
EndSplineSet
Validated: 5
EndChar

StartChar: uni041B
Encoding: 1051 1051 266
Width: 1000
Flags: W
LayerCount: 2
Fore
SplineSet
0 125 m 1,0,-1
 0 375 l 1,1,-1
 125 375 l 1,2,-1
 125 500 l 1,3,-1
 250 500 l 1,4,-1
 250 1000 l 1,5,-1
 875 1000 l 1,6,-1
 875 125 l 1,7,-1
 625 125 l 1,8,-1
 625 875 l 1,9,-1
 375 875 l 1,10,-1
 375 250 l 1,11,-1
 250 250 l 1,12,-1
 250 125 l 1,13,-1
 0 125 l 1,0,-1
EndSplineSet
Validated: 1
EndChar

StartChar: uni041C
Encoding: 1052 1052 267
Width: 1000
Flags: W
LayerCount: 2
Fore
SplineSet
0 125 m 1,0,-1
 0 1000 l 1,1,-1
 250 1000 l 1,2,-1
 250 875 l 1,3,-1
 375 875 l 1,4,-1
 375 750 l 1,5,-1
 500 750 l 1,6,-1
 500 875 l 1,7,-1
 625 875 l 1,8,-1
 625 1000 l 1,9,-1
 875 1000 l 1,10,-1
 875 125 l 1,11,-1
 625 125 l 1,12,-1
 625 625 l 1,13,-1
 500 625 l 1,14,-1
 500 375 l 1,15,-1
 375 375 l 1,16,-1
 375 625 l 1,17,-1
 250 625 l 1,18,-1
 250 125 l 1,19,-1
 0 125 l 1,0,-1
EndSplineSet
Validated: 1
EndChar

StartChar: uni041D
Encoding: 1053 1053 268
Width: 1000
Flags: W
LayerCount: 2
Fore
SplineSet
0 125 m 1,0,-1
 0 1000 l 1,1,-1
 250 1000 l 1,2,-1
 250 625 l 1,3,-1
 625 625 l 1,4,-1
 625 1000 l 1,5,-1
 875 1000 l 1,6,-1
 875 125 l 1,7,-1
 625 125 l 1,8,-1
 625 500 l 1,9,-1
 250 500 l 1,10,-1
 250 125 l 1,11,-1
 0 125 l 1,0,-1
EndSplineSet
Validated: 1
EndChar

StartChar: uni041E
Encoding: 1054 1054 269
Width: 1000
Flags: W
LayerCount: 2
Fore
SplineSet
125 125 m 1,0,-1
 125 250 l 1,1,-1
 0 250 l 1,2,-1
 0 875 l 1,3,-1
 125 875 l 1,4,-1
 125 1000 l 1,5,-1
 750 1000 l 1,6,-1
 750 875 l 1,7,-1
 875 875 l 1,8,-1
 875 250 l 1,9,-1
 750 250 l 1,10,-1
 750 125 l 1,11,-1
 125 125 l 1,0,-1
250 250 m 1,12,-1
 625 250 l 1,13,-1
 625 875 l 1,14,-1
 250 875 l 1,15,-1
 250 250 l 1,12,-1
EndSplineSet
Validated: 1
EndChar

StartChar: uni041F
Encoding: 1055 1055 270
Width: 1000
Flags: W
LayerCount: 2
Fore
SplineSet
0 125 m 1,0,-1
 0 1000 l 1,1,-1
 875 1000 l 1,2,-1
 875 125 l 1,3,-1
 625 125 l 1,4,-1
 625 875 l 1,5,-1
 250 875 l 1,6,-1
 250 125 l 1,7,-1
 0 125 l 1,0,-1
EndSplineSet
Validated: 1
EndChar

StartChar: uni0420
Encoding: 1056 1056 271
Width: 1000
Flags: W
LayerCount: 2
Fore
SplineSet
0 125 m 1,0,-1
 0 1000 l 1,1,-1
 750 1000 l 1,2,-1
 750 875 l 1,3,-1
 875 875 l 1,4,-1
 875 500 l 1,5,-1
 750 500 l 1,6,-1
 750 375 l 1,7,-1
 250 375 l 1,8,-1
 250 125 l 1,9,-1
 0 125 l 1,0,-1
250 500 m 1,10,-1
 625 500 l 1,11,-1
 625 875 l 1,12,-1
 250 875 l 1,13,-1
 250 500 l 1,10,-1
EndSplineSet
Validated: 1
EndChar

StartChar: uni0421
Encoding: 1057 1057 272
Width: 1000
Flags: W
LayerCount: 2
Fore
SplineSet
250 125 m 1,0,-1
 250 250 l 1,1,-1
 125 250 l 1,2,-1
 125 375 l 1,3,-1
 0 375 l 1,4,-1
 0 750 l 1,5,-1
 125 750 l 1,6,-1
 125 875 l 1,7,-1
 250 875 l 1,8,-1
 250 1000 l 1,9,-1
 750 1000 l 1,10,-1
 750 875 l 1,11,-1
 875 875 l 1,12,-1
 875 750 l 1,13,-1
 625 750 l 1,14,-1
 625 875 l 1,15,-1
 375 875 l 1,16,-1
 375 750 l 1,17,-1
 250 750 l 1,18,-1
 250 375 l 1,19,-1
 375 375 l 1,20,-1
 375 250 l 1,21,-1
 625 250 l 1,22,-1
 625 375 l 1,23,-1
 875 375 l 1,24,-1
 875 250 l 1,25,-1
 750 250 l 1,26,-1
 750 125 l 1,27,-1
 250 125 l 1,0,-1
EndSplineSet
Validated: 1
EndChar

StartChar: uni0422
Encoding: 1058 1058 273
Width: 1000
Flags: W
LayerCount: 2
Fore
SplineSet
375 125 m 1,0,-1
 375 875 l 1,1,-1
 125 875 l 1,2,-1
 125 1000 l 1,3,-1
 875 1000 l 1,4,-1
 875 875 l 1,5,-1
 625 875 l 1,6,-1
 625 125 l 1,7,-1
 375 125 l 1,0,-1
EndSplineSet
Validated: 1
EndChar

StartChar: uni0423
Encoding: 1059 1059 274
Width: 1000
Flags: W
LayerCount: 2
Fore
SplineSet
125 125 m 1,0,-1
 125 250 l 1,1,-1
 0 250 l 1,2,-1
 0 375 l 1,3,-1
 250 375 l 1,4,-1
 250 250 l 1,5,-1
 625 250 l 1,6,-1
 625 500 l 1,7,-1
 125 500 l 1,8,-1
 125 625 l 1,9,-1
 0 625 l 1,10,-1
 0 1000 l 1,11,-1
 250 1000 l 1,12,-1
 250 625 l 1,13,-1
 625 625 l 1,14,-1
 625 1000 l 1,15,-1
 875 1000 l 1,16,-1
 875 250 l 1,17,-1
 750 250 l 1,18,-1
 750 125 l 1,19,-1
 125 125 l 1,0,-1
EndSplineSet
Validated: 1
EndChar

StartChar: uni040E
Encoding: 1038 1038 275
Width: 1000
Flags: W
LayerCount: 2
Fore
SplineSet
125 875 m 1,0,-1
 125 1000 l 1,1,-1
 750 1000 l 1,2,-1
 750 875 l 1,3,-1
 125 875 l 1,0,-1
125 0 m 1,4,-1
 125 125 l 1,5,-1
 625 125 l 1,6,-1
 625 250 l 1,7,-1
 125 250 l 1,8,-1
 125 375 l 1,9,-1
 0 375 l 1,10,-1
 0 750 l 1,11,-1
 250 750 l 1,12,-1
 250 375 l 1,13,-1
 625 375 l 1,14,-1
 625 750 l 1,15,-1
 875 750 l 1,16,-1
 875 125 l 1,17,-1
 750 125 l 1,18,-1
 750 0 l 1,19,-1
 125 0 l 1,4,-1
EndSplineSet
Validated: 1
EndChar

StartChar: uni0424
Encoding: 1060 1060 276
Width: 1000
Flags: W
LayerCount: 2
Fore
SplineSet
375 125 m 1,0,-1
 375 250 l 1,1,-1
 125 250 l 1,2,-1
 125 375 l 1,3,-1
 0 375 l 1,4,-1
 0 750 l 1,5,-1
 125 750 l 1,6,-1
 125 875 l 1,7,-1
 375 875 l 1,8,-1
 375 1000 l 1,9,-1
 500 1000 l 1,10,-1
 500 875 l 1,11,-1
 750 875 l 1,12,-1
 750 750 l 1,13,-1
 875 750 l 1,14,-1
 875 375 l 1,15,-1
 750 375 l 1,16,-1
 750 250 l 1,17,-1
 500 250 l 1,18,-1
 500 125 l 1,19,-1
 375 125 l 1,0,-1
250 375 m 1,20,-1
 375 375 l 1,21,-1
 375 750 l 1,22,-1
 250 750 l 1,23,-1
 250 375 l 1,20,-1
500 375 m 1,24,-1
 625 375 l 1,25,-1
 625 750 l 1,26,-1
 500 750 l 1,27,-1
 500 375 l 1,24,-1
EndSplineSet
Validated: 1
EndChar

StartChar: uni0425
Encoding: 1061 1061 277
Width: 1000
Flags: W
LayerCount: 2
Fore
SplineSet
0 125 m 1,0,-1
 0 375 l 1,1,-1
 125 375 l 1,2,-1
 125 500 l 1,3,-1
 250 500 l 1,4,-1
 250 625 l 1,5,-1
 125 625 l 1,6,-1
 125 750 l 1,7,-1
 0 750 l 1,8,-1
 0 1000 l 1,9,-1
 250 1000 l 1,10,-1
 250 750 l 1,11,-1
 375 750 l 1,12,-1
 375 625 l 1,13,-1
 500 625 l 1,14,-1
 500 750 l 1,15,-1
 625 750 l 1,16,-1
 625 1000 l 1,17,-1
 875 1000 l 1,18,-1
 875 750 l 1,19,-1
 750 750 l 1,20,-1
 750 625 l 1,21,-1
 625 625 l 1,22,-1
 625 500 l 1,23,-1
 750 500 l 1,24,-1
 750 375 l 1,25,-1
 875 375 l 1,26,-1
 875 125 l 1,27,-1
 625 125 l 1,28,-1
 625 375 l 1,29,-1
 500 375 l 1,30,-1
 500 500 l 1,31,-1
 375 500 l 1,32,-1
 375 375 l 1,33,-1
 250 375 l 1,34,-1
 250 125 l 1,35,-1
 0 125 l 1,0,-1
EndSplineSet
Validated: 1
EndChar

StartChar: uni0427
Encoding: 1063 1063 278
Width: 1000
Flags: W
LayerCount: 2
Fore
SplineSet
625 125 m 1,0,-1
 625 500 l 1,1,-1
 125 500 l 1,2,-1
 125 625 l 1,3,-1
 0 625 l 1,4,-1
 0 1000 l 1,5,-1
 250 1000 l 1,6,-1
 250 625 l 1,7,-1
 625 625 l 1,8,-1
 625 1000 l 1,9,-1
 875 1000 l 1,10,-1
 875 125 l 1,11,-1
 625 125 l 1,0,-1
EndSplineSet
Validated: 1
EndChar

StartChar: uni0426
Encoding: 1062 1062 279
Width: 1000
Flags: W
LayerCount: 2
Fore
SplineSet
625 0 m 1,0,-1
 625 125 l 1,1,-1
 0 125 l 1,2,-1
 0 1000 l 1,3,-1
 250 1000 l 1,4,-1
 250 250 l 1,5,-1
 500 250 l 1,6,-1
 500 1000 l 1,7,-1
 750 1000 l 1,8,-1
 750 250 l 1,9,-1
 875 250 l 1,10,-1
 875 0 l 1,11,-1
 625 0 l 1,0,-1
EndSplineSet
Validated: 1
EndChar

StartChar: uni0428
Encoding: 1064 1064 280
Width: 1000
Flags: W
LayerCount: 2
Fore
SplineSet
0 125 m 1,0,-1
 0 1000 l 1,1,-1
 250 1000 l 1,2,-1
 250 250 l 1,3,-1
 375 250 l 1,4,-1
 375 1000 l 1,5,-1
 500 1000 l 1,6,-1
 500 250 l 1,7,-1
 625 250 l 1,8,-1
 625 1000 l 1,9,-1
 875 1000 l 1,10,-1
 875 125 l 1,11,-1
 0 125 l 1,0,-1
EndSplineSet
Validated: 1
EndChar

StartChar: uni0429
Encoding: 1065 1065 281
Width: 1000
Flags: W
LayerCount: 2
Fore
SplineSet
750 0 m 1,0,-1
 750 125 l 1,1,-1
 0 125 l 1,2,-1
 0 1000 l 1,3,-1
 250 1000 l 1,4,-1
 250 250 l 1,5,-1
 375 250 l 1,6,-1
 375 1000 l 1,7,-1
 500 1000 l 1,8,-1
 500 250 l 1,9,-1
 625 250 l 1,10,-1
 625 1000 l 1,11,-1
 875 1000 l 1,12,-1
 875 250 l 1,13,-1
 1000 250 l 1,14,-1
 1000 0 l 1,15,-1
 750 0 l 1,0,-1
EndSplineSet
Validated: 1
EndChar

StartChar: uni040F
Encoding: 1039 1039 282
Width: 1000
Flags: W
LayerCount: 2
Fore
SplineSet
375 0 m 1,0,-1
 375 125 l 1,1,-1
 0 125 l 1,2,-1
 0 1000 l 1,3,-1
 250 1000 l 1,4,-1
 250 250 l 1,5,-1
 625 250 l 1,6,-1
 625 1000 l 1,7,-1
 875 1000 l 1,8,-1
 875 125 l 1,9,-1
 500 125 l 1,10,-1
 500 0 l 1,11,-1
 375 0 l 1,0,-1
EndSplineSet
Validated: 1
EndChar

StartChar: uni042C
Encoding: 1068 1068 283
Width: 1000
Flags: W
LayerCount: 2
Fore
SplineSet
0 125 m 1,0,-1
 0 1000 l 1,1,-1
 250 1000 l 1,2,-1
 250 750 l 1,3,-1
 750 750 l 1,4,-1
 750 625 l 1,5,-1
 875 625 l 1,6,-1
 875 250 l 1,7,-1
 750 250 l 1,8,-1
 750 125 l 1,9,-1
 0 125 l 1,0,-1
250 250 m 1,10,-1
 625 250 l 1,11,-1
 625 625 l 1,12,-1
 250 625 l 1,13,-1
 250 250 l 1,10,-1
EndSplineSet
Validated: 1
EndChar

StartChar: uni042A
Encoding: 1066 1066 284
Width: 1000
Flags: W
LayerCount: 2
Fore
SplineSet
125 125 m 1,0,-1
 125 875 l 1,1,-1
 0 875 l 1,2,-1
 0 1000 l 1,3,-1
 375 1000 l 1,4,-1
 375 750 l 1,5,-1
 750 750 l 1,6,-1
 750 625 l 1,7,-1
 875 625 l 1,8,-1
 875 250 l 1,9,-1
 750 250 l 1,10,-1
 750 125 l 1,11,-1
 125 125 l 1,0,-1
375 250 m 1,12,-1
 625 250 l 1,13,-1
 625 625 l 1,14,-1
 375 625 l 1,15,-1
 375 250 l 1,12,-1
EndSplineSet
Validated: 1
EndChar

StartChar: uni042B
Encoding: 1067 1067 285
Width: 1000
Flags: W
LayerCount: 2
Fore
SplineSet
0 125 m 1,0,-1
 0 1000 l 1,1,-1
 250 1000 l 1,2,-1
 250 750 l 1,3,-1
 500 750 l 1,4,-1
 500 125 l 1,5,-1
 0 125 l 1,0,-1
625 125 m 1,6,-1
 625 1000 l 1,7,-1
 875 1000 l 1,8,-1
 875 125 l 1,9,-1
 625 125 l 1,6,-1
250 250 m 1,10,-1
 375 250 l 1,11,-1
 375 625 l 1,12,-1
 250 625 l 1,13,-1
 250 250 l 1,10,-1
EndSplineSet
Validated: 1
EndChar

StartChar: uni0409
Encoding: 1033 1033 286
Width: 1000
Flags: W
LayerCount: 2
Fore
SplineSet
0 125 m 1,0,-1
 0 375 l 1,1,-1
 125 375 l 1,2,-1
 125 1000 l 1,3,-1
 625 1000 l 1,4,-1
 625 750 l 1,5,-1
 875 750 l 1,6,-1
 875 125 l 1,7,-1
 375 125 l 1,8,-1
 375 875 l 1,9,-1
 250 875 l 1,10,-1
 250 125 l 1,11,-1
 0 125 l 1,0,-1
625 250 m 1,12,-1
 750 250 l 1,13,-1
 750 625 l 1,14,-1
 625 625 l 1,15,-1
 625 250 l 1,12,-1
EndSplineSet
Validated: 1
EndChar

StartChar: uni040A
Encoding: 1034 1034 287
Width: 1000
Flags: W
LayerCount: 2
Fore
SplineSet
0 125 m 1,0,-1
 0 1000 l 1,1,-1
 250 1000 l 1,2,-1
 250 625 l 1,3,-1
 375 625 l 1,4,-1
 375 1000 l 1,5,-1
 625 1000 l 1,6,-1
 625 750 l 1,7,-1
 875 750 l 1,8,-1
 875 125 l 1,9,-1
 375 125 l 1,10,-1
 375 500 l 1,11,-1
 250 500 l 1,12,-1
 250 125 l 1,13,-1
 0 125 l 1,0,-1
625 250 m 1,14,-1
 750 250 l 1,15,-1
 750 625 l 1,16,-1
 625 625 l 1,17,-1
 625 250 l 1,14,-1
EndSplineSet
Validated: 1
EndChar

StartChar: uni0405
Encoding: 1029 1029 288
Width: 1000
Flags: W
LayerCount: 2
Fore
SplineSet
125 125 m 1,0,-1
 125 250 l 1,1,-1
 0 250 l 1,2,-1
 0 375 l 1,3,-1
 250 375 l 1,4,-1
 250 250 l 1,5,-1
 625 250 l 1,6,-1
 625 500 l 1,7,-1
 125 500 l 1,8,-1
 125 625 l 1,9,-1
 0 625 l 1,10,-1
 0 875 l 1,11,-1
 125 875 l 1,12,-1
 125 1000 l 1,13,-1
 750 1000 l 1,14,-1
 750 875 l 1,15,-1
 875 875 l 1,16,-1
 875 750 l 1,17,-1
 625 750 l 1,18,-1
 625 875 l 1,19,-1
 250 875 l 1,20,-1
 250 625 l 1,21,-1
 750 625 l 1,22,-1
 750 500 l 1,23,-1
 875 500 l 1,24,-1
 875 250 l 1,25,-1
 750 250 l 1,26,-1
 750 125 l 1,27,-1
 125 125 l 1,0,-1
EndSplineSet
Validated: 1
EndChar

StartChar: uni0404
Encoding: 1028 1028 289
Width: 1000
Flags: W
LayerCount: 2
Fore
SplineSet
250 125 m 1,0,-1
 250 250 l 1,1,-1
 125 250 l 1,2,-1
 125 375 l 1,3,-1
 0 375 l 1,4,-1
 0 750 l 1,5,-1
 125 750 l 1,6,-1
 125 875 l 1,7,-1
 250 875 l 1,8,-1
 250 1000 l 1,9,-1
 750 1000 l 1,10,-1
 750 875 l 1,11,-1
 875 875 l 1,12,-1
 875 750 l 1,13,-1
 625 750 l 1,14,-1
 625 875 l 1,15,-1
 375 875 l 1,16,-1
 375 750 l 1,17,-1
 250 750 l 1,18,-1
 250 625 l 1,19,-1
 750 625 l 1,20,-1
 750 500 l 1,21,-1
 250 500 l 1,22,-1
 250 375 l 1,23,-1
 375 375 l 1,24,-1
 375 250 l 1,25,-1
 625 250 l 1,26,-1
 625 375 l 1,27,-1
 875 375 l 1,28,-1
 875 250 l 1,29,-1
 750 250 l 1,30,-1
 750 125 l 1,31,-1
 250 125 l 1,0,-1
EndSplineSet
Validated: 1
EndChar

StartChar: uni042D
Encoding: 1069 1069 290
Width: 1000
Flags: W
LayerCount: 2
Fore
SplineSet
125 125 m 1,0,-1
 125 250 l 1,1,-1
 0 250 l 1,2,-1
 0 375 l 1,3,-1
 250 375 l 1,4,-1
 250 250 l 1,5,-1
 500 250 l 1,6,-1
 500 375 l 1,7,-1
 625 375 l 1,8,-1
 625 500 l 1,9,-1
 125 500 l 1,10,-1
 125 625 l 1,11,-1
 625 625 l 1,12,-1
 625 750 l 1,13,-1
 500 750 l 1,14,-1
 500 875 l 1,15,-1
 250 875 l 1,16,-1
 250 750 l 1,17,-1
 0 750 l 1,18,-1
 0 875 l 1,19,-1
 125 875 l 1,20,-1
 125 1000 l 1,21,-1
 625 1000 l 1,22,-1
 625 875 l 1,23,-1
 750 875 l 1,24,-1
 750 750 l 1,25,-1
 875 750 l 1,26,-1
 875 375 l 1,27,-1
 750 375 l 1,28,-1
 750 250 l 1,29,-1
 625 250 l 1,30,-1
 625 125 l 1,31,-1
 125 125 l 1,0,-1
EndSplineSet
Validated: 1
EndChar

StartChar: uni0406
Encoding: 1030 1030 291
Width: 1000
Flags: W
LayerCount: 2
Fore
SplineSet
125 125 m 1,0,-1
 125 250 l 1,1,-1
 375 250 l 1,2,-1
 375 875 l 1,3,-1
 125 875 l 1,4,-1
 125 1000 l 1,5,-1
 875 1000 l 1,6,-1
 875 875 l 1,7,-1
 625 875 l 1,8,-1
 625 250 l 1,9,-1
 875 250 l 1,10,-1
 875 125 l 1,11,-1
 125 125 l 1,0,-1
EndSplineSet
Validated: 1
EndChar

StartChar: uni0407
Encoding: 1031 1031 292
Width: 1000
Flags: W
LayerCount: 2
Fore
SplineSet
125 875 m 1,0,-1
 125 1000 l 1,1,-1
 375 1000 l 1,2,-1
 375 875 l 1,3,-1
 125 875 l 1,0,-1
625 875 m 1,4,-1
 625 1000 l 1,5,-1
 875 1000 l 1,6,-1
 875 875 l 1,7,-1
 625 875 l 1,4,-1
125 125 m 1,8,-1
 125 250 l 1,9,-1
 375 250 l 1,10,-1
 375 625 l 1,11,-1
 125 625 l 1,12,-1
 125 750 l 1,13,-1
 875 750 l 1,14,-1
 875 625 l 1,15,-1
 625 625 l 1,16,-1
 625 250 l 1,17,-1
 875 250 l 1,18,-1
 875 125 l 1,19,-1
 125 125 l 1,8,-1
EndSplineSet
Validated: 1
EndChar

StartChar: uni0408
Encoding: 1032 1032 293
Width: 1000
Flags: W
LayerCount: 2
Fore
SplineSet
125 125 m 1,0,-1
 125 250 l 1,1,-1
 0 250 l 1,2,-1
 0 375 l 1,3,-1
 250 375 l 1,4,-1
 250 250 l 1,5,-1
 625 250 l 1,6,-1
 625 1000 l 1,7,-1
 875 1000 l 1,8,-1
 875 250 l 1,9,-1
 750 250 l 1,10,-1
 750 125 l 1,11,-1
 125 125 l 1,0,-1
EndSplineSet
Validated: 1
EndChar

StartChar: uni040B
Encoding: 1035 1035 294
Width: 1000
Flags: W
LayerCount: 2
Fore
SplineSet
125 125 m 1,0,-1
 125 875 l 1,1,-1
 0 875 l 1,2,-1
 0 1000 l 1,3,-1
 625 1000 l 1,4,-1
 625 875 l 1,5,-1
 375 875 l 1,6,-1
 375 750 l 1,7,-1
 750 750 l 1,8,-1
 750 625 l 1,9,-1
 875 625 l 1,10,-1
 875 125 l 1,11,-1
 625 125 l 1,12,-1
 625 625 l 1,13,-1
 375 625 l 1,14,-1
 375 125 l 1,15,-1
 125 125 l 1,0,-1
EndSplineSet
Validated: 1
EndChar

StartChar: uni042E
Encoding: 1070 1070 295
Width: 1000
Flags: W
LayerCount: 2
Fore
SplineSet
0 125 m 1,0,-1
 0 1000 l 1,1,-1
 125 1000 l 1,2,-1
 125 625 l 1,3,-1
 250 625 l 1,4,-1
 250 875 l 1,5,-1
 375 875 l 1,6,-1
 375 1000 l 1,7,-1
 750 1000 l 1,8,-1
 750 875 l 1,9,-1
 875 875 l 1,10,-1
 875 250 l 1,11,-1
 750 250 l 1,12,-1
 750 125 l 1,13,-1
 375 125 l 1,14,-1
 375 250 l 1,15,-1
 250 250 l 1,16,-1
 250 500 l 1,17,-1
 125 500 l 1,18,-1
 125 125 l 1,19,-1
 0 125 l 1,0,-1
500 250 m 1,20,-1
 625 250 l 1,21,-1
 625 875 l 1,22,-1
 500 875 l 1,23,-1
 500 250 l 1,20,-1
EndSplineSet
Validated: 1
EndChar

StartChar: uni042F
Encoding: 1071 1071 296
Width: 1000
Flags: W
LayerCount: 2
Fore
SplineSet
0 125 m 1,0,-1
 0 250 l 1,1,-1
 125 250 l 1,2,-1
 125 375 l 1,3,-1
 250 375 l 1,4,-1
 250 500 l 1,5,-1
 0 500 l 1,6,-1
 0 875 l 1,7,-1
 125 875 l 1,8,-1
 125 1000 l 1,9,-1
 875 1000 l 1,10,-1
 875 125 l 1,11,-1
 625 125 l 1,12,-1
 625 375 l 1,13,-1
 375 375 l 1,14,-1
 375 125 l 1,15,-1
 0 125 l 1,0,-1
375 500 m 1,16,-1
 625 500 l 1,17,-1
 625 875 l 1,18,-1
 250 875 l 1,19,-1
 250 625 l 1,20,-1
 375 625 l 1,21,-1
 375 500 l 1,16,-1
EndSplineSet
Validated: 1
EndChar

StartChar: uni0402
Encoding: 1026 1026 297
Width: 1000
Flags: W
LayerCount: 2
Fore
SplineSet
500 0 m 1,0,-1
 500 125 l 1,1,-1
 625 125 l 1,2,-1
 625 625 l 1,3,-1
 375 625 l 1,4,-1
 375 125 l 1,5,-1
 125 125 l 1,6,-1
 125 875 l 1,7,-1
 0 875 l 1,8,-1
 0 1000 l 1,9,-1
 625 1000 l 1,10,-1
 625 875 l 1,11,-1
 375 875 l 1,12,-1
 375 750 l 1,13,-1
 750 750 l 1,14,-1
 750 625 l 1,15,-1
 875 625 l 1,16,-1
 875 125 l 1,17,-1
 750 125 l 1,18,-1
 750 0 l 1,19,-1
 500 0 l 1,0,-1
EndSplineSet
Validated: 1
EndChar

StartChar: uni0462
Encoding: 1122 1122 298
Width: 1000
Flags: W
LayerCount: 2
Fore
SplineSet
875 500 m 1,0,-1
 875 250 l 1,1,-1
 750 250 l 1,2,-1
 750 125 l 1,3,-1
 125 125 l 1,4,-1
 125 750 l 1,5,-1
 0 750 l 1,6,-1
 0 875 l 1,7,-1
 125 875 l 1,8,-1
 125 1000 l 1,9,-1
 375 1000 l 1,10,-1
 375 875 l 1,11,-1
 625 875 l 1,12,-1
 625 750 l 1,13,-1
 375 750 l 1,14,-1
 375 625 l 1,15,-1
 750 625 l 1,16,-1
 750 500 l 1,17,-1
 875 500 l 1,0,-1
625 500 m 1,18,-1
 375 500 l 1,19,-1
 375 250 l 1,20,-1
 625 250 l 1,21,-1
 625 500 l 1,18,-1
EndSplineSet
Validated: 1
EndChar

StartChar: uni046A
Encoding: 1130 1130 299
Width: 1000
Flags: W
LayerCount: 2
Fore
SplineSet
875 1000 m 1,0,-1
 875 750 l 1,1,-1
 750 750 l 1,2,-1
 750 875 l 1,3,-1
 125 875 l 1,4,-1
 125 750 l 1,5,-1
 0 750 l 1,6,-1
 0 1000 l 1,7,-1
 875 1000 l 1,0,-1
125 750 m 1,8,-1
 250 750 l 1,9,-1
 250 625 l 1,10,-1
 125 625 l 1,11,-1
 125 750 l 1,8,-1
625 625 m 1,12,-1
 625 750 l 1,13,-1
 750 750 l 1,14,-1
 750 625 l 1,15,-1
 625 625 l 1,12,-1
250 625 m 1,16,-1
 625 625 l 1,17,-1
 625 500 l 1,18,-1
 500 500 l 1,19,-1
 500 125 l 1,20,-1
 375 125 l 1,21,-1
 375 500 l 1,22,-1
 250 500 l 1,23,-1
 250 625 l 1,16,-1
125 500 m 1,24,-1
 250 500 l 1,25,-1
 250 125 l 1,26,-1
 0 125 l 1,27,-1
 0 375 l 1,28,-1
 125 375 l 1,29,-1
 125 500 l 1,24,-1
625 125 m 1,30,-1
 625 500 l 1,31,-1
 750 500 l 1,32,-1
 750 375 l 1,33,-1
 875 375 l 1,34,-1
 875 125 l 1,35,-1
 625 125 l 1,30,-1
EndSplineSet
Validated: 5
EndChar

StartChar: uni0472
Encoding: 1138 1138 300
Width: 1000
Flags: W
LayerCount: 2
Fore
SplineSet
125 125 m 1,0,-1
 125 250 l 1,1,-1
 0 250 l 1,2,-1
 0 875 l 1,3,-1
 125 875 l 1,4,-1
 125 1000 l 1,5,-1
 750 1000 l 1,6,-1
 750 875 l 1,7,-1
 875 875 l 1,8,-1
 875 250 l 1,9,-1
 750 250 l 1,10,-1
 750 125 l 1,11,-1
 125 125 l 1,0,-1
250 250 m 1,12,-1
 625 250 l 1,13,-1
 625 875 l 1,14,-1
 250 875 l 1,15,-1
 250 250 l 1,12,-1
125 500 m 1,16,-1
 750 500 l 1,17,-1
 750 625 l 1,18,-1
 125 625 l 1,19,-1
 125 500 l 1,16,-1
EndSplineSet
Validated: 5
EndChar

StartChar: uni0474
Encoding: 1140 1140 301
Width: 1000
Flags: W
LayerCount: 2
Fore
SplineSet
375 125 m 1,0,-1
 375 250 l 1,1,-1
 250 250 l 1,2,-1
 250 375 l 1,3,-1
 125 375 l 1,4,-1
 125 500 l 1,5,-1
 0 500 l 1,6,-1
 0 1000 l 1,7,-1
 250 1000 l 1,8,-1
 250 500 l 1,9,-1
 375 500 l 1,10,-1
 375 375 l 1,11,-1
 500 375 l 1,12,-1
 500 500 l 1,13,-1
 625 500 l 1,14,-1
 625 1000 l 1,15,-1
 875 1000 l 1,16,-1
 875 750 l 1,17,-1
 750 750 l 1,18,-1
 750 375 l 1,19,-1
 625 375 l 1,20,-1
 625 250 l 1,21,-1
 500 250 l 1,22,-1
 500 125 l 1,23,-1
 375 125 l 1,0,-1
EndSplineSet
Validated: 1
EndChar

StartChar: uni0492
Encoding: 1170 1170 302
Width: 1000
Flags: W
LayerCount: 2
Fore
SplineSet
875 1000 m 1,0,-1
 875 750 l 1,1,-1
 750 750 l 1,2,-1
 750 875 l 1,3,-1
 375 875 l 1,4,-1
 375 625 l 1,5,-1
 625 625 l 1,6,-1
 625 500 l 1,7,-1
 375 500 l 1,8,-1
 375 125 l 1,9,-1
 125 125 l 1,10,-1
 125 500 l 1,11,-1
 0 500 l 1,12,-1
 0 625 l 1,13,-1
 125 625 l 1,14,-1
 125 1000 l 1,15,-1
 875 1000 l 1,0,-1
EndSplineSet
Validated: 1
EndChar

StartChar: uni0494
Encoding: 1172 1172 303
Width: 1000
Flags: W
LayerCount: 2
Fore
SplineSet
875 1000 m 1,0,-1
 875 750 l 1,1,-1
 750 750 l 1,2,-1
 750 875 l 1,3,-1
 375 875 l 1,4,-1
 375 625 l 1,5,-1
 750 625 l 1,6,-1
 750 500 l 1,7,-1
 875 500 l 1,8,-1
 875 125 l 1,9,-1
 750 125 l 1,10,-1
 750 0 l 1,11,-1
 500 0 l 1,12,-1
 500 125 l 1,13,-1
 625 125 l 1,14,-1
 625 500 l 1,15,-1
 375 500 l 1,16,-1
 375 125 l 1,17,-1
 125 125 l 1,18,-1
 125 1000 l 1,19,-1
 875 1000 l 1,0,-1
EndSplineSet
Validated: 1
EndChar

StartChar: uni0496
Encoding: 1174 1174 304
Width: 1000
Flags: W
LayerCount: 2
Fore
SplineSet
250 1000 m 1,0,-1
 250 625 l 1,1,-1
 125 625 l 1,2,-1
 125 750 l 1,3,-1
 0 750 l 1,4,-1
 0 1000 l 1,5,-1
 250 1000 l 1,0,-1
625 625 m 1,6,-1
 625 500 l 1,7,-1
 500 500 l 1,8,-1
 500 125 l 1,9,-1
 375 125 l 1,10,-1
 375 500 l 1,11,-1
 250 500 l 1,12,-1
 250 625 l 1,13,-1
 375 625 l 1,14,-1
 375 1000 l 1,15,-1
 500 1000 l 1,16,-1
 500 625 l 1,17,-1
 625 625 l 1,6,-1
750 625 m 1,18,-1
 625 625 l 1,19,-1
 625 1000 l 1,20,-1
 875 1000 l 1,21,-1
 875 750 l 1,22,-1
 750 750 l 1,23,-1
 750 625 l 1,18,-1
125 500 m 1,24,-1
 250 500 l 1,25,-1
 250 125 l 1,26,-1
 0 125 l 1,27,-1
 0 375 l 1,28,-1
 125 375 l 1,29,-1
 125 500 l 1,24,-1
875 250 m 1,30,-1
 1000 250 l 1,31,-1
 1000 0 l 1,32,-1
 750 0 l 1,33,-1
 750 125 l 1,34,-1
 625 125 l 1,35,-1
 625 500 l 1,36,-1
 750 500 l 1,37,-1
 750 375 l 1,38,-1
 875 375 l 1,39,-1
 875 250 l 1,30,-1
EndSplineSet
Validated: 5
EndChar

StartChar: uni0498
Encoding: 1176 1176 305
Width: 1000
Flags: W
LayerCount: 2
Fore
SplineSet
875 875 m 1,0,-1
 875 625 l 1,1,-1
 750 625 l 1,2,-1
 750 500 l 1,3,-1
 875 500 l 1,4,-1
 875 250 l 1,5,-1
 750 250 l 1,6,-1
 750 125 l 1,7,-1
 500 125 l 1,8,-1
 500 0 l 1,9,-1
 375 0 l 1,10,-1
 375 125 l 1,11,-1
 125 125 l 1,12,-1
 125 250 l 1,13,-1
 0 250 l 1,14,-1
 0 375 l 1,15,-1
 250 375 l 1,16,-1
 250 250 l 1,17,-1
 625 250 l 1,18,-1
 625 500 l 1,19,-1
 250 500 l 1,20,-1
 250 625 l 1,21,-1
 625 625 l 1,22,-1
 625 875 l 1,23,-1
 250 875 l 1,24,-1
 250 750 l 1,25,-1
 0 750 l 1,26,-1
 0 875 l 1,27,-1
 125 875 l 1,28,-1
 125 1000 l 1,29,-1
 750 1000 l 1,30,-1
 750 875 l 1,31,-1
 875 875 l 1,0,-1
EndSplineSet
Validated: 1
EndChar

StartChar: uni049A
Encoding: 1178 1178 306
Width: 1000
Flags: W
LayerCount: 2
Fore
SplineSet
375 750 m 1,0,-1
 500 750 l 1,1,-1
 500 625 l 1,2,-1
 625 625 l 1,3,-1
 625 500 l 1,4,-1
 750 500 l 1,5,-1
 750 250 l 1,6,-1
 875 250 l 1,7,-1
 875 0 l 1,8,-1
 625 0 l 1,9,-1
 625 250 l 1,10,-1
 500 250 l 1,11,-1
 500 500 l 1,12,-1
 250 500 l 1,13,-1
 250 125 l 1,14,-1
 0 125 l 1,15,-1
 0 1000 l 1,16,-1
 250 1000 l 1,17,-1
 250 625 l 1,18,-1
 375 625 l 1,19,-1
 375 750 l 1,0,-1
875 1000 m 1,20,-1
 875 875 l 1,21,-1
 750 875 l 1,22,-1
 750 750 l 1,23,-1
 500 750 l 1,24,-1
 500 875 l 1,25,-1
 625 875 l 1,26,-1
 625 1000 l 1,27,-1
 875 1000 l 1,20,-1
EndSplineSet
Validated: 5
EndChar

StartChar: uni049C
Encoding: 1180 1180 307
Width: 1000
Flags: W
LayerCount: 2
Fore
SplineSet
500 625 m 1,0,-1
 625 625 l 1,1,-1
 625 500 l 1,2,-1
 500 500 l 1,3,-1
 500 375 l 1,4,-1
 375 375 l 1,5,-1
 375 500 l 1,6,-1
 250 500 l 1,7,-1
 250 125 l 1,8,-1
 0 125 l 1,9,-1
 0 1000 l 1,10,-1
 250 1000 l 1,11,-1
 250 625 l 1,12,-1
 375 625 l 1,13,-1
 375 750 l 1,14,-1
 500 750 l 1,15,-1
 500 625 l 1,0,-1
750 875 m 1,16,-1
 750 625 l 1,17,-1
 625 625 l 1,18,-1
 625 1000 l 1,19,-1
 875 1000 l 1,20,-1
 875 875 l 1,21,-1
 750 875 l 1,16,-1
875 125 m 1,22,-1
 625 125 l 1,23,-1
 625 500 l 1,24,-1
 750 500 l 1,25,-1
 750 375 l 1,26,-1
 875 375 l 1,27,-1
 875 125 l 1,22,-1
EndSplineSet
Validated: 5
EndChar

StartChar: uni04A0
Encoding: 1184 1184 308
Width: 1000
Flags: W
LayerCount: 2
Fore
SplineSet
625 750 m 1,0,-1
 625 500 l 1,1,-1
 750 500 l 1,2,-1
 750 250 l 1,3,-1
 875 250 l 1,4,-1
 875 125 l 1,5,-1
 625 125 l 1,6,-1
 625 250 l 1,7,-1
 500 250 l 1,8,-1
 500 500 l 1,9,-1
 375 500 l 1,10,-1
 375 125 l 1,11,-1
 125 125 l 1,12,-1
 125 875 l 1,13,-1
 0 875 l 1,14,-1
 0 1000 l 1,15,-1
 375 1000 l 1,16,-1
 375 625 l 1,17,-1
 500 625 l 1,18,-1
 500 750 l 1,19,-1
 625 750 l 1,0,-1
750 875 m 1,20,-1
 750 750 l 1,21,-1
 625 750 l 1,22,-1
 625 1000 l 1,23,-1
 875 1000 l 1,24,-1
 875 875 l 1,25,-1
 750 875 l 1,20,-1
EndSplineSet
Validated: 5
EndChar

StartChar: uni04A2
Encoding: 1186 1186 309
Width: 1000
Flags: W
LayerCount: 2
Fore
SplineSet
875 250 m 1,0,-1
 1000 250 l 1,1,-1
 1000 0 l 1,2,-1
 750 0 l 1,3,-1
 750 125 l 1,4,-1
 625 125 l 1,5,-1
 625 500 l 1,6,-1
 250 500 l 1,7,-1
 250 125 l 1,8,-1
 0 125 l 1,9,-1
 0 1000 l 1,10,-1
 250 1000 l 1,11,-1
 250 625 l 1,12,-1
 625 625 l 1,13,-1
 625 1000 l 1,14,-1
 875 1000 l 1,15,-1
 875 250 l 1,0,-1
EndSplineSet
Validated: 1
EndChar

StartChar: uni0524
Encoding: 1316 1316 310
Width: 1000
Flags: W
LayerCount: 2
Fore
SplineSet
875 250 m 1,0,-1
 1000 250 l 1,1,-1
 1000 0 l 1,2,-1
 750 0 l 1,3,-1
 750 125 l 1,4,-1
 625 125 l 1,5,-1
 625 875 l 1,6,-1
 250 875 l 1,7,-1
 250 125 l 1,8,-1
 0 125 l 1,9,-1
 0 1000 l 1,10,-1
 875 1000 l 1,11,-1
 875 250 l 1,0,-1
EndSplineSet
Validated: 1
EndChar

StartChar: uni04AA
Encoding: 1194 1194 311
Width: 1000
Flags: W
LayerCount: 2
Fore
SplineSet
875 875 m 1,0,-1
 875 750 l 1,1,-1
 625 750 l 1,2,-1
 625 875 l 1,3,-1
 375 875 l 1,4,-1
 375 750 l 1,5,-1
 250 750 l 1,6,-1
 250 375 l 1,7,-1
 375 375 l 1,8,-1
 375 250 l 1,9,-1
 625 250 l 1,10,-1
 625 375 l 1,11,-1
 875 375 l 1,12,-1
 875 250 l 1,13,-1
 750 250 l 1,14,-1
 750 125 l 1,15,-1
 625 125 l 1,16,-1
 625 0 l 1,17,-1
 375 0 l 1,18,-1
 375 125 l 1,19,-1
 250 125 l 1,20,-1
 250 250 l 1,21,-1
 125 250 l 1,22,-1
 125 375 l 1,23,-1
 0 375 l 1,24,-1
 0 750 l 1,25,-1
 125 750 l 1,26,-1
 125 875 l 1,27,-1
 250 875 l 1,28,-1
 250 1000 l 1,29,-1
 750 1000 l 1,30,-1
 750 875 l 1,31,-1
 875 875 l 1,0,-1
EndSplineSet
Validated: 1
EndChar

StartChar: uni04AC
Encoding: 1196 1196 312
Width: 1000
Flags: W
LayerCount: 2
Fore
SplineSet
875 1000 m 1,0,-1
 875 875 l 1,1,-1
 625 875 l 1,2,-1
 625 250 l 1,3,-1
 750 250 l 1,4,-1
 750 0 l 1,5,-1
 500 0 l 1,6,-1
 500 125 l 1,7,-1
 375 125 l 1,8,-1
 375 875 l 1,9,-1
 125 875 l 1,10,-1
 125 1000 l 1,11,-1
 875 1000 l 1,0,-1
EndSplineSet
Validated: 1
EndChar

StartChar: uni04AE
Encoding: 1198 1198 313
Width: 1000
Flags: W
LayerCount: 2
Fore
SplineSet
375 125 m 1,0,-1
 375 500 l 1,1,-1
 250 500 l 1,2,-1
 250 625 l 1,3,-1
 125 625 l 1,4,-1
 125 1000 l 1,5,-1
 375 1000 l 1,6,-1
 375 625 l 1,7,-1
 625 625 l 1,8,-1
 625 1000 l 1,9,-1
 875 1000 l 1,10,-1
 875 625 l 1,11,-1
 750 625 l 1,12,-1
 750 500 l 1,13,-1
 625 500 l 1,14,-1
 625 125 l 1,15,-1
 375 125 l 1,0,-1
EndSplineSet
Validated: 1
EndChar

StartChar: uni04B0
Encoding: 1200 1200 314
Width: 1000
Flags: W
LayerCount: 2
Fore
SplineSet
875 1000 m 1,0,-1
 875 625 l 1,1,-1
 750 625 l 1,2,-1
 750 500 l 1,3,-1
 625 500 l 1,4,-1
 625 375 l 1,5,-1
 750 375 l 1,6,-1
 750 250 l 1,7,-1
 625 250 l 1,8,-1
 625 125 l 1,9,-1
 375 125 l 1,10,-1
 375 250 l 1,11,-1
 250 250 l 1,12,-1
 250 375 l 1,13,-1
 375 375 l 1,14,-1
 375 500 l 1,15,-1
 250 500 l 1,16,-1
 250 625 l 1,17,-1
 125 625 l 1,18,-1
 125 1000 l 1,19,-1
 375 1000 l 1,20,-1
 375 625 l 1,21,-1
 625 625 l 1,22,-1
 625 1000 l 1,23,-1
 875 1000 l 1,0,-1
EndSplineSet
Validated: 1
EndChar

StartChar: uni04B6
Encoding: 1206 1206 315
Width: 1000
Flags: W
LayerCount: 2
Fore
SplineSet
875 250 m 1,0,-1
 1000 250 l 1,1,-1
 1000 0 l 1,2,-1
 750 0 l 1,3,-1
 750 125 l 1,4,-1
 625 125 l 1,5,-1
 625 500 l 1,6,-1
 125 500 l 1,7,-1
 125 625 l 1,8,-1
 0 625 l 1,9,-1
 0 1000 l 1,10,-1
 250 1000 l 1,11,-1
 250 625 l 1,12,-1
 625 625 l 1,13,-1
 625 1000 l 1,14,-1
 875 1000 l 1,15,-1
 875 250 l 1,0,-1
EndSplineSet
Validated: 1
EndChar

StartChar: uni04B8
Encoding: 1208 1208 316
Width: 1000
Flags: W
LayerCount: 2
Fore
SplineSet
875 1000 m 1,0,-1
 875 125 l 1,1,-1
 625 125 l 1,2,-1
 625 500 l 1,3,-1
 500 500 l 1,4,-1
 500 375 l 1,5,-1
 375 375 l 1,6,-1
 375 500 l 1,7,-1
 125 500 l 1,8,-1
 125 625 l 1,9,-1
 0 625 l 1,10,-1
 0 1000 l 1,11,-1
 250 1000 l 1,12,-1
 250 625 l 1,13,-1
 375 625 l 1,14,-1
 375 750 l 1,15,-1
 500 750 l 1,16,-1
 500 625 l 1,17,-1
 625 625 l 1,18,-1
 625 1000 l 1,19,-1
 875 1000 l 1,0,-1
EndSplineSet
Validated: 1
EndChar

StartChar: uni04BA
Encoding: 1210 1210 317
Width: 1000
Flags: W
LayerCount: 2
Fore
SplineSet
125 125 m 1,0,-1
 125 1000 l 1,1,-1
 375 1000 l 1,2,-1
 375 625 l 1,3,-1
 875 625 l 1,4,-1
 875 500 l 1,5,-1
 1000 500 l 1,6,-1
 1000 125 l 1,7,-1
 750 125 l 1,8,-1
 750 500 l 1,9,-1
 375 500 l 1,10,-1
 375 125 l 1,11,-1
 125 125 l 1,0,-1
EndSplineSet
Validated: 1
EndChar

StartChar: uni04C0
Encoding: 1216 1216 318
Width: 1000
Flags: W
LayerCount: 2
Fore
SplineSet
125 125 m 1,0,-1
 125 250 l 1,1,-1
 375 250 l 1,2,-1
 375 875 l 1,3,-1
 125 875 l 1,4,-1
 125 1000 l 1,5,-1
 875 1000 l 1,6,-1
 875 875 l 1,7,-1
 625 875 l 1,8,-1
 625 250 l 1,9,-1
 875 250 l 1,10,-1
 875 125 l 1,11,-1
 125 125 l 1,0,-1
EndSplineSet
Validated: 1
EndChar

StartChar: uni04C1
Encoding: 1217 1217 319
Width: 1000
Flags: W
LayerCount: 2
Fore
SplineSet
125 875 m 1,0,-1
 125 1000 l 1,1,-1
 750 1000 l 1,2,-1
 750 875 l 1,3,-1
 125 875 l 1,0,-1
0 125 m 1,4,-1
 0 375 l 1,5,-1
 125 375 l 1,6,-1
 125 500 l 1,7,-1
 0 500 l 1,8,-1
 0 750 l 1,9,-1
 250 750 l 1,10,-1
 250 500 l 1,11,-1
 375 500 l 1,12,-1
 375 750 l 1,13,-1
 500 750 l 1,14,-1
 500 500 l 1,15,-1
 625 500 l 1,16,-1
 625 750 l 1,17,-1
 875 750 l 1,18,-1
 875 500 l 1,19,-1
 750 500 l 1,20,-1
 750 375 l 1,21,-1
 875 375 l 1,22,-1
 875 125 l 1,23,-1
 625 125 l 1,24,-1
 625 375 l 1,25,-1
 500 375 l 1,26,-1
 500 125 l 1,27,-1
 375 125 l 1,28,-1
 375 375 l 1,29,-1
 250 375 l 1,30,-1
 250 125 l 1,31,-1
 0 125 l 1,4,-1
EndSplineSet
Validated: 1
EndChar

StartChar: uni04CB
Encoding: 1227 1227 320
Width: 1000
Flags: W
LayerCount: 2
Fore
SplineSet
875 250 m 1,0,-1
 1000 250 l 1,1,-1
 1000 0 l 1,2,-1
 750 0 l 1,3,-1
 750 125 l 1,4,-1
 625 125 l 1,5,-1
 625 500 l 1,6,-1
 125 500 l 1,7,-1
 125 625 l 1,8,-1
 0 625 l 1,9,-1
 0 1000 l 1,10,-1
 250 1000 l 1,11,-1
 250 625 l 1,12,-1
 625 625 l 1,13,-1
 625 1000 l 1,14,-1
 875 1000 l 1,15,-1
 875 250 l 1,0,-1
EndSplineSet
Validated: 1
EndChar

StartChar: uni04D0
Encoding: 1232 1232 321
Width: 1000
Flags: W
LayerCount: 2
Fore
SplineSet
125 875 m 1,0,-1
 125 1000 l 1,1,-1
 750 1000 l 1,2,-1
 750 875 l 1,3,-1
 125 875 l 1,0,-1
0 125 m 1,4,-1
 0 500 l 1,5,-1
 125 500 l 1,6,-1
 125 625 l 1,7,-1
 250 625 l 1,8,-1
 250 750 l 1,9,-1
 625 750 l 1,10,-1
 625 625 l 1,11,-1
 750 625 l 1,12,-1
 750 500 l 1,13,-1
 875 500 l 1,14,-1
 875 125 l 1,15,-1
 625 125 l 1,16,-1
 625 250 l 1,17,-1
 250 250 l 1,18,-1
 250 125 l 1,19,-1
 0 125 l 1,4,-1
250 375 m 1,20,-1
 625 375 l 1,21,-1
 625 500 l 1,22,-1
 500 500 l 1,23,-1
 500 625 l 1,24,-1
 375 625 l 1,25,-1
 375 500 l 1,26,-1
 250 500 l 1,27,-1
 250 375 l 1,20,-1
EndSplineSet
Validated: 1
EndChar

StartChar: uni04D2
Encoding: 1234 1234 322
Width: 1000
Flags: W
LayerCount: 2
Fore
SplineSet
125 875 m 1,0,-1
 125 1000 l 1,1,-1
 375 1000 l 1,2,-1
 375 875 l 1,3,-1
 125 875 l 1,0,-1
500 875 m 1,4,-1
 500 1000 l 1,5,-1
 750 1000 l 1,6,-1
 750 875 l 1,7,-1
 500 875 l 1,4,-1
0 125 m 1,8,-1
 0 500 l 1,9,-1
 125 500 l 1,10,-1
 125 625 l 1,11,-1
 250 625 l 1,12,-1
 250 750 l 1,13,-1
 625 750 l 1,14,-1
 625 625 l 1,15,-1
 750 625 l 1,16,-1
 750 500 l 1,17,-1
 875 500 l 1,18,-1
 875 125 l 1,19,-1
 625 125 l 1,20,-1
 625 250 l 1,21,-1
 250 250 l 1,22,-1
 250 125 l 1,23,-1
 0 125 l 1,8,-1
250 375 m 1,24,-1
 625 375 l 1,25,-1
 625 500 l 1,26,-1
 500 500 l 1,27,-1
 500 625 l 1,28,-1
 375 625 l 1,29,-1
 375 500 l 1,30,-1
 250 500 l 1,31,-1
 250 375 l 1,24,-1
EndSplineSet
Validated: 1
EndChar

StartChar: uni04D6
Encoding: 1238 1238 323
Width: 1000
Flags: W
LayerCount: 2
Fore
SplineSet
125 875 m 1,0,-1
 125 1000 l 1,1,-1
 750 1000 l 1,2,-1
 750 875 l 1,3,-1
 125 875 l 1,0,-1
0 125 m 1,4,-1
 0 750 l 1,5,-1
 875 750 l 1,6,-1
 875 625 l 1,7,-1
 250 625 l 1,8,-1
 250 500 l 1,9,-1
 750 500 l 1,10,-1
 750 375 l 1,11,-1
 250 375 l 1,12,-1
 250 250 l 1,13,-1
 875 250 l 1,14,-1
 875 125 l 1,15,-1
 0 125 l 1,4,-1
EndSplineSet
Validated: 1
EndChar

StartChar: uni04D8
Encoding: 1240 1240 324
Width: 1000
Flags: W
LayerCount: 2
Fore
SplineSet
875 875 m 1,0,-1
 875 250 l 1,1,-1
 750 250 l 1,2,-1
 750 125 l 1,3,-1
 125 125 l 1,4,-1
 125 250 l 1,5,-1
 0 250 l 1,6,-1
 0 625 l 1,7,-1
 625 625 l 1,8,-1
 625 875 l 1,9,-1
 250 875 l 1,10,-1
 250 750 l 1,11,-1
 0 750 l 1,12,-1
 0 875 l 1,13,-1
 125 875 l 1,14,-1
 125 1000 l 1,15,-1
 750 1000 l 1,16,-1
 750 875 l 1,17,-1
 875 875 l 1,0,-1
625 250 m 1,18,-1
 625 500 l 1,19,-1
 250 500 l 1,20,-1
 250 250 l 1,21,-1
 625 250 l 1,18,-1
EndSplineSet
Validated: 1
EndChar

StartChar: uni04DC
Encoding: 1244 1244 325
Width: 1000
Flags: W
LayerCount: 2
Fore
SplineSet
125 875 m 1,0,-1
 125 1000 l 1,1,-1
 375 1000 l 1,2,-1
 375 875 l 1,3,-1
 125 875 l 1,0,-1
500 875 m 1,4,-1
 500 1000 l 1,5,-1
 750 1000 l 1,6,-1
 750 875 l 1,7,-1
 500 875 l 1,4,-1
0 125 m 1,8,-1
 0 375 l 1,9,-1
 125 375 l 1,10,-1
 125 500 l 1,11,-1
 0 500 l 1,12,-1
 0 750 l 1,13,-1
 250 750 l 1,14,-1
 250 500 l 1,15,-1
 375 500 l 1,16,-1
 375 750 l 1,17,-1
 500 750 l 1,18,-1
 500 500 l 1,19,-1
 625 500 l 1,20,-1
 625 750 l 1,21,-1
 875 750 l 1,22,-1
 875 500 l 1,23,-1
 750 500 l 1,24,-1
 750 375 l 1,25,-1
 875 375 l 1,26,-1
 875 125 l 1,27,-1
 625 125 l 1,28,-1
 625 375 l 1,29,-1
 500 375 l 1,30,-1
 500 125 l 1,31,-1
 375 125 l 1,32,-1
 375 375 l 1,33,-1
 250 375 l 1,34,-1
 250 125 l 1,35,-1
 0 125 l 1,8,-1
EndSplineSet
Validated: 1
EndChar

StartChar: uni04DE
Encoding: 1246 1246 326
Width: 1000
Flags: W
LayerCount: 2
Fore
SplineSet
125 875 m 1,0,-1
 125 1000 l 1,1,-1
 375 1000 l 1,2,-1
 375 875 l 1,3,-1
 125 875 l 1,0,-1
500 875 m 1,4,-1
 500 1000 l 1,5,-1
 750 1000 l 1,6,-1
 750 875 l 1,7,-1
 500 875 l 1,4,-1
125 125 m 1,8,-1
 125 250 l 1,9,-1
 0 250 l 1,10,-1
 0 375 l 1,11,-1
 250 375 l 1,12,-1
 250 250 l 1,13,-1
 625 250 l 1,14,-1
 625 375 l 1,15,-1
 375 375 l 1,16,-1
 375 500 l 1,17,-1
 625 500 l 1,18,-1
 625 625 l 1,19,-1
 250 625 l 1,20,-1
 250 500 l 1,21,-1
 0 500 l 1,22,-1
 0 625 l 1,23,-1
 125 625 l 1,24,-1
 125 750 l 1,25,-1
 750 750 l 1,26,-1
 750 625 l 1,27,-1
 875 625 l 1,28,-1
 875 500 l 1,29,-1
 750 500 l 1,30,-1
 750 375 l 1,31,-1
 875 375 l 1,32,-1
 875 250 l 1,33,-1
 750 250 l 1,34,-1
 750 125 l 1,35,-1
 125 125 l 1,8,-1
EndSplineSet
Validated: 1
EndChar

StartChar: uni04E2
Encoding: 1250 1250 327
Width: 1000
Flags: W
LayerCount: 2
Fore
SplineSet
125 875 m 1,0,-1
 125 1000 l 1,1,-1
 750 1000 l 1,2,-1
 750 875 l 1,3,-1
 125 875 l 1,0,-1
0 125 m 1,4,-1
 0 750 l 1,5,-1
 250 750 l 1,6,-1
 250 375 l 1,7,-1
 375 375 l 1,8,-1
 375 500 l 1,9,-1
 500 500 l 1,10,-1
 500 625 l 1,11,-1
 625 625 l 1,12,-1
 625 750 l 1,13,-1
 875 750 l 1,14,-1
 875 125 l 1,15,-1
 625 125 l 1,16,-1
 625 375 l 1,17,-1
 500 375 l 1,18,-1
 500 250 l 1,19,-1
 375 250 l 1,20,-1
 375 125 l 1,21,-1
 0 125 l 1,4,-1
EndSplineSet
Validated: 1
EndChar

StartChar: uni04E4
Encoding: 1252 1252 328
Width: 1000
Flags: W
LayerCount: 2
Fore
SplineSet
125 875 m 1,0,-1
 125 1000 l 1,1,-1
 375 1000 l 1,2,-1
 375 875 l 1,3,-1
 125 875 l 1,0,-1
500 875 m 1,4,-1
 500 1000 l 1,5,-1
 750 1000 l 1,6,-1
 750 875 l 1,7,-1
 500 875 l 1,4,-1
0 125 m 1,8,-1
 0 750 l 1,9,-1
 250 750 l 1,10,-1
 250 375 l 1,11,-1
 375 375 l 1,12,-1
 375 500 l 1,13,-1
 500 500 l 1,14,-1
 500 625 l 1,15,-1
 625 625 l 1,16,-1
 625 750 l 1,17,-1
 875 750 l 1,18,-1
 875 125 l 1,19,-1
 625 125 l 1,20,-1
 625 375 l 1,21,-1
 500 375 l 1,22,-1
 500 250 l 1,23,-1
 375 250 l 1,24,-1
 375 125 l 1,25,-1
 0 125 l 1,8,-1
EndSplineSet
Validated: 1
EndChar

StartChar: uni04E6
Encoding: 1254 1254 329
Width: 1000
Flags: W
LayerCount: 2
Fore
SplineSet
125 875 m 1,0,-1
 125 1000 l 1,1,-1
 375 1000 l 1,2,-1
 375 875 l 1,3,-1
 125 875 l 1,0,-1
500 875 m 1,4,-1
 500 1000 l 1,5,-1
 750 1000 l 1,6,-1
 750 875 l 1,7,-1
 500 875 l 1,4,-1
125 125 m 1,8,-1
 125 250 l 1,9,-1
 0 250 l 1,10,-1
 0 625 l 1,11,-1
 125 625 l 1,12,-1
 125 750 l 1,13,-1
 750 750 l 1,14,-1
 750 625 l 1,15,-1
 875 625 l 1,16,-1
 875 250 l 1,17,-1
 750 250 l 1,18,-1
 750 125 l 1,19,-1
 125 125 l 1,8,-1
250 250 m 1,20,-1
 625 250 l 1,21,-1
 625 625 l 1,22,-1
 250 625 l 1,23,-1
 250 250 l 1,20,-1
EndSplineSet
Validated: 1
EndChar

StartChar: uni04E8
Encoding: 1256 1256 330
Width: 1000
Flags: W
LayerCount: 2
Fore
SplineSet
125 125 m 1,0,-1
 125 250 l 1,1,-1
 0 250 l 1,2,-1
 0 875 l 1,3,-1
 125 875 l 1,4,-1
 125 1000 l 1,5,-1
 750 1000 l 1,6,-1
 750 875 l 1,7,-1
 875 875 l 1,8,-1
 875 250 l 1,9,-1
 750 250 l 1,10,-1
 750 125 l 1,11,-1
 125 125 l 1,0,-1
250 250 m 1,12,-1
 625 250 l 1,13,-1
 625 875 l 1,14,-1
 250 875 l 1,15,-1
 250 250 l 1,12,-1
125 500 m 1,16,-1
 750 500 l 1,17,-1
 750 625 l 1,18,-1
 125 625 l 1,19,-1
 125 500 l 1,16,-1
EndSplineSet
Validated: 5
EndChar

StartChar: uni04EE
Encoding: 1262 1262 331
Width: 1000
Flags: W
LayerCount: 2
Fore
SplineSet
125 875 m 1,0,-1
 125 1000 l 1,1,-1
 750 1000 l 1,2,-1
 750 875 l 1,3,-1
 125 875 l 1,0,-1
125 125 m 1,4,-1
 125 250 l 1,5,-1
 625 250 l 1,6,-1
 625 375 l 1,7,-1
 125 375 l 1,8,-1
 125 500 l 1,9,-1
 0 500 l 1,10,-1
 0 750 l 1,11,-1
 250 750 l 1,12,-1
 250 500 l 1,13,-1
 625 500 l 1,14,-1
 625 750 l 1,15,-1
 875 750 l 1,16,-1
 875 250 l 1,17,-1
 750 250 l 1,18,-1
 750 125 l 1,19,-1
 125 125 l 1,4,-1
EndSplineSet
Validated: 1
EndChar

StartChar: uni04F0
Encoding: 1264 1264 332
Width: 1000
Flags: W
LayerCount: 2
Fore
SplineSet
125 875 m 1,0,-1
 125 1000 l 1,1,-1
 375 1000 l 1,2,-1
 375 875 l 1,3,-1
 125 875 l 1,0,-1
500 875 m 1,4,-1
 500 1000 l 1,5,-1
 750 1000 l 1,6,-1
 750 875 l 1,7,-1
 500 875 l 1,4,-1
125 125 m 1,8,-1
 125 250 l 1,9,-1
 625 250 l 1,10,-1
 625 375 l 1,11,-1
 125 375 l 1,12,-1
 125 500 l 1,13,-1
 0 500 l 1,14,-1
 0 750 l 1,15,-1
 250 750 l 1,16,-1
 250 500 l 1,17,-1
 625 500 l 1,18,-1
 625 750 l 1,19,-1
 875 750 l 1,20,-1
 875 250 l 1,21,-1
 750 250 l 1,22,-1
 750 125 l 1,23,-1
 125 125 l 1,8,-1
EndSplineSet
Validated: 1
EndChar

StartChar: uni04F2
Encoding: 1266 1266 333
Width: 1000
Flags: W
LayerCount: 2
Fore
SplineSet
375 875 m 1,0,-1
 250 875 l 1,1,-1
 250 1000 l 1,2,-1
 375 1000 l 1,3,-1
 375 875 l 1,0,-1
750 875 m 1,4,-1
 625 875 l 1,5,-1
 625 1000 l 1,6,-1
 750 1000 l 1,7,-1
 750 875 l 1,4,-1
625 750 m 1,8,-1
 875 750 l 1,9,-1
 875 250 l 1,10,-1
 750 250 l 1,11,-1
 750 125 l 1,12,-1
 125 125 l 1,13,-1
 125 250 l 1,14,-1
 625 250 l 1,15,-1
 625 375 l 1,16,-1
 125 375 l 1,17,-1
 125 500 l 1,18,-1
 0 500 l 1,19,-1
 0 750 l 1,20,-1
 125 750 l 1,21,-1
 125 875 l 1,22,-1
 250 875 l 1,23,-1
 250 500 l 1,24,-1
 625 500 l 1,25,-1
 625 750 l 1,8,-1
625 875 m 1,26,-1
 625 750 l 1,27,-1
 500 750 l 1,28,-1
 500 875 l 1,29,-1
 625 875 l 1,26,-1
EndSplineSet
Validated: 5
EndChar

StartChar: uni04F4
Encoding: 1268 1268 334
Width: 1000
Flags: W
LayerCount: 2
Fore
SplineSet
125 875 m 1,0,-1
 125 1000 l 1,1,-1
 375 1000 l 1,2,-1
 375 875 l 1,3,-1
 125 875 l 1,0,-1
500 875 m 1,4,-1
 500 1000 l 1,5,-1
 750 1000 l 1,6,-1
 750 875 l 1,7,-1
 500 875 l 1,4,-1
625 125 m 1,8,-1
 625 375 l 1,9,-1
 125 375 l 1,10,-1
 125 500 l 1,11,-1
 0 500 l 1,12,-1
 0 750 l 1,13,-1
 250 750 l 1,14,-1
 250 500 l 1,15,-1
 625 500 l 1,16,-1
 625 750 l 1,17,-1
 875 750 l 1,18,-1
 875 125 l 1,19,-1
 625 125 l 1,8,-1
EndSplineSet
Validated: 1
EndChar

StartChar: uni04F6
Encoding: 1270 1270 335
Width: 1000
Flags: W
LayerCount: 2
Fore
SplineSet
875 1000 m 1,0,-1
 875 750 l 1,1,-1
 750 750 l 1,2,-1
 750 875 l 1,3,-1
 375 875 l 1,4,-1
 375 250 l 1,5,-1
 500 250 l 1,6,-1
 500 0 l 1,7,-1
 250 0 l 1,8,-1
 250 125 l 1,9,-1
 125 125 l 1,10,-1
 125 1000 l 1,11,-1
 875 1000 l 1,0,-1
EndSplineSet
Validated: 1
EndChar

StartChar: uni04F8
Encoding: 1272 1272 336
Width: 1000
Flags: W
LayerCount: 2
Fore
SplineSet
125 875 m 1,0,-1
 125 1000 l 1,1,-1
 375 1000 l 1,2,-1
 375 875 l 1,3,-1
 125 875 l 1,0,-1
500 875 m 1,4,-1
 500 1000 l 1,5,-1
 750 1000 l 1,6,-1
 750 875 l 1,7,-1
 500 875 l 1,4,-1
0 125 m 1,8,-1
 0 750 l 1,9,-1
 250 750 l 1,10,-1
 250 625 l 1,11,-1
 500 625 l 1,12,-1
 500 125 l 1,13,-1
 0 125 l 1,8,-1
625 125 m 1,14,-1
 625 750 l 1,15,-1
 875 750 l 1,16,-1
 875 125 l 1,17,-1
 625 125 l 1,14,-1
250 250 m 1,18,-1
 375 250 l 1,19,-1
 375 500 l 1,20,-1
 250 500 l 1,21,-1
 250 250 l 1,18,-1
EndSplineSet
Validated: 1
EndChar

StartChar: uni051A
Encoding: 1306 1306 337
Width: 1000
Flags: W
LayerCount: 2
Fore
SplineSet
875 875 m 1,0,-1
 875 375 l 1,1,-1
 750 375 l 1,2,-1
 750 250 l 1,3,-1
 625 250 l 1,4,-1
 625 125 l 1,5,-1
 125 125 l 1,6,-1
 125 250 l 1,7,-1
 0 250 l 1,8,-1
 0 875 l 1,9,-1
 125 875 l 1,10,-1
 125 1000 l 1,11,-1
 750 1000 l 1,12,-1
 750 875 l 1,13,-1
 875 875 l 1,0,-1
625 875 m 1,14,-1
 250 875 l 1,15,-1
 250 250 l 1,16,-1
 500 250 l 1,17,-1
 500 375 l 1,18,-1
 375 375 l 1,19,-1
 375 500 l 1,20,-1
 625 500 l 1,21,-1
 625 875 l 1,14,-1
750 125 m 1,22,-1
 750 250 l 1,23,-1
 875 250 l 1,24,-1
 875 125 l 1,25,-1
 750 125 l 1,22,-1
EndSplineSet
Validated: 5
EndChar

StartChar: uni051C
Encoding: 1308 1308 338
Width: 1000
Flags: W
LayerCount: 2
Fore
SplineSet
125 125 m 1,0,-1
 125 250 l 1,1,-1
 0 250 l 1,2,-1
 0 1000 l 1,3,-1
 250 1000 l 1,4,-1
 250 500 l 1,5,-1
 375 500 l 1,6,-1
 375 1000 l 1,7,-1
 500 1000 l 1,8,-1
 500 500 l 1,9,-1
 625 500 l 1,10,-1
 625 1000 l 1,11,-1
 875 1000 l 1,12,-1
 875 250 l 1,13,-1
 750 250 l 1,14,-1
 750 125 l 1,15,-1
 625 125 l 1,16,-1
 625 250 l 1,17,-1
 500 250 l 1,18,-1
 500 375 l 1,19,-1
 375 375 l 1,20,-1
 375 250 l 1,21,-1
 250 250 l 1,22,-1
 250 125 l 1,23,-1
 125 125 l 1,0,-1
EndSplineSet
Validated: 1
EndChar

StartChar: uni0430
Encoding: 1072 1072 339
Width: 1000
Flags: W
LayerCount: 2
Fore
SplineSet
125 125 m 1,0,-1
 125 250 l 1,1,-1
 0 250 l 1,2,-1
 0 375 l 1,3,-1
 125 375 l 1,4,-1
 125 500 l 1,5,-1
 625 500 l 1,6,-1
 625 625 l 1,7,-1
 125 625 l 1,8,-1
 125 750 l 1,9,-1
 750 750 l 1,10,-1
 750 625 l 1,11,-1
 875 625 l 1,12,-1
 875 125 l 1,13,-1
 125 125 l 1,0,-1
250 250 m 1,14,-1
 625 250 l 1,15,-1
 625 375 l 1,16,-1
 250 375 l 1,17,-1
 250 250 l 1,14,-1
EndSplineSet
Validated: 1
EndChar

StartChar: uni0431
Encoding: 1073 1073 340
Width: 1000
Flags: W
LayerCount: 2
Fore
SplineSet
875 1000 m 1,0,-1
 875 875 l 1,1,-1
 250 875 l 1,2,-1
 250 625 l 1,3,-1
 375 625 l 1,4,-1
 375 500 l 1,5,-1
 250 500 l 1,6,-1
 250 250 l 1,7,-1
 625 250 l 1,8,-1
 625 625 l 1,9,-1
 375 625 l 1,10,-1
 375 750 l 1,11,-1
 750 750 l 1,12,-1
 750 625 l 1,13,-1
 875 625 l 1,14,-1
 875 250 l 1,15,-1
 750 250 l 1,16,-1
 750 125 l 1,17,-1
 125 125 l 1,18,-1
 125 250 l 1,19,-1
 0 250 l 1,20,-1
 0 875 l 1,21,-1
 125 875 l 1,22,-1
 125 1000 l 1,23,-1
 875 1000 l 1,0,-1
EndSplineSet
Validated: 5
EndChar

StartChar: uni0432
Encoding: 1074 1074 341
Width: 1000
Flags: W
LayerCount: 2
Fore
SplineSet
0 125 m 1,0,-1
 0 750 l 1,1,-1
 750 750 l 1,2,-1
 750 625 l 1,3,-1
 875 625 l 1,4,-1
 875 500 l 1,5,-1
 750 500 l 1,6,-1
 750 375 l 1,7,-1
 875 375 l 1,8,-1
 875 250 l 1,9,-1
 750 250 l 1,10,-1
 750 125 l 1,11,-1
 0 125 l 1,0,-1
250 500 m 1,12,-1
 625 500 l 1,13,-1
 625 625 l 1,14,-1
 250 625 l 1,15,-1
 250 500 l 1,12,-1
250 250 m 1,16,-1
 625 250 l 1,17,-1
 625 375 l 1,18,-1
 250 375 l 1,19,-1
 250 250 l 1,16,-1
EndSplineSet
Validated: 1
EndChar

StartChar: uni0433
Encoding: 1075 1075 342
Width: 1000
Flags: W
LayerCount: 2
Fore
SplineSet
125 125 m 1,0,-1
 125 750 l 1,1,-1
 875 750 l 1,2,-1
 875 500 l 1,3,-1
 750 500 l 1,4,-1
 750 625 l 1,5,-1
 375 625 l 1,6,-1
 375 125 l 1,7,-1
 125 125 l 1,0,-1
EndSplineSet
Validated: 1
EndChar

StartChar: uni0453
Encoding: 1107 1107 343
Width: 1000
Flags: W
LayerCount: 2
Fore
SplineSet
750 875 m 1,0,-1
 625 875 l 1,1,-1
 625 1000 l 1,2,-1
 750 1000 l 1,3,-1
 750 875 l 1,0,-1
875 750 m 1,4,-1
 875 500 l 1,5,-1
 750 500 l 1,6,-1
 750 625 l 1,7,-1
 375 625 l 1,8,-1
 375 125 l 1,9,-1
 125 125 l 1,10,-1
 125 750 l 1,11,-1
 500 750 l 1,12,-1
 500 875 l 1,13,-1
 625 875 l 1,14,-1
 625 750 l 1,15,-1
 875 750 l 1,4,-1
EndSplineSet
Validated: 5
EndChar

StartChar: uni0491
Encoding: 1169 1169 344
Width: 1000
Flags: W
LayerCount: 2
Fore
SplineSet
625 875 m 1,0,-1
 875 875 l 1,1,-1
 875 625 l 1,2,-1
 375 625 l 1,3,-1
 375 125 l 1,4,-1
 125 125 l 1,5,-1
 125 750 l 1,6,-1
 625 750 l 1,7,-1
 625 875 l 1,0,-1
EndSplineSet
Validated: 1
EndChar

StartChar: uni0434
Encoding: 1076 1076 345
Width: 1000
Flags: W
LayerCount: 2
Fore
SplineSet
875 250 m 1,0,-1
 1000 250 l 1,1,-1
 1000 0 l 1,2,-1
 750 0 l 1,3,-1
 750 125 l 1,4,-1
 250 125 l 1,5,-1
 250 0 l 1,6,-1
 0 0 l 1,7,-1
 0 250 l 1,8,-1
 125 250 l 1,9,-1
 125 375 l 1,10,-1
 250 375 l 1,11,-1
 250 750 l 1,12,-1
 875 750 l 1,13,-1
 875 250 l 1,0,-1
375 250 m 1,14,-1
 625 250 l 1,15,-1
 625 625 l 1,16,-1
 375 625 l 1,17,-1
 375 250 l 1,14,-1
EndSplineSet
Validated: 1
EndChar

StartChar: uni0435
Encoding: 1077 1077 346
Width: 1000
Flags: W
LayerCount: 2
Fore
SplineSet
125 125 m 1,0,-1
 125 250 l 1,1,-1
 0 250 l 1,2,-1
 0 625 l 1,3,-1
 125 625 l 1,4,-1
 125 750 l 1,5,-1
 750 750 l 1,6,-1
 750 625 l 1,7,-1
 875 625 l 1,8,-1
 875 375 l 1,9,-1
 250 375 l 1,10,-1
 250 250 l 1,11,-1
 750 250 l 1,12,-1
 750 125 l 1,13,-1
 125 125 l 1,0,-1
250 500 m 1,14,-1
 625 500 l 1,15,-1
 625 625 l 1,16,-1
 250 625 l 1,17,-1
 250 500 l 1,14,-1
EndSplineSet
Validated: 1
EndChar

StartChar: uni0450
Encoding: 1104 1104 347
Width: 1000
Flags: W
LayerCount: 2
Fore
SplineSet
375 1000 m 1,0,-1
 375 875 l 1,1,-1
 250 875 l 1,2,-1
 250 1000 l 1,3,-1
 375 1000 l 1,0,-1
875 625 m 1,4,-1
 875 375 l 1,5,-1
 250 375 l 1,6,-1
 250 250 l 1,7,-1
 750 250 l 1,8,-1
 750 125 l 1,9,-1
 125 125 l 1,10,-1
 125 250 l 1,11,-1
 0 250 l 1,12,-1
 0 625 l 1,13,-1
 125 625 l 1,14,-1
 125 750 l 1,15,-1
 375 750 l 1,16,-1
 375 875 l 1,17,-1
 500 875 l 1,18,-1
 500 750 l 1,19,-1
 750 750 l 1,20,-1
 750 625 l 1,21,-1
 875 625 l 1,4,-1
625 625 m 1,22,-1
 250 625 l 1,23,-1
 250 500 l 1,24,-1
 625 500 l 1,25,-1
 625 625 l 1,22,-1
EndSplineSet
Validated: 5
EndChar

